M48
; DRILL file {KiCad 6.0.9} date Mon 13 Feb 2023 04:45:07 PM PST
; FORMAT={-:-/ absolute / metric / decimal}
; #@! TF.CreationDate,2023-02-13T16:45:07-08:00
; #@! TF.GenerationSoftware,Kicad,Pcbnew,6.0.9
; #@! TF.FileFunction,Plated,1,2,PTH
FMAT,2
METRIC
; #@! TA.AperFunction,Plated,PTH,ViaDrill
T1C0.400
; #@! TA.AperFunction,Plated,PTH,ComponentDrill
T2C0.500
; #@! TA.AperFunction,Plated,PTH,ComponentDrill
T3C1.000
; #@! TA.AperFunction,Plated,PTH,ComponentDrill
T4C3.200
%
G90
G05
T1
X111.125Y-90.17
X111.125Y-92.075
X111.125Y-93.98
X111.125Y-95.885
X111.125Y-97.79
X111.125Y-99.695
X111.125Y-105.41
X111.125Y-107.315
X111.125Y-109.22
X111.125Y-111.125
X111.125Y-113.03
X111.125Y-114.935
X124.46Y-99.06
X145.735Y-103.505
X155.575Y-99.06
X161.925Y-102.235
X164.465Y-95.885
X167.005Y-99.06
X170.18Y-107.95
X171.48Y-100.36
X173.835Y-107.95
X177.645Y-107.95
X178.915Y-99.06
X179.07Y-95.504
X191.135Y-90.17
X191.135Y-92.075
X191.135Y-93.98
X191.135Y-95.885
X191.135Y-97.79
X191.135Y-99.695
X191.135Y-105.41
X191.135Y-107.315
X191.135Y-109.22
X191.135Y-111.125
X191.135Y-113.03
X191.135Y-114.935
T2
X104.28Y-83.82
X104.28Y-121.92
X104.983Y-82.123
X104.983Y-85.517
X104.983Y-120.223
X104.983Y-123.617
X106.68Y-81.42
X106.68Y-86.22
X106.68Y-119.52
X106.68Y-124.32
X108.377Y-82.123
X108.377Y-85.517
X108.377Y-120.223
X108.377Y-123.617
X109.08Y-83.82
X109.08Y-121.92
X193.18Y-83.82
X193.18Y-121.92
X193.883Y-82.123
X193.883Y-85.517
X193.883Y-120.223
X193.883Y-123.617
X195.58Y-81.42
X195.58Y-86.22
X195.58Y-119.52
X195.58Y-124.32
X197.277Y-82.123
X197.277Y-85.517
X197.277Y-120.223
X197.277Y-123.617
X197.98Y-83.82
X197.98Y-121.92
T3
X116.995Y-91.645
X116.995Y-94.185
X116.995Y-96.725
X116.995Y-99.265
X116.995Y-106.25
X116.995Y-108.79
X116.995Y-111.33
X116.995Y-113.87
X186.69Y-91.645
X186.69Y-94.185
X186.69Y-96.725
X186.69Y-99.265
X186.69Y-106.25
X186.69Y-108.79
X186.69Y-111.33
X186.69Y-113.87
T4
X106.68Y-83.82
X106.68Y-121.92
X195.58Y-83.82
X195.58Y-121.92
T0
M30
