%TF.GenerationSoftware,KiCad,Pcbnew,7.0.2*%
%TF.CreationDate,2023-06-12T21:50:36-07:00*%
%TF.ProjectId,latch,6c617463-682e-46b6-9963-61645f706362,A*%
%TF.SameCoordinates,Original*%
%TF.FileFunction,Legend,Top*%
%TF.FilePolarity,Positive*%
%FSLAX46Y46*%
G04 Gerber Fmt 4.6, Leading zero omitted, Abs format (unit mm)*
G04 Created by KiCad (PCBNEW 7.0.2) date 2023-06-12 21:50:36*
%MOMM*%
%LPD*%
G01*
G04 APERTURE LIST*
%ADD10C,0.200000*%
%ADD11C,0.300000*%
%ADD12C,0.150000*%
%ADD13C,0.120000*%
G04 APERTURE END LIST*
D10*
X122555000Y-112395000D02*
X182245000Y-112395000D01*
X182245000Y-125730000D01*
X122555000Y-125730000D01*
X122555000Y-112395000D01*
X122555000Y-84455000D02*
X182245000Y-84455000D01*
X182245000Y-91440000D01*
X122555000Y-91440000D01*
X122555000Y-84455000D01*
X122555000Y-91440000D02*
X136525000Y-91440000D01*
X136525000Y-112395000D01*
X122555000Y-112395000D01*
X122555000Y-91440000D01*
X182245000Y-84455000D02*
X191135000Y-84455000D01*
X191135000Y-121920000D01*
X182245000Y-121920000D01*
X182245000Y-84455000D01*
X111125000Y-84455000D02*
X122555000Y-84455000D01*
X122555000Y-121920000D01*
X111125000Y-121920000D01*
X111125000Y-84455000D01*
X136525000Y-91440000D02*
X158750000Y-91440000D01*
X158750000Y-112395000D01*
X136525000Y-112395000D01*
X136525000Y-91440000D01*
X111125000Y-80010000D02*
X191135000Y-80010000D01*
X191135000Y-84455000D01*
X111125000Y-84455000D01*
X111125000Y-80010000D01*
X152717500Y-125730000D02*
X152717500Y-112395000D01*
X136525000Y-84455000D02*
X158750000Y-84455000D01*
X158750000Y-91440000D01*
X136525000Y-91440000D01*
X136525000Y-84455000D01*
X158750000Y-91440000D02*
X182245000Y-91440000D01*
X182245000Y-112395000D01*
X158750000Y-112395000D01*
X158750000Y-91440000D01*
D11*
X115316190Y-118400476D02*
X115125714Y-118305238D01*
X115125714Y-118305238D02*
X114840000Y-118305238D01*
X114840000Y-118305238D02*
X114554285Y-118400476D01*
X114554285Y-118400476D02*
X114363809Y-118590952D01*
X114363809Y-118590952D02*
X114268571Y-118781428D01*
X114268571Y-118781428D02*
X114173333Y-119162380D01*
X114173333Y-119162380D02*
X114173333Y-119448095D01*
X114173333Y-119448095D02*
X114268571Y-119829047D01*
X114268571Y-119829047D02*
X114363809Y-120019523D01*
X114363809Y-120019523D02*
X114554285Y-120210000D01*
X114554285Y-120210000D02*
X114840000Y-120305238D01*
X114840000Y-120305238D02*
X115030476Y-120305238D01*
X115030476Y-120305238D02*
X115316190Y-120210000D01*
X115316190Y-120210000D02*
X115411428Y-120114761D01*
X115411428Y-120114761D02*
X115411428Y-119448095D01*
X115411428Y-119448095D02*
X115030476Y-119448095D01*
X116268571Y-120305238D02*
X116268571Y-118305238D01*
X116268571Y-118305238D02*
X117411428Y-120305238D01*
X117411428Y-120305238D02*
X117411428Y-118305238D01*
X118363809Y-120305238D02*
X118363809Y-118305238D01*
X118363809Y-118305238D02*
X118839999Y-118305238D01*
X118839999Y-118305238D02*
X119125714Y-118400476D01*
X119125714Y-118400476D02*
X119316190Y-118590952D01*
X119316190Y-118590952D02*
X119411428Y-118781428D01*
X119411428Y-118781428D02*
X119506666Y-119162380D01*
X119506666Y-119162380D02*
X119506666Y-119448095D01*
X119506666Y-119448095D02*
X119411428Y-119829047D01*
X119411428Y-119829047D02*
X119316190Y-120019523D01*
X119316190Y-120019523D02*
X119125714Y-120210000D01*
X119125714Y-120210000D02*
X118839999Y-120305238D01*
X118839999Y-120305238D02*
X118363809Y-120305238D01*
X132915715Y-81108928D02*
X133415715Y-82608928D01*
X133415715Y-82608928D02*
X133915715Y-81108928D01*
X134630000Y-82608928D02*
X134487143Y-82537500D01*
X134487143Y-82537500D02*
X134415714Y-82466071D01*
X134415714Y-82466071D02*
X134344286Y-82323214D01*
X134344286Y-82323214D02*
X134344286Y-81894642D01*
X134344286Y-81894642D02*
X134415714Y-81751785D01*
X134415714Y-81751785D02*
X134487143Y-81680357D01*
X134487143Y-81680357D02*
X134630000Y-81608928D01*
X134630000Y-81608928D02*
X134844286Y-81608928D01*
X134844286Y-81608928D02*
X134987143Y-81680357D01*
X134987143Y-81680357D02*
X135058572Y-81751785D01*
X135058572Y-81751785D02*
X135130000Y-81894642D01*
X135130000Y-81894642D02*
X135130000Y-82323214D01*
X135130000Y-82323214D02*
X135058572Y-82466071D01*
X135058572Y-82466071D02*
X134987143Y-82537500D01*
X134987143Y-82537500D02*
X134844286Y-82608928D01*
X134844286Y-82608928D02*
X134630000Y-82608928D01*
X135987143Y-82608928D02*
X135844286Y-82537500D01*
X135844286Y-82537500D02*
X135772857Y-82394642D01*
X135772857Y-82394642D02*
X135772857Y-81108928D01*
X136344286Y-81608928D02*
X136915714Y-81608928D01*
X136558571Y-81108928D02*
X136558571Y-82394642D01*
X136558571Y-82394642D02*
X136630000Y-82537500D01*
X136630000Y-82537500D02*
X136772857Y-82608928D01*
X136772857Y-82608928D02*
X136915714Y-82608928D01*
X138058572Y-82608928D02*
X138058572Y-81823214D01*
X138058572Y-81823214D02*
X137987143Y-81680357D01*
X137987143Y-81680357D02*
X137844286Y-81608928D01*
X137844286Y-81608928D02*
X137558572Y-81608928D01*
X137558572Y-81608928D02*
X137415714Y-81680357D01*
X138058572Y-82537500D02*
X137915714Y-82608928D01*
X137915714Y-82608928D02*
X137558572Y-82608928D01*
X137558572Y-82608928D02*
X137415714Y-82537500D01*
X137415714Y-82537500D02*
X137344286Y-82394642D01*
X137344286Y-82394642D02*
X137344286Y-82251785D01*
X137344286Y-82251785D02*
X137415714Y-82108928D01*
X137415714Y-82108928D02*
X137558572Y-82037500D01*
X137558572Y-82037500D02*
X137915714Y-82037500D01*
X137915714Y-82037500D02*
X138058572Y-81966071D01*
X139415715Y-81608928D02*
X139415715Y-82823214D01*
X139415715Y-82823214D02*
X139344286Y-82966071D01*
X139344286Y-82966071D02*
X139272857Y-83037500D01*
X139272857Y-83037500D02*
X139130000Y-83108928D01*
X139130000Y-83108928D02*
X138915715Y-83108928D01*
X138915715Y-83108928D02*
X138772857Y-83037500D01*
X139415715Y-82537500D02*
X139272857Y-82608928D01*
X139272857Y-82608928D02*
X138987143Y-82608928D01*
X138987143Y-82608928D02*
X138844286Y-82537500D01*
X138844286Y-82537500D02*
X138772857Y-82466071D01*
X138772857Y-82466071D02*
X138701429Y-82323214D01*
X138701429Y-82323214D02*
X138701429Y-81894642D01*
X138701429Y-81894642D02*
X138772857Y-81751785D01*
X138772857Y-81751785D02*
X138844286Y-81680357D01*
X138844286Y-81680357D02*
X138987143Y-81608928D01*
X138987143Y-81608928D02*
X139272857Y-81608928D01*
X139272857Y-81608928D02*
X139415715Y-81680357D01*
X140701429Y-82537500D02*
X140558572Y-82608928D01*
X140558572Y-82608928D02*
X140272858Y-82608928D01*
X140272858Y-82608928D02*
X140130000Y-82537500D01*
X140130000Y-82537500D02*
X140058572Y-82394642D01*
X140058572Y-82394642D02*
X140058572Y-81823214D01*
X140058572Y-81823214D02*
X140130000Y-81680357D01*
X140130000Y-81680357D02*
X140272858Y-81608928D01*
X140272858Y-81608928D02*
X140558572Y-81608928D01*
X140558572Y-81608928D02*
X140701429Y-81680357D01*
X140701429Y-81680357D02*
X140772858Y-81823214D01*
X140772858Y-81823214D02*
X140772858Y-81966071D01*
X140772858Y-81966071D02*
X140058572Y-82108928D01*
X141415714Y-82037500D02*
X142558572Y-82037500D01*
X144130000Y-82466071D02*
X144058572Y-82537500D01*
X144058572Y-82537500D02*
X143844286Y-82608928D01*
X143844286Y-82608928D02*
X143701429Y-82608928D01*
X143701429Y-82608928D02*
X143487143Y-82537500D01*
X143487143Y-82537500D02*
X143344286Y-82394642D01*
X143344286Y-82394642D02*
X143272857Y-82251785D01*
X143272857Y-82251785D02*
X143201429Y-81966071D01*
X143201429Y-81966071D02*
X143201429Y-81751785D01*
X143201429Y-81751785D02*
X143272857Y-81466071D01*
X143272857Y-81466071D02*
X143344286Y-81323214D01*
X143344286Y-81323214D02*
X143487143Y-81180357D01*
X143487143Y-81180357D02*
X143701429Y-81108928D01*
X143701429Y-81108928D02*
X143844286Y-81108928D01*
X143844286Y-81108928D02*
X144058572Y-81180357D01*
X144058572Y-81180357D02*
X144130000Y-81251785D01*
X144987143Y-82608928D02*
X144844286Y-82537500D01*
X144844286Y-82537500D02*
X144772857Y-82466071D01*
X144772857Y-82466071D02*
X144701429Y-82323214D01*
X144701429Y-82323214D02*
X144701429Y-81894642D01*
X144701429Y-81894642D02*
X144772857Y-81751785D01*
X144772857Y-81751785D02*
X144844286Y-81680357D01*
X144844286Y-81680357D02*
X144987143Y-81608928D01*
X144987143Y-81608928D02*
X145201429Y-81608928D01*
X145201429Y-81608928D02*
X145344286Y-81680357D01*
X145344286Y-81680357D02*
X145415715Y-81751785D01*
X145415715Y-81751785D02*
X145487143Y-81894642D01*
X145487143Y-81894642D02*
X145487143Y-82323214D01*
X145487143Y-82323214D02*
X145415715Y-82466071D01*
X145415715Y-82466071D02*
X145344286Y-82537500D01*
X145344286Y-82537500D02*
X145201429Y-82608928D01*
X145201429Y-82608928D02*
X144987143Y-82608928D01*
X146130000Y-81608928D02*
X146130000Y-82608928D01*
X146130000Y-81751785D02*
X146201429Y-81680357D01*
X146201429Y-81680357D02*
X146344286Y-81608928D01*
X146344286Y-81608928D02*
X146558572Y-81608928D01*
X146558572Y-81608928D02*
X146701429Y-81680357D01*
X146701429Y-81680357D02*
X146772858Y-81823214D01*
X146772858Y-81823214D02*
X146772858Y-82608928D01*
X147272858Y-81608928D02*
X147844286Y-81608928D01*
X147487143Y-81108928D02*
X147487143Y-82394642D01*
X147487143Y-82394642D02*
X147558572Y-82537500D01*
X147558572Y-82537500D02*
X147701429Y-82608928D01*
X147701429Y-82608928D02*
X147844286Y-82608928D01*
X148344286Y-82608928D02*
X148344286Y-81608928D01*
X148344286Y-81894642D02*
X148415715Y-81751785D01*
X148415715Y-81751785D02*
X148487144Y-81680357D01*
X148487144Y-81680357D02*
X148630001Y-81608928D01*
X148630001Y-81608928D02*
X148772858Y-81608928D01*
X149487143Y-82608928D02*
X149344286Y-82537500D01*
X149344286Y-82537500D02*
X149272857Y-82466071D01*
X149272857Y-82466071D02*
X149201429Y-82323214D01*
X149201429Y-82323214D02*
X149201429Y-81894642D01*
X149201429Y-81894642D02*
X149272857Y-81751785D01*
X149272857Y-81751785D02*
X149344286Y-81680357D01*
X149344286Y-81680357D02*
X149487143Y-81608928D01*
X149487143Y-81608928D02*
X149701429Y-81608928D01*
X149701429Y-81608928D02*
X149844286Y-81680357D01*
X149844286Y-81680357D02*
X149915715Y-81751785D01*
X149915715Y-81751785D02*
X149987143Y-81894642D01*
X149987143Y-81894642D02*
X149987143Y-82323214D01*
X149987143Y-82323214D02*
X149915715Y-82466071D01*
X149915715Y-82466071D02*
X149844286Y-82537500D01*
X149844286Y-82537500D02*
X149701429Y-82608928D01*
X149701429Y-82608928D02*
X149487143Y-82608928D01*
X150844286Y-82608928D02*
X150701429Y-82537500D01*
X150701429Y-82537500D02*
X150630000Y-82394642D01*
X150630000Y-82394642D02*
X150630000Y-81108928D01*
X151630000Y-82608928D02*
X151487143Y-82537500D01*
X151487143Y-82537500D02*
X151415714Y-82394642D01*
X151415714Y-82394642D02*
X151415714Y-81108928D01*
X152772857Y-82537500D02*
X152630000Y-82608928D01*
X152630000Y-82608928D02*
X152344286Y-82608928D01*
X152344286Y-82608928D02*
X152201428Y-82537500D01*
X152201428Y-82537500D02*
X152130000Y-82394642D01*
X152130000Y-82394642D02*
X152130000Y-81823214D01*
X152130000Y-81823214D02*
X152201428Y-81680357D01*
X152201428Y-81680357D02*
X152344286Y-81608928D01*
X152344286Y-81608928D02*
X152630000Y-81608928D01*
X152630000Y-81608928D02*
X152772857Y-81680357D01*
X152772857Y-81680357D02*
X152844286Y-81823214D01*
X152844286Y-81823214D02*
X152844286Y-81966071D01*
X152844286Y-81966071D02*
X152130000Y-82108928D01*
X154130000Y-82608928D02*
X154130000Y-81108928D01*
X154130000Y-82537500D02*
X153987142Y-82608928D01*
X153987142Y-82608928D02*
X153701428Y-82608928D01*
X153701428Y-82608928D02*
X153558571Y-82537500D01*
X153558571Y-82537500D02*
X153487142Y-82466071D01*
X153487142Y-82466071D02*
X153415714Y-82323214D01*
X153415714Y-82323214D02*
X153415714Y-81894642D01*
X153415714Y-81894642D02*
X153487142Y-81751785D01*
X153487142Y-81751785D02*
X153558571Y-81680357D01*
X153558571Y-81680357D02*
X153701428Y-81608928D01*
X153701428Y-81608928D02*
X153987142Y-81608928D01*
X153987142Y-81608928D02*
X154130000Y-81680357D01*
X155987142Y-82608928D02*
X155987142Y-81108928D01*
X155987142Y-81108928D02*
X156558571Y-81108928D01*
X156558571Y-81108928D02*
X156701428Y-81180357D01*
X156701428Y-81180357D02*
X156772857Y-81251785D01*
X156772857Y-81251785D02*
X156844285Y-81394642D01*
X156844285Y-81394642D02*
X156844285Y-81608928D01*
X156844285Y-81608928D02*
X156772857Y-81751785D01*
X156772857Y-81751785D02*
X156701428Y-81823214D01*
X156701428Y-81823214D02*
X156558571Y-81894642D01*
X156558571Y-81894642D02*
X155987142Y-81894642D01*
X157701428Y-82608928D02*
X157558571Y-82537500D01*
X157558571Y-82537500D02*
X157487142Y-82466071D01*
X157487142Y-82466071D02*
X157415714Y-82323214D01*
X157415714Y-82323214D02*
X157415714Y-81894642D01*
X157415714Y-81894642D02*
X157487142Y-81751785D01*
X157487142Y-81751785D02*
X157558571Y-81680357D01*
X157558571Y-81680357D02*
X157701428Y-81608928D01*
X157701428Y-81608928D02*
X157915714Y-81608928D01*
X157915714Y-81608928D02*
X158058571Y-81680357D01*
X158058571Y-81680357D02*
X158130000Y-81751785D01*
X158130000Y-81751785D02*
X158201428Y-81894642D01*
X158201428Y-81894642D02*
X158201428Y-82323214D01*
X158201428Y-82323214D02*
X158130000Y-82466071D01*
X158130000Y-82466071D02*
X158058571Y-82537500D01*
X158058571Y-82537500D02*
X157915714Y-82608928D01*
X157915714Y-82608928D02*
X157701428Y-82608928D01*
X158701428Y-81608928D02*
X158987143Y-82608928D01*
X158987143Y-82608928D02*
X159272857Y-81894642D01*
X159272857Y-81894642D02*
X159558571Y-82608928D01*
X159558571Y-82608928D02*
X159844285Y-81608928D01*
X160987143Y-82537500D02*
X160844286Y-82608928D01*
X160844286Y-82608928D02*
X160558572Y-82608928D01*
X160558572Y-82608928D02*
X160415714Y-82537500D01*
X160415714Y-82537500D02*
X160344286Y-82394642D01*
X160344286Y-82394642D02*
X160344286Y-81823214D01*
X160344286Y-81823214D02*
X160415714Y-81680357D01*
X160415714Y-81680357D02*
X160558572Y-81608928D01*
X160558572Y-81608928D02*
X160844286Y-81608928D01*
X160844286Y-81608928D02*
X160987143Y-81680357D01*
X160987143Y-81680357D02*
X161058572Y-81823214D01*
X161058572Y-81823214D02*
X161058572Y-81966071D01*
X161058572Y-81966071D02*
X160344286Y-82108928D01*
X161701428Y-82608928D02*
X161701428Y-81608928D01*
X161701428Y-81894642D02*
X161772857Y-81751785D01*
X161772857Y-81751785D02*
X161844286Y-81680357D01*
X161844286Y-81680357D02*
X161987143Y-81608928D01*
X161987143Y-81608928D02*
X162130000Y-81608928D01*
X164487142Y-82608928D02*
X163772856Y-82608928D01*
X163772856Y-82608928D02*
X163772856Y-81108928D01*
X165630000Y-82608928D02*
X165630000Y-81823214D01*
X165630000Y-81823214D02*
X165558571Y-81680357D01*
X165558571Y-81680357D02*
X165415714Y-81608928D01*
X165415714Y-81608928D02*
X165130000Y-81608928D01*
X165130000Y-81608928D02*
X164987142Y-81680357D01*
X165630000Y-82537500D02*
X165487142Y-82608928D01*
X165487142Y-82608928D02*
X165130000Y-82608928D01*
X165130000Y-82608928D02*
X164987142Y-82537500D01*
X164987142Y-82537500D02*
X164915714Y-82394642D01*
X164915714Y-82394642D02*
X164915714Y-82251785D01*
X164915714Y-82251785D02*
X164987142Y-82108928D01*
X164987142Y-82108928D02*
X165130000Y-82037500D01*
X165130000Y-82037500D02*
X165487142Y-82037500D01*
X165487142Y-82037500D02*
X165630000Y-81966071D01*
X166130000Y-81608928D02*
X166701428Y-81608928D01*
X166344285Y-81108928D02*
X166344285Y-82394642D01*
X166344285Y-82394642D02*
X166415714Y-82537500D01*
X166415714Y-82537500D02*
X166558571Y-82608928D01*
X166558571Y-82608928D02*
X166701428Y-82608928D01*
X167844286Y-82537500D02*
X167701428Y-82608928D01*
X167701428Y-82608928D02*
X167415714Y-82608928D01*
X167415714Y-82608928D02*
X167272857Y-82537500D01*
X167272857Y-82537500D02*
X167201428Y-82466071D01*
X167201428Y-82466071D02*
X167130000Y-82323214D01*
X167130000Y-82323214D02*
X167130000Y-81894642D01*
X167130000Y-81894642D02*
X167201428Y-81751785D01*
X167201428Y-81751785D02*
X167272857Y-81680357D01*
X167272857Y-81680357D02*
X167415714Y-81608928D01*
X167415714Y-81608928D02*
X167701428Y-81608928D01*
X167701428Y-81608928D02*
X167844286Y-81680357D01*
X168487142Y-82608928D02*
X168487142Y-81108928D01*
X169130000Y-82608928D02*
X169130000Y-81823214D01*
X169130000Y-81823214D02*
X169058571Y-81680357D01*
X169058571Y-81680357D02*
X168915714Y-81608928D01*
X168915714Y-81608928D02*
X168701428Y-81608928D01*
X168701428Y-81608928D02*
X168558571Y-81680357D01*
X168558571Y-81680357D02*
X168487142Y-81751785D01*
D12*
X123730475Y-86917619D02*
X124063808Y-87917619D01*
X124063808Y-87917619D02*
X124397141Y-86917619D01*
X124873332Y-87917619D02*
X124778094Y-87870000D01*
X124778094Y-87870000D02*
X124730475Y-87822380D01*
X124730475Y-87822380D02*
X124682856Y-87727142D01*
X124682856Y-87727142D02*
X124682856Y-87441428D01*
X124682856Y-87441428D02*
X124730475Y-87346190D01*
X124730475Y-87346190D02*
X124778094Y-87298571D01*
X124778094Y-87298571D02*
X124873332Y-87250952D01*
X124873332Y-87250952D02*
X125016189Y-87250952D01*
X125016189Y-87250952D02*
X125111427Y-87298571D01*
X125111427Y-87298571D02*
X125159046Y-87346190D01*
X125159046Y-87346190D02*
X125206665Y-87441428D01*
X125206665Y-87441428D02*
X125206665Y-87727142D01*
X125206665Y-87727142D02*
X125159046Y-87822380D01*
X125159046Y-87822380D02*
X125111427Y-87870000D01*
X125111427Y-87870000D02*
X125016189Y-87917619D01*
X125016189Y-87917619D02*
X124873332Y-87917619D01*
X125778094Y-87917619D02*
X125682856Y-87870000D01*
X125682856Y-87870000D02*
X125635237Y-87774761D01*
X125635237Y-87774761D02*
X125635237Y-86917619D01*
X126016190Y-87250952D02*
X126397142Y-87250952D01*
X126159047Y-86917619D02*
X126159047Y-87774761D01*
X126159047Y-87774761D02*
X126206666Y-87870000D01*
X126206666Y-87870000D02*
X126301904Y-87917619D01*
X126301904Y-87917619D02*
X126397142Y-87917619D01*
X127159047Y-87917619D02*
X127159047Y-87393809D01*
X127159047Y-87393809D02*
X127111428Y-87298571D01*
X127111428Y-87298571D02*
X127016190Y-87250952D01*
X127016190Y-87250952D02*
X126825714Y-87250952D01*
X126825714Y-87250952D02*
X126730476Y-87298571D01*
X127159047Y-87870000D02*
X127063809Y-87917619D01*
X127063809Y-87917619D02*
X126825714Y-87917619D01*
X126825714Y-87917619D02*
X126730476Y-87870000D01*
X126730476Y-87870000D02*
X126682857Y-87774761D01*
X126682857Y-87774761D02*
X126682857Y-87679523D01*
X126682857Y-87679523D02*
X126730476Y-87584285D01*
X126730476Y-87584285D02*
X126825714Y-87536666D01*
X126825714Y-87536666D02*
X127063809Y-87536666D01*
X127063809Y-87536666D02*
X127159047Y-87489047D01*
X128063809Y-87250952D02*
X128063809Y-88060476D01*
X128063809Y-88060476D02*
X128016190Y-88155714D01*
X128016190Y-88155714D02*
X127968571Y-88203333D01*
X127968571Y-88203333D02*
X127873333Y-88250952D01*
X127873333Y-88250952D02*
X127730476Y-88250952D01*
X127730476Y-88250952D02*
X127635238Y-88203333D01*
X128063809Y-87870000D02*
X127968571Y-87917619D01*
X127968571Y-87917619D02*
X127778095Y-87917619D01*
X127778095Y-87917619D02*
X127682857Y-87870000D01*
X127682857Y-87870000D02*
X127635238Y-87822380D01*
X127635238Y-87822380D02*
X127587619Y-87727142D01*
X127587619Y-87727142D02*
X127587619Y-87441428D01*
X127587619Y-87441428D02*
X127635238Y-87346190D01*
X127635238Y-87346190D02*
X127682857Y-87298571D01*
X127682857Y-87298571D02*
X127778095Y-87250952D01*
X127778095Y-87250952D02*
X127968571Y-87250952D01*
X127968571Y-87250952D02*
X128063809Y-87298571D01*
X128920952Y-87870000D02*
X128825714Y-87917619D01*
X128825714Y-87917619D02*
X128635238Y-87917619D01*
X128635238Y-87917619D02*
X128540000Y-87870000D01*
X128540000Y-87870000D02*
X128492381Y-87774761D01*
X128492381Y-87774761D02*
X128492381Y-87393809D01*
X128492381Y-87393809D02*
X128540000Y-87298571D01*
X128540000Y-87298571D02*
X128635238Y-87250952D01*
X128635238Y-87250952D02*
X128825714Y-87250952D01*
X128825714Y-87250952D02*
X128920952Y-87298571D01*
X128920952Y-87298571D02*
X128968571Y-87393809D01*
X128968571Y-87393809D02*
X128968571Y-87489047D01*
X128968571Y-87489047D02*
X128492381Y-87584285D01*
X130159048Y-87917619D02*
X130159048Y-86917619D01*
X130159048Y-86917619D02*
X130492381Y-87631904D01*
X130492381Y-87631904D02*
X130825714Y-86917619D01*
X130825714Y-86917619D02*
X130825714Y-87917619D01*
X131444762Y-87917619D02*
X131349524Y-87870000D01*
X131349524Y-87870000D02*
X131301905Y-87822380D01*
X131301905Y-87822380D02*
X131254286Y-87727142D01*
X131254286Y-87727142D02*
X131254286Y-87441428D01*
X131254286Y-87441428D02*
X131301905Y-87346190D01*
X131301905Y-87346190D02*
X131349524Y-87298571D01*
X131349524Y-87298571D02*
X131444762Y-87250952D01*
X131444762Y-87250952D02*
X131587619Y-87250952D01*
X131587619Y-87250952D02*
X131682857Y-87298571D01*
X131682857Y-87298571D02*
X131730476Y-87346190D01*
X131730476Y-87346190D02*
X131778095Y-87441428D01*
X131778095Y-87441428D02*
X131778095Y-87727142D01*
X131778095Y-87727142D02*
X131730476Y-87822380D01*
X131730476Y-87822380D02*
X131682857Y-87870000D01*
X131682857Y-87870000D02*
X131587619Y-87917619D01*
X131587619Y-87917619D02*
X131444762Y-87917619D01*
X132206667Y-87250952D02*
X132206667Y-87917619D01*
X132206667Y-87346190D02*
X132254286Y-87298571D01*
X132254286Y-87298571D02*
X132349524Y-87250952D01*
X132349524Y-87250952D02*
X132492381Y-87250952D01*
X132492381Y-87250952D02*
X132587619Y-87298571D01*
X132587619Y-87298571D02*
X132635238Y-87393809D01*
X132635238Y-87393809D02*
X132635238Y-87917619D01*
X133111429Y-87917619D02*
X133111429Y-87250952D01*
X133111429Y-86917619D02*
X133063810Y-86965238D01*
X133063810Y-86965238D02*
X133111429Y-87012857D01*
X133111429Y-87012857D02*
X133159048Y-86965238D01*
X133159048Y-86965238D02*
X133111429Y-86917619D01*
X133111429Y-86917619D02*
X133111429Y-87012857D01*
X133444762Y-87250952D02*
X133825714Y-87250952D01*
X133587619Y-86917619D02*
X133587619Y-87774761D01*
X133587619Y-87774761D02*
X133635238Y-87870000D01*
X133635238Y-87870000D02*
X133730476Y-87917619D01*
X133730476Y-87917619D02*
X133825714Y-87917619D01*
X134301905Y-87917619D02*
X134206667Y-87870000D01*
X134206667Y-87870000D02*
X134159048Y-87822380D01*
X134159048Y-87822380D02*
X134111429Y-87727142D01*
X134111429Y-87727142D02*
X134111429Y-87441428D01*
X134111429Y-87441428D02*
X134159048Y-87346190D01*
X134159048Y-87346190D02*
X134206667Y-87298571D01*
X134206667Y-87298571D02*
X134301905Y-87250952D01*
X134301905Y-87250952D02*
X134444762Y-87250952D01*
X134444762Y-87250952D02*
X134540000Y-87298571D01*
X134540000Y-87298571D02*
X134587619Y-87346190D01*
X134587619Y-87346190D02*
X134635238Y-87441428D01*
X134635238Y-87441428D02*
X134635238Y-87727142D01*
X134635238Y-87727142D02*
X134587619Y-87822380D01*
X134587619Y-87822380D02*
X134540000Y-87870000D01*
X134540000Y-87870000D02*
X134444762Y-87917619D01*
X134444762Y-87917619D02*
X134301905Y-87917619D01*
X135063810Y-87917619D02*
X135063810Y-87250952D01*
X135063810Y-87441428D02*
X135111429Y-87346190D01*
X135111429Y-87346190D02*
X135159048Y-87298571D01*
X135159048Y-87298571D02*
X135254286Y-87250952D01*
X135254286Y-87250952D02*
X135349524Y-87250952D01*
X127778095Y-89918571D02*
X127730476Y-89870952D01*
X127730476Y-89870952D02*
X127635238Y-89728095D01*
X127635238Y-89728095D02*
X127587619Y-89632857D01*
X127587619Y-89632857D02*
X127540000Y-89490000D01*
X127540000Y-89490000D02*
X127492381Y-89251904D01*
X127492381Y-89251904D02*
X127492381Y-89061428D01*
X127492381Y-89061428D02*
X127540000Y-88823333D01*
X127540000Y-88823333D02*
X127587619Y-88680476D01*
X127587619Y-88680476D02*
X127635238Y-88585238D01*
X127635238Y-88585238D02*
X127730476Y-88442380D01*
X127730476Y-88442380D02*
X127778095Y-88394761D01*
X128111429Y-88632857D02*
X128159048Y-88585238D01*
X128159048Y-88585238D02*
X128254286Y-88537619D01*
X128254286Y-88537619D02*
X128492381Y-88537619D01*
X128492381Y-88537619D02*
X128587619Y-88585238D01*
X128587619Y-88585238D02*
X128635238Y-88632857D01*
X128635238Y-88632857D02*
X128682857Y-88728095D01*
X128682857Y-88728095D02*
X128682857Y-88823333D01*
X128682857Y-88823333D02*
X128635238Y-88966190D01*
X128635238Y-88966190D02*
X128063810Y-89537619D01*
X128063810Y-89537619D02*
X128682857Y-89537619D01*
X129111429Y-89442380D02*
X129159048Y-89490000D01*
X129159048Y-89490000D02*
X129111429Y-89537619D01*
X129111429Y-89537619D02*
X129063810Y-89490000D01*
X129063810Y-89490000D02*
X129111429Y-89442380D01*
X129111429Y-89442380D02*
X129111429Y-89537619D01*
X130016190Y-88870952D02*
X130016190Y-89537619D01*
X129778095Y-88490000D02*
X129540000Y-89204285D01*
X129540000Y-89204285D02*
X130159047Y-89204285D01*
X130397143Y-88537619D02*
X130730476Y-89537619D01*
X130730476Y-89537619D02*
X131063809Y-88537619D01*
X131301905Y-89918571D02*
X131349524Y-89870952D01*
X131349524Y-89870952D02*
X131444762Y-89728095D01*
X131444762Y-89728095D02*
X131492381Y-89632857D01*
X131492381Y-89632857D02*
X131540000Y-89490000D01*
X131540000Y-89490000D02*
X131587619Y-89251904D01*
X131587619Y-89251904D02*
X131587619Y-89061428D01*
X131587619Y-89061428D02*
X131540000Y-88823333D01*
X131540000Y-88823333D02*
X131492381Y-88680476D01*
X131492381Y-88680476D02*
X131444762Y-88585238D01*
X131444762Y-88585238D02*
X131349524Y-88442380D01*
X131349524Y-88442380D02*
X131301905Y-88394761D01*
D11*
X184070952Y-120210000D02*
X184356666Y-120305238D01*
X184356666Y-120305238D02*
X184832857Y-120305238D01*
X184832857Y-120305238D02*
X185023333Y-120210000D01*
X185023333Y-120210000D02*
X185118571Y-120114761D01*
X185118571Y-120114761D02*
X185213809Y-119924285D01*
X185213809Y-119924285D02*
X185213809Y-119733809D01*
X185213809Y-119733809D02*
X185118571Y-119543333D01*
X185118571Y-119543333D02*
X185023333Y-119448095D01*
X185023333Y-119448095D02*
X184832857Y-119352857D01*
X184832857Y-119352857D02*
X184451904Y-119257619D01*
X184451904Y-119257619D02*
X184261428Y-119162380D01*
X184261428Y-119162380D02*
X184166190Y-119067142D01*
X184166190Y-119067142D02*
X184070952Y-118876666D01*
X184070952Y-118876666D02*
X184070952Y-118686190D01*
X184070952Y-118686190D02*
X184166190Y-118495714D01*
X184166190Y-118495714D02*
X184261428Y-118400476D01*
X184261428Y-118400476D02*
X184451904Y-118305238D01*
X184451904Y-118305238D02*
X184928095Y-118305238D01*
X184928095Y-118305238D02*
X185213809Y-118400476D01*
X186070952Y-120305238D02*
X186070952Y-118305238D01*
X186070952Y-119257619D02*
X187213809Y-119257619D01*
X187213809Y-120305238D02*
X187213809Y-118305238D01*
X188166190Y-120305238D02*
X188166190Y-118305238D01*
X188166190Y-118305238D02*
X188642380Y-118305238D01*
X188642380Y-118305238D02*
X188928095Y-118400476D01*
X188928095Y-118400476D02*
X189118571Y-118590952D01*
X189118571Y-118590952D02*
X189213809Y-118781428D01*
X189213809Y-118781428D02*
X189309047Y-119162380D01*
X189309047Y-119162380D02*
X189309047Y-119448095D01*
X189309047Y-119448095D02*
X189213809Y-119829047D01*
X189213809Y-119829047D02*
X189118571Y-120019523D01*
X189118571Y-120019523D02*
X188928095Y-120210000D01*
X188928095Y-120210000D02*
X188642380Y-120305238D01*
X188642380Y-120305238D02*
X188166190Y-120305238D01*
X184689999Y-85920238D02*
X185070952Y-85920238D01*
X185070952Y-85920238D02*
X185261428Y-86015476D01*
X185261428Y-86015476D02*
X185451904Y-86205952D01*
X185451904Y-86205952D02*
X185547142Y-86586904D01*
X185547142Y-86586904D02*
X185547142Y-87253571D01*
X185547142Y-87253571D02*
X185451904Y-87634523D01*
X185451904Y-87634523D02*
X185261428Y-87825000D01*
X185261428Y-87825000D02*
X185070952Y-87920238D01*
X185070952Y-87920238D02*
X184689999Y-87920238D01*
X184689999Y-87920238D02*
X184499523Y-87825000D01*
X184499523Y-87825000D02*
X184309047Y-87634523D01*
X184309047Y-87634523D02*
X184213809Y-87253571D01*
X184213809Y-87253571D02*
X184213809Y-86586904D01*
X184213809Y-86586904D02*
X184309047Y-86205952D01*
X184309047Y-86205952D02*
X184499523Y-86015476D01*
X184499523Y-86015476D02*
X184689999Y-85920238D01*
X186404285Y-85920238D02*
X186404285Y-87539285D01*
X186404285Y-87539285D02*
X186499523Y-87729761D01*
X186499523Y-87729761D02*
X186594761Y-87825000D01*
X186594761Y-87825000D02*
X186785237Y-87920238D01*
X186785237Y-87920238D02*
X187166190Y-87920238D01*
X187166190Y-87920238D02*
X187356666Y-87825000D01*
X187356666Y-87825000D02*
X187451904Y-87729761D01*
X187451904Y-87729761D02*
X187547142Y-87539285D01*
X187547142Y-87539285D02*
X187547142Y-85920238D01*
X188213809Y-85920238D02*
X189356666Y-85920238D01*
X188785237Y-87920238D02*
X188785237Y-85920238D01*
X131317857Y-117430357D02*
X131175000Y-117358928D01*
X131175000Y-117358928D02*
X130960714Y-117358928D01*
X130960714Y-117358928D02*
X130746428Y-117430357D01*
X130746428Y-117430357D02*
X130603571Y-117573214D01*
X130603571Y-117573214D02*
X130532142Y-117716071D01*
X130532142Y-117716071D02*
X130460714Y-118001785D01*
X130460714Y-118001785D02*
X130460714Y-118216071D01*
X130460714Y-118216071D02*
X130532142Y-118501785D01*
X130532142Y-118501785D02*
X130603571Y-118644642D01*
X130603571Y-118644642D02*
X130746428Y-118787500D01*
X130746428Y-118787500D02*
X130960714Y-118858928D01*
X130960714Y-118858928D02*
X131103571Y-118858928D01*
X131103571Y-118858928D02*
X131317857Y-118787500D01*
X131317857Y-118787500D02*
X131389285Y-118716071D01*
X131389285Y-118716071D02*
X131389285Y-118216071D01*
X131389285Y-118216071D02*
X131103571Y-118216071D01*
X132675000Y-118858928D02*
X132675000Y-118073214D01*
X132675000Y-118073214D02*
X132603571Y-117930357D01*
X132603571Y-117930357D02*
X132460714Y-117858928D01*
X132460714Y-117858928D02*
X132175000Y-117858928D01*
X132175000Y-117858928D02*
X132032142Y-117930357D01*
X132675000Y-118787500D02*
X132532142Y-118858928D01*
X132532142Y-118858928D02*
X132175000Y-118858928D01*
X132175000Y-118858928D02*
X132032142Y-118787500D01*
X132032142Y-118787500D02*
X131960714Y-118644642D01*
X131960714Y-118644642D02*
X131960714Y-118501785D01*
X131960714Y-118501785D02*
X132032142Y-118358928D01*
X132032142Y-118358928D02*
X132175000Y-118287500D01*
X132175000Y-118287500D02*
X132532142Y-118287500D01*
X132532142Y-118287500D02*
X132675000Y-118216071D01*
X133389285Y-118858928D02*
X133389285Y-117358928D01*
X133389285Y-117930357D02*
X133532143Y-117858928D01*
X133532143Y-117858928D02*
X133817857Y-117858928D01*
X133817857Y-117858928D02*
X133960714Y-117930357D01*
X133960714Y-117930357D02*
X134032143Y-118001785D01*
X134032143Y-118001785D02*
X134103571Y-118144642D01*
X134103571Y-118144642D02*
X134103571Y-118573214D01*
X134103571Y-118573214D02*
X134032143Y-118716071D01*
X134032143Y-118716071D02*
X133960714Y-118787500D01*
X133960714Y-118787500D02*
X133817857Y-118858928D01*
X133817857Y-118858928D02*
X133532143Y-118858928D01*
X133532143Y-118858928D02*
X133389285Y-118787500D01*
X134746428Y-118858928D02*
X134746428Y-117858928D01*
X134746428Y-118144642D02*
X134817857Y-118001785D01*
X134817857Y-118001785D02*
X134889286Y-117930357D01*
X134889286Y-117930357D02*
X135032143Y-117858928D01*
X135032143Y-117858928D02*
X135175000Y-117858928D01*
X135674999Y-118858928D02*
X135674999Y-117858928D01*
X135674999Y-117358928D02*
X135603571Y-117430357D01*
X135603571Y-117430357D02*
X135674999Y-117501785D01*
X135674999Y-117501785D02*
X135746428Y-117430357D01*
X135746428Y-117430357D02*
X135674999Y-117358928D01*
X135674999Y-117358928D02*
X135674999Y-117501785D01*
X136960714Y-118787500D02*
X136817857Y-118858928D01*
X136817857Y-118858928D02*
X136532143Y-118858928D01*
X136532143Y-118858928D02*
X136389285Y-118787500D01*
X136389285Y-118787500D02*
X136317857Y-118644642D01*
X136317857Y-118644642D02*
X136317857Y-118073214D01*
X136317857Y-118073214D02*
X136389285Y-117930357D01*
X136389285Y-117930357D02*
X136532143Y-117858928D01*
X136532143Y-117858928D02*
X136817857Y-117858928D01*
X136817857Y-117858928D02*
X136960714Y-117930357D01*
X136960714Y-117930357D02*
X137032143Y-118073214D01*
X137032143Y-118073214D02*
X137032143Y-118216071D01*
X137032143Y-118216071D02*
X136317857Y-118358928D01*
X137889285Y-118858928D02*
X137746428Y-118787500D01*
X137746428Y-118787500D02*
X137674999Y-118644642D01*
X137674999Y-118644642D02*
X137674999Y-117358928D01*
X139603570Y-118858928D02*
X139603570Y-117358928D01*
X139603570Y-117358928D02*
X140103570Y-118430357D01*
X140103570Y-118430357D02*
X140603570Y-117358928D01*
X140603570Y-117358928D02*
X140603570Y-118858928D01*
X141960714Y-118858928D02*
X141960714Y-118073214D01*
X141960714Y-118073214D02*
X141889285Y-117930357D01*
X141889285Y-117930357D02*
X141746428Y-117858928D01*
X141746428Y-117858928D02*
X141460714Y-117858928D01*
X141460714Y-117858928D02*
X141317856Y-117930357D01*
X141960714Y-118787500D02*
X141817856Y-118858928D01*
X141817856Y-118858928D02*
X141460714Y-118858928D01*
X141460714Y-118858928D02*
X141317856Y-118787500D01*
X141317856Y-118787500D02*
X141246428Y-118644642D01*
X141246428Y-118644642D02*
X141246428Y-118501785D01*
X141246428Y-118501785D02*
X141317856Y-118358928D01*
X141317856Y-118358928D02*
X141460714Y-118287500D01*
X141460714Y-118287500D02*
X141817856Y-118287500D01*
X141817856Y-118287500D02*
X141960714Y-118216071D01*
X142674999Y-118858928D02*
X142674999Y-117858928D01*
X142674999Y-118144642D02*
X142746428Y-118001785D01*
X142746428Y-118001785D02*
X142817857Y-117930357D01*
X142817857Y-117930357D02*
X142960714Y-117858928D01*
X142960714Y-117858928D02*
X143103571Y-117858928D01*
X144246428Y-118787500D02*
X144103570Y-118858928D01*
X144103570Y-118858928D02*
X143817856Y-118858928D01*
X143817856Y-118858928D02*
X143674999Y-118787500D01*
X143674999Y-118787500D02*
X143603570Y-118716071D01*
X143603570Y-118716071D02*
X143532142Y-118573214D01*
X143532142Y-118573214D02*
X143532142Y-118144642D01*
X143532142Y-118144642D02*
X143603570Y-118001785D01*
X143603570Y-118001785D02*
X143674999Y-117930357D01*
X143674999Y-117930357D02*
X143817856Y-117858928D01*
X143817856Y-117858928D02*
X144103570Y-117858928D01*
X144103570Y-117858928D02*
X144246428Y-117930357D01*
X145532142Y-118858928D02*
X145532142Y-118073214D01*
X145532142Y-118073214D02*
X145460713Y-117930357D01*
X145460713Y-117930357D02*
X145317856Y-117858928D01*
X145317856Y-117858928D02*
X145032142Y-117858928D01*
X145032142Y-117858928D02*
X144889284Y-117930357D01*
X145532142Y-118787500D02*
X145389284Y-118858928D01*
X145389284Y-118858928D02*
X145032142Y-118858928D01*
X145032142Y-118858928D02*
X144889284Y-118787500D01*
X144889284Y-118787500D02*
X144817856Y-118644642D01*
X144817856Y-118644642D02*
X144817856Y-118501785D01*
X144817856Y-118501785D02*
X144889284Y-118358928D01*
X144889284Y-118358928D02*
X145032142Y-118287500D01*
X145032142Y-118287500D02*
X145389284Y-118287500D01*
X145389284Y-118287500D02*
X145532142Y-118216071D01*
X146246427Y-117858928D02*
X146246427Y-118858928D01*
X146246427Y-118001785D02*
X146317856Y-117930357D01*
X146317856Y-117930357D02*
X146460713Y-117858928D01*
X146460713Y-117858928D02*
X146674999Y-117858928D01*
X146674999Y-117858928D02*
X146817856Y-117930357D01*
X146817856Y-117930357D02*
X146889285Y-118073214D01*
X146889285Y-118073214D02*
X146889285Y-118858928D01*
X147817856Y-118858928D02*
X147674999Y-118787500D01*
X147674999Y-118787500D02*
X147603570Y-118716071D01*
X147603570Y-118716071D02*
X147532142Y-118573214D01*
X147532142Y-118573214D02*
X147532142Y-118144642D01*
X147532142Y-118144642D02*
X147603570Y-118001785D01*
X147603570Y-118001785D02*
X147674999Y-117930357D01*
X147674999Y-117930357D02*
X147817856Y-117858928D01*
X147817856Y-117858928D02*
X148032142Y-117858928D01*
X148032142Y-117858928D02*
X148174999Y-117930357D01*
X148174999Y-117930357D02*
X148246428Y-118001785D01*
X148246428Y-118001785D02*
X148317856Y-118144642D01*
X148317856Y-118144642D02*
X148317856Y-118573214D01*
X148317856Y-118573214D02*
X148246428Y-118716071D01*
X148246428Y-118716071D02*
X148174999Y-118787500D01*
X148174999Y-118787500D02*
X148032142Y-118858928D01*
X148032142Y-118858928D02*
X147817856Y-118858928D01*
X155032142Y-118858928D02*
X154532142Y-118144642D01*
X154174999Y-118858928D02*
X154174999Y-117358928D01*
X154174999Y-117358928D02*
X154746428Y-117358928D01*
X154746428Y-117358928D02*
X154889285Y-117430357D01*
X154889285Y-117430357D02*
X154960714Y-117501785D01*
X154960714Y-117501785D02*
X155032142Y-117644642D01*
X155032142Y-117644642D02*
X155032142Y-117858928D01*
X155032142Y-117858928D02*
X154960714Y-118001785D01*
X154960714Y-118001785D02*
X154889285Y-118073214D01*
X154889285Y-118073214D02*
X154746428Y-118144642D01*
X154746428Y-118144642D02*
X154174999Y-118144642D01*
X156246428Y-118787500D02*
X156103571Y-118858928D01*
X156103571Y-118858928D02*
X155817857Y-118858928D01*
X155817857Y-118858928D02*
X155674999Y-118787500D01*
X155674999Y-118787500D02*
X155603571Y-118644642D01*
X155603571Y-118644642D02*
X155603571Y-118073214D01*
X155603571Y-118073214D02*
X155674999Y-117930357D01*
X155674999Y-117930357D02*
X155817857Y-117858928D01*
X155817857Y-117858928D02*
X156103571Y-117858928D01*
X156103571Y-117858928D02*
X156246428Y-117930357D01*
X156246428Y-117930357D02*
X156317857Y-118073214D01*
X156317857Y-118073214D02*
X156317857Y-118216071D01*
X156317857Y-118216071D02*
X155603571Y-118358928D01*
X156817856Y-117858928D02*
X157174999Y-118858928D01*
X157174999Y-118858928D02*
X157532142Y-117858928D01*
X158103570Y-118858928D02*
X158103570Y-117858928D01*
X158103570Y-117358928D02*
X158032142Y-117430357D01*
X158032142Y-117430357D02*
X158103570Y-117501785D01*
X158103570Y-117501785D02*
X158174999Y-117430357D01*
X158174999Y-117430357D02*
X158103570Y-117358928D01*
X158103570Y-117358928D02*
X158103570Y-117501785D01*
X158746428Y-118787500D02*
X158889285Y-118858928D01*
X158889285Y-118858928D02*
X159174999Y-118858928D01*
X159174999Y-118858928D02*
X159317856Y-118787500D01*
X159317856Y-118787500D02*
X159389285Y-118644642D01*
X159389285Y-118644642D02*
X159389285Y-118573214D01*
X159389285Y-118573214D02*
X159317856Y-118430357D01*
X159317856Y-118430357D02*
X159174999Y-118358928D01*
X159174999Y-118358928D02*
X158960714Y-118358928D01*
X158960714Y-118358928D02*
X158817856Y-118287500D01*
X158817856Y-118287500D02*
X158746428Y-118144642D01*
X158746428Y-118144642D02*
X158746428Y-118073214D01*
X158746428Y-118073214D02*
X158817856Y-117930357D01*
X158817856Y-117930357D02*
X158960714Y-117858928D01*
X158960714Y-117858928D02*
X159174999Y-117858928D01*
X159174999Y-117858928D02*
X159317856Y-117930357D01*
X160032142Y-118858928D02*
X160032142Y-117858928D01*
X160032142Y-117358928D02*
X159960714Y-117430357D01*
X159960714Y-117430357D02*
X160032142Y-117501785D01*
X160032142Y-117501785D02*
X160103571Y-117430357D01*
X160103571Y-117430357D02*
X160032142Y-117358928D01*
X160032142Y-117358928D02*
X160032142Y-117501785D01*
X160960714Y-118858928D02*
X160817857Y-118787500D01*
X160817857Y-118787500D02*
X160746428Y-118716071D01*
X160746428Y-118716071D02*
X160675000Y-118573214D01*
X160675000Y-118573214D02*
X160675000Y-118144642D01*
X160675000Y-118144642D02*
X160746428Y-118001785D01*
X160746428Y-118001785D02*
X160817857Y-117930357D01*
X160817857Y-117930357D02*
X160960714Y-117858928D01*
X160960714Y-117858928D02*
X161175000Y-117858928D01*
X161175000Y-117858928D02*
X161317857Y-117930357D01*
X161317857Y-117930357D02*
X161389286Y-118001785D01*
X161389286Y-118001785D02*
X161460714Y-118144642D01*
X161460714Y-118144642D02*
X161460714Y-118573214D01*
X161460714Y-118573214D02*
X161389286Y-118716071D01*
X161389286Y-118716071D02*
X161317857Y-118787500D01*
X161317857Y-118787500D02*
X161175000Y-118858928D01*
X161175000Y-118858928D02*
X160960714Y-118858928D01*
X162103571Y-117858928D02*
X162103571Y-118858928D01*
X162103571Y-118001785D02*
X162175000Y-117930357D01*
X162175000Y-117930357D02*
X162317857Y-117858928D01*
X162317857Y-117858928D02*
X162532143Y-117858928D01*
X162532143Y-117858928D02*
X162675000Y-117930357D01*
X162675000Y-117930357D02*
X162746429Y-118073214D01*
X162746429Y-118073214D02*
X162746429Y-118858928D01*
X163460714Y-118716071D02*
X163532143Y-118787500D01*
X163532143Y-118787500D02*
X163460714Y-118858928D01*
X163460714Y-118858928D02*
X163389286Y-118787500D01*
X163389286Y-118787500D02*
X163460714Y-118716071D01*
X163460714Y-118716071D02*
X163460714Y-118858928D01*
X163460714Y-117930357D02*
X163532143Y-118001785D01*
X163532143Y-118001785D02*
X163460714Y-118073214D01*
X163460714Y-118073214D02*
X163389286Y-118001785D01*
X163389286Y-118001785D02*
X163460714Y-117930357D01*
X163460714Y-117930357D02*
X163460714Y-118073214D01*
X165246429Y-118430357D02*
X165960715Y-118430357D01*
X165103572Y-118858928D02*
X165603572Y-117358928D01*
X165603572Y-117358928D02*
X166103572Y-118858928D01*
X130532142Y-119788928D02*
X130532142Y-121003214D01*
X130532142Y-121003214D02*
X130603571Y-121146071D01*
X130603571Y-121146071D02*
X130675000Y-121217500D01*
X130675000Y-121217500D02*
X130817857Y-121288928D01*
X130817857Y-121288928D02*
X131103571Y-121288928D01*
X131103571Y-121288928D02*
X131246428Y-121217500D01*
X131246428Y-121217500D02*
X131317857Y-121146071D01*
X131317857Y-121146071D02*
X131389285Y-121003214D01*
X131389285Y-121003214D02*
X131389285Y-119788928D01*
X132960714Y-121146071D02*
X132889286Y-121217500D01*
X132889286Y-121217500D02*
X132675000Y-121288928D01*
X132675000Y-121288928D02*
X132532143Y-121288928D01*
X132532143Y-121288928D02*
X132317857Y-121217500D01*
X132317857Y-121217500D02*
X132175000Y-121074642D01*
X132175000Y-121074642D02*
X132103571Y-120931785D01*
X132103571Y-120931785D02*
X132032143Y-120646071D01*
X132032143Y-120646071D02*
X132032143Y-120431785D01*
X132032143Y-120431785D02*
X132103571Y-120146071D01*
X132103571Y-120146071D02*
X132175000Y-120003214D01*
X132175000Y-120003214D02*
X132317857Y-119860357D01*
X132317857Y-119860357D02*
X132532143Y-119788928D01*
X132532143Y-119788928D02*
X132675000Y-119788928D01*
X132675000Y-119788928D02*
X132889286Y-119860357D01*
X132889286Y-119860357D02*
X132960714Y-119931785D01*
X134675000Y-121217500D02*
X134889286Y-121288928D01*
X134889286Y-121288928D02*
X135246428Y-121288928D01*
X135246428Y-121288928D02*
X135389286Y-121217500D01*
X135389286Y-121217500D02*
X135460714Y-121146071D01*
X135460714Y-121146071D02*
X135532143Y-121003214D01*
X135532143Y-121003214D02*
X135532143Y-120860357D01*
X135532143Y-120860357D02*
X135460714Y-120717500D01*
X135460714Y-120717500D02*
X135389286Y-120646071D01*
X135389286Y-120646071D02*
X135246428Y-120574642D01*
X135246428Y-120574642D02*
X134960714Y-120503214D01*
X134960714Y-120503214D02*
X134817857Y-120431785D01*
X134817857Y-120431785D02*
X134746428Y-120360357D01*
X134746428Y-120360357D02*
X134675000Y-120217500D01*
X134675000Y-120217500D02*
X134675000Y-120074642D01*
X134675000Y-120074642D02*
X134746428Y-119931785D01*
X134746428Y-119931785D02*
X134817857Y-119860357D01*
X134817857Y-119860357D02*
X134960714Y-119788928D01*
X134960714Y-119788928D02*
X135317857Y-119788928D01*
X135317857Y-119788928D02*
X135532143Y-119860357D01*
X136817857Y-121288928D02*
X136817857Y-120503214D01*
X136817857Y-120503214D02*
X136746428Y-120360357D01*
X136746428Y-120360357D02*
X136603571Y-120288928D01*
X136603571Y-120288928D02*
X136317857Y-120288928D01*
X136317857Y-120288928D02*
X136174999Y-120360357D01*
X136817857Y-121217500D02*
X136674999Y-121288928D01*
X136674999Y-121288928D02*
X136317857Y-121288928D01*
X136317857Y-121288928D02*
X136174999Y-121217500D01*
X136174999Y-121217500D02*
X136103571Y-121074642D01*
X136103571Y-121074642D02*
X136103571Y-120931785D01*
X136103571Y-120931785D02*
X136174999Y-120788928D01*
X136174999Y-120788928D02*
X136317857Y-120717500D01*
X136317857Y-120717500D02*
X136674999Y-120717500D01*
X136674999Y-120717500D02*
X136817857Y-120646071D01*
X137532142Y-120288928D02*
X137532142Y-121288928D01*
X137532142Y-120431785D02*
X137603571Y-120360357D01*
X137603571Y-120360357D02*
X137746428Y-120288928D01*
X137746428Y-120288928D02*
X137960714Y-120288928D01*
X137960714Y-120288928D02*
X138103571Y-120360357D01*
X138103571Y-120360357D02*
X138175000Y-120503214D01*
X138175000Y-120503214D02*
X138175000Y-121288928D01*
X140032142Y-121288928D02*
X140032142Y-119788928D01*
X140032142Y-119788928D02*
X140389285Y-119788928D01*
X140389285Y-119788928D02*
X140603571Y-119860357D01*
X140603571Y-119860357D02*
X140746428Y-120003214D01*
X140746428Y-120003214D02*
X140817857Y-120146071D01*
X140817857Y-120146071D02*
X140889285Y-120431785D01*
X140889285Y-120431785D02*
X140889285Y-120646071D01*
X140889285Y-120646071D02*
X140817857Y-120931785D01*
X140817857Y-120931785D02*
X140746428Y-121074642D01*
X140746428Y-121074642D02*
X140603571Y-121217500D01*
X140603571Y-121217500D02*
X140389285Y-121288928D01*
X140389285Y-121288928D02*
X140032142Y-121288928D01*
X141532142Y-121288928D02*
X141532142Y-120288928D01*
X141532142Y-119788928D02*
X141460714Y-119860357D01*
X141460714Y-119860357D02*
X141532142Y-119931785D01*
X141532142Y-119931785D02*
X141603571Y-119860357D01*
X141603571Y-119860357D02*
X141532142Y-119788928D01*
X141532142Y-119788928D02*
X141532142Y-119931785D01*
X142817857Y-121217500D02*
X142675000Y-121288928D01*
X142675000Y-121288928D02*
X142389286Y-121288928D01*
X142389286Y-121288928D02*
X142246428Y-121217500D01*
X142246428Y-121217500D02*
X142175000Y-121074642D01*
X142175000Y-121074642D02*
X142175000Y-120503214D01*
X142175000Y-120503214D02*
X142246428Y-120360357D01*
X142246428Y-120360357D02*
X142389286Y-120288928D01*
X142389286Y-120288928D02*
X142675000Y-120288928D01*
X142675000Y-120288928D02*
X142817857Y-120360357D01*
X142817857Y-120360357D02*
X142889286Y-120503214D01*
X142889286Y-120503214D02*
X142889286Y-120646071D01*
X142889286Y-120646071D02*
X142175000Y-120788928D01*
X144175000Y-120288928D02*
X144175000Y-121503214D01*
X144175000Y-121503214D02*
X144103571Y-121646071D01*
X144103571Y-121646071D02*
X144032142Y-121717500D01*
X144032142Y-121717500D02*
X143889285Y-121788928D01*
X143889285Y-121788928D02*
X143675000Y-121788928D01*
X143675000Y-121788928D02*
X143532142Y-121717500D01*
X144175000Y-121217500D02*
X144032142Y-121288928D01*
X144032142Y-121288928D02*
X143746428Y-121288928D01*
X143746428Y-121288928D02*
X143603571Y-121217500D01*
X143603571Y-121217500D02*
X143532142Y-121146071D01*
X143532142Y-121146071D02*
X143460714Y-121003214D01*
X143460714Y-121003214D02*
X143460714Y-120574642D01*
X143460714Y-120574642D02*
X143532142Y-120431785D01*
X143532142Y-120431785D02*
X143603571Y-120360357D01*
X143603571Y-120360357D02*
X143746428Y-120288928D01*
X143746428Y-120288928D02*
X144032142Y-120288928D01*
X144032142Y-120288928D02*
X144175000Y-120360357D01*
X145103571Y-121288928D02*
X144960714Y-121217500D01*
X144960714Y-121217500D02*
X144889285Y-121146071D01*
X144889285Y-121146071D02*
X144817857Y-121003214D01*
X144817857Y-121003214D02*
X144817857Y-120574642D01*
X144817857Y-120574642D02*
X144889285Y-120431785D01*
X144889285Y-120431785D02*
X144960714Y-120360357D01*
X144960714Y-120360357D02*
X145103571Y-120288928D01*
X145103571Y-120288928D02*
X145317857Y-120288928D01*
X145317857Y-120288928D02*
X145460714Y-120360357D01*
X145460714Y-120360357D02*
X145532143Y-120431785D01*
X145532143Y-120431785D02*
X145603571Y-120574642D01*
X145603571Y-120574642D02*
X145603571Y-121003214D01*
X145603571Y-121003214D02*
X145532143Y-121146071D01*
X145532143Y-121146071D02*
X145460714Y-121217500D01*
X145460714Y-121217500D02*
X145317857Y-121288928D01*
X145317857Y-121288928D02*
X145103571Y-121288928D01*
X154174999Y-121288928D02*
X154174999Y-119788928D01*
X154174999Y-119788928D02*
X154532142Y-119788928D01*
X154532142Y-119788928D02*
X154746428Y-119860357D01*
X154746428Y-119860357D02*
X154889285Y-120003214D01*
X154889285Y-120003214D02*
X154960714Y-120146071D01*
X154960714Y-120146071D02*
X155032142Y-120431785D01*
X155032142Y-120431785D02*
X155032142Y-120646071D01*
X155032142Y-120646071D02*
X154960714Y-120931785D01*
X154960714Y-120931785D02*
X154889285Y-121074642D01*
X154889285Y-121074642D02*
X154746428Y-121217500D01*
X154746428Y-121217500D02*
X154532142Y-121288928D01*
X154532142Y-121288928D02*
X154174999Y-121288928D01*
X156317857Y-121288928D02*
X156317857Y-120503214D01*
X156317857Y-120503214D02*
X156246428Y-120360357D01*
X156246428Y-120360357D02*
X156103571Y-120288928D01*
X156103571Y-120288928D02*
X155817857Y-120288928D01*
X155817857Y-120288928D02*
X155674999Y-120360357D01*
X156317857Y-121217500D02*
X156174999Y-121288928D01*
X156174999Y-121288928D02*
X155817857Y-121288928D01*
X155817857Y-121288928D02*
X155674999Y-121217500D01*
X155674999Y-121217500D02*
X155603571Y-121074642D01*
X155603571Y-121074642D02*
X155603571Y-120931785D01*
X155603571Y-120931785D02*
X155674999Y-120788928D01*
X155674999Y-120788928D02*
X155817857Y-120717500D01*
X155817857Y-120717500D02*
X156174999Y-120717500D01*
X156174999Y-120717500D02*
X156317857Y-120646071D01*
X156817857Y-120288928D02*
X157389285Y-120288928D01*
X157032142Y-119788928D02*
X157032142Y-121074642D01*
X157032142Y-121074642D02*
X157103571Y-121217500D01*
X157103571Y-121217500D02*
X157246428Y-121288928D01*
X157246428Y-121288928D02*
X157389285Y-121288928D01*
X158460714Y-121217500D02*
X158317857Y-121288928D01*
X158317857Y-121288928D02*
X158032143Y-121288928D01*
X158032143Y-121288928D02*
X157889285Y-121217500D01*
X157889285Y-121217500D02*
X157817857Y-121074642D01*
X157817857Y-121074642D02*
X157817857Y-120503214D01*
X157817857Y-120503214D02*
X157889285Y-120360357D01*
X157889285Y-120360357D02*
X158032143Y-120288928D01*
X158032143Y-120288928D02*
X158317857Y-120288928D01*
X158317857Y-120288928D02*
X158460714Y-120360357D01*
X158460714Y-120360357D02*
X158532143Y-120503214D01*
X158532143Y-120503214D02*
X158532143Y-120646071D01*
X158532143Y-120646071D02*
X157817857Y-120788928D01*
X159174999Y-121146071D02*
X159246428Y-121217500D01*
X159246428Y-121217500D02*
X159174999Y-121288928D01*
X159174999Y-121288928D02*
X159103571Y-121217500D01*
X159103571Y-121217500D02*
X159174999Y-121146071D01*
X159174999Y-121146071D02*
X159174999Y-121288928D01*
X159174999Y-120360357D02*
X159246428Y-120431785D01*
X159246428Y-120431785D02*
X159174999Y-120503214D01*
X159174999Y-120503214D02*
X159103571Y-120431785D01*
X159103571Y-120431785D02*
X159174999Y-120360357D01*
X159174999Y-120360357D02*
X159174999Y-120503214D01*
X160960714Y-119931785D02*
X161032142Y-119860357D01*
X161032142Y-119860357D02*
X161175000Y-119788928D01*
X161175000Y-119788928D02*
X161532142Y-119788928D01*
X161532142Y-119788928D02*
X161675000Y-119860357D01*
X161675000Y-119860357D02*
X161746428Y-119931785D01*
X161746428Y-119931785D02*
X161817857Y-120074642D01*
X161817857Y-120074642D02*
X161817857Y-120217500D01*
X161817857Y-120217500D02*
X161746428Y-120431785D01*
X161746428Y-120431785D02*
X160889285Y-121288928D01*
X160889285Y-121288928D02*
X161817857Y-121288928D01*
X162746428Y-119788928D02*
X162889285Y-119788928D01*
X162889285Y-119788928D02*
X163032142Y-119860357D01*
X163032142Y-119860357D02*
X163103571Y-119931785D01*
X163103571Y-119931785D02*
X163174999Y-120074642D01*
X163174999Y-120074642D02*
X163246428Y-120360357D01*
X163246428Y-120360357D02*
X163246428Y-120717500D01*
X163246428Y-120717500D02*
X163174999Y-121003214D01*
X163174999Y-121003214D02*
X163103571Y-121146071D01*
X163103571Y-121146071D02*
X163032142Y-121217500D01*
X163032142Y-121217500D02*
X162889285Y-121288928D01*
X162889285Y-121288928D02*
X162746428Y-121288928D01*
X162746428Y-121288928D02*
X162603571Y-121217500D01*
X162603571Y-121217500D02*
X162532142Y-121146071D01*
X162532142Y-121146071D02*
X162460713Y-121003214D01*
X162460713Y-121003214D02*
X162389285Y-120717500D01*
X162389285Y-120717500D02*
X162389285Y-120360357D01*
X162389285Y-120360357D02*
X162460713Y-120074642D01*
X162460713Y-120074642D02*
X162532142Y-119931785D01*
X162532142Y-119931785D02*
X162603571Y-119860357D01*
X162603571Y-119860357D02*
X162746428Y-119788928D01*
X163817856Y-119931785D02*
X163889284Y-119860357D01*
X163889284Y-119860357D02*
X164032142Y-119788928D01*
X164032142Y-119788928D02*
X164389284Y-119788928D01*
X164389284Y-119788928D02*
X164532142Y-119860357D01*
X164532142Y-119860357D02*
X164603570Y-119931785D01*
X164603570Y-119931785D02*
X164674999Y-120074642D01*
X164674999Y-120074642D02*
X164674999Y-120217500D01*
X164674999Y-120217500D02*
X164603570Y-120431785D01*
X164603570Y-120431785D02*
X163746427Y-121288928D01*
X163746427Y-121288928D02*
X164674999Y-121288928D01*
X165174998Y-119788928D02*
X166103570Y-119788928D01*
X166103570Y-119788928D02*
X165603570Y-120360357D01*
X165603570Y-120360357D02*
X165817855Y-120360357D01*
X165817855Y-120360357D02*
X165960713Y-120431785D01*
X165960713Y-120431785D02*
X166032141Y-120503214D01*
X166032141Y-120503214D02*
X166103570Y-120646071D01*
X166103570Y-120646071D02*
X166103570Y-121003214D01*
X166103570Y-121003214D02*
X166032141Y-121146071D01*
X166032141Y-121146071D02*
X165960713Y-121217500D01*
X165960713Y-121217500D02*
X165817855Y-121288928D01*
X165817855Y-121288928D02*
X165389284Y-121288928D01*
X165389284Y-121288928D02*
X165246427Y-121217500D01*
X165246427Y-121217500D02*
X165174998Y-121146071D01*
X166746426Y-120717500D02*
X167889284Y-120717500D01*
X168889284Y-119788928D02*
X169032141Y-119788928D01*
X169032141Y-119788928D02*
X169174998Y-119860357D01*
X169174998Y-119860357D02*
X169246427Y-119931785D01*
X169246427Y-119931785D02*
X169317855Y-120074642D01*
X169317855Y-120074642D02*
X169389284Y-120360357D01*
X169389284Y-120360357D02*
X169389284Y-120717500D01*
X169389284Y-120717500D02*
X169317855Y-121003214D01*
X169317855Y-121003214D02*
X169246427Y-121146071D01*
X169246427Y-121146071D02*
X169174998Y-121217500D01*
X169174998Y-121217500D02*
X169032141Y-121288928D01*
X169032141Y-121288928D02*
X168889284Y-121288928D01*
X168889284Y-121288928D02*
X168746427Y-121217500D01*
X168746427Y-121217500D02*
X168674998Y-121146071D01*
X168674998Y-121146071D02*
X168603569Y-121003214D01*
X168603569Y-121003214D02*
X168532141Y-120717500D01*
X168532141Y-120717500D02*
X168532141Y-120360357D01*
X168532141Y-120360357D02*
X168603569Y-120074642D01*
X168603569Y-120074642D02*
X168674998Y-119931785D01*
X168674998Y-119931785D02*
X168746427Y-119860357D01*
X168746427Y-119860357D02*
X168889284Y-119788928D01*
X169960712Y-119931785D02*
X170032140Y-119860357D01*
X170032140Y-119860357D02*
X170174998Y-119788928D01*
X170174998Y-119788928D02*
X170532140Y-119788928D01*
X170532140Y-119788928D02*
X170674998Y-119860357D01*
X170674998Y-119860357D02*
X170746426Y-119931785D01*
X170746426Y-119931785D02*
X170817855Y-120074642D01*
X170817855Y-120074642D02*
X170817855Y-120217500D01*
X170817855Y-120217500D02*
X170746426Y-120431785D01*
X170746426Y-120431785D02*
X169889283Y-121288928D01*
X169889283Y-121288928D02*
X170817855Y-121288928D01*
X171460711Y-120717500D02*
X172603569Y-120717500D01*
X174103569Y-121288928D02*
X173246426Y-121288928D01*
X173674997Y-121288928D02*
X173674997Y-119788928D01*
X173674997Y-119788928D02*
X173532140Y-120003214D01*
X173532140Y-120003214D02*
X173389283Y-120146071D01*
X173389283Y-120146071D02*
X173246426Y-120217500D01*
X174603568Y-119788928D02*
X175532140Y-119788928D01*
X175532140Y-119788928D02*
X175032140Y-120360357D01*
X175032140Y-120360357D02*
X175246425Y-120360357D01*
X175246425Y-120360357D02*
X175389283Y-120431785D01*
X175389283Y-120431785D02*
X175460711Y-120503214D01*
X175460711Y-120503214D02*
X175532140Y-120646071D01*
X175532140Y-120646071D02*
X175532140Y-121003214D01*
X175532140Y-121003214D02*
X175460711Y-121146071D01*
X175460711Y-121146071D02*
X175389283Y-121217500D01*
X175389283Y-121217500D02*
X175246425Y-121288928D01*
X175246425Y-121288928D02*
X174817854Y-121288928D01*
X174817854Y-121288928D02*
X174674997Y-121217500D01*
X174674997Y-121217500D02*
X174603568Y-121146071D01*
D12*
X138510474Y-86917619D02*
X138700950Y-86917619D01*
X138700950Y-86917619D02*
X138796188Y-86965238D01*
X138796188Y-86965238D02*
X138891426Y-87060476D01*
X138891426Y-87060476D02*
X138939045Y-87250952D01*
X138939045Y-87250952D02*
X138939045Y-87584285D01*
X138939045Y-87584285D02*
X138891426Y-87774761D01*
X138891426Y-87774761D02*
X138796188Y-87870000D01*
X138796188Y-87870000D02*
X138700950Y-87917619D01*
X138700950Y-87917619D02*
X138510474Y-87917619D01*
X138510474Y-87917619D02*
X138415236Y-87870000D01*
X138415236Y-87870000D02*
X138319998Y-87774761D01*
X138319998Y-87774761D02*
X138272379Y-87584285D01*
X138272379Y-87584285D02*
X138272379Y-87250952D01*
X138272379Y-87250952D02*
X138319998Y-87060476D01*
X138319998Y-87060476D02*
X138415236Y-86965238D01*
X138415236Y-86965238D02*
X138510474Y-86917619D01*
X139272379Y-87250952D02*
X139510474Y-87917619D01*
X139510474Y-87917619D02*
X139748569Y-87250952D01*
X140510474Y-87870000D02*
X140415236Y-87917619D01*
X140415236Y-87917619D02*
X140224760Y-87917619D01*
X140224760Y-87917619D02*
X140129522Y-87870000D01*
X140129522Y-87870000D02*
X140081903Y-87774761D01*
X140081903Y-87774761D02*
X140081903Y-87393809D01*
X140081903Y-87393809D02*
X140129522Y-87298571D01*
X140129522Y-87298571D02*
X140224760Y-87250952D01*
X140224760Y-87250952D02*
X140415236Y-87250952D01*
X140415236Y-87250952D02*
X140510474Y-87298571D01*
X140510474Y-87298571D02*
X140558093Y-87393809D01*
X140558093Y-87393809D02*
X140558093Y-87489047D01*
X140558093Y-87489047D02*
X140081903Y-87584285D01*
X140986665Y-87917619D02*
X140986665Y-87250952D01*
X140986665Y-87441428D02*
X141034284Y-87346190D01*
X141034284Y-87346190D02*
X141081903Y-87298571D01*
X141081903Y-87298571D02*
X141177141Y-87250952D01*
X141177141Y-87250952D02*
X141272379Y-87250952D01*
X141605713Y-87536666D02*
X142367618Y-87536666D01*
X142700951Y-86917619D02*
X143034284Y-87917619D01*
X143034284Y-87917619D02*
X143367617Y-86917619D01*
X143843808Y-87917619D02*
X143748570Y-87870000D01*
X143748570Y-87870000D02*
X143700951Y-87822380D01*
X143700951Y-87822380D02*
X143653332Y-87727142D01*
X143653332Y-87727142D02*
X143653332Y-87441428D01*
X143653332Y-87441428D02*
X143700951Y-87346190D01*
X143700951Y-87346190D02*
X143748570Y-87298571D01*
X143748570Y-87298571D02*
X143843808Y-87250952D01*
X143843808Y-87250952D02*
X143986665Y-87250952D01*
X143986665Y-87250952D02*
X144081903Y-87298571D01*
X144081903Y-87298571D02*
X144129522Y-87346190D01*
X144129522Y-87346190D02*
X144177141Y-87441428D01*
X144177141Y-87441428D02*
X144177141Y-87727142D01*
X144177141Y-87727142D02*
X144129522Y-87822380D01*
X144129522Y-87822380D02*
X144081903Y-87870000D01*
X144081903Y-87870000D02*
X143986665Y-87917619D01*
X143986665Y-87917619D02*
X143843808Y-87917619D01*
X144748570Y-87917619D02*
X144653332Y-87870000D01*
X144653332Y-87870000D02*
X144605713Y-87774761D01*
X144605713Y-87774761D02*
X144605713Y-86917619D01*
X144986666Y-87250952D02*
X145367618Y-87250952D01*
X145129523Y-86917619D02*
X145129523Y-87774761D01*
X145129523Y-87774761D02*
X145177142Y-87870000D01*
X145177142Y-87870000D02*
X145272380Y-87917619D01*
X145272380Y-87917619D02*
X145367618Y-87917619D01*
X146129523Y-87917619D02*
X146129523Y-87393809D01*
X146129523Y-87393809D02*
X146081904Y-87298571D01*
X146081904Y-87298571D02*
X145986666Y-87250952D01*
X145986666Y-87250952D02*
X145796190Y-87250952D01*
X145796190Y-87250952D02*
X145700952Y-87298571D01*
X146129523Y-87870000D02*
X146034285Y-87917619D01*
X146034285Y-87917619D02*
X145796190Y-87917619D01*
X145796190Y-87917619D02*
X145700952Y-87870000D01*
X145700952Y-87870000D02*
X145653333Y-87774761D01*
X145653333Y-87774761D02*
X145653333Y-87679523D01*
X145653333Y-87679523D02*
X145700952Y-87584285D01*
X145700952Y-87584285D02*
X145796190Y-87536666D01*
X145796190Y-87536666D02*
X146034285Y-87536666D01*
X146034285Y-87536666D02*
X146129523Y-87489047D01*
X147034285Y-87250952D02*
X147034285Y-88060476D01*
X147034285Y-88060476D02*
X146986666Y-88155714D01*
X146986666Y-88155714D02*
X146939047Y-88203333D01*
X146939047Y-88203333D02*
X146843809Y-88250952D01*
X146843809Y-88250952D02*
X146700952Y-88250952D01*
X146700952Y-88250952D02*
X146605714Y-88203333D01*
X147034285Y-87870000D02*
X146939047Y-87917619D01*
X146939047Y-87917619D02*
X146748571Y-87917619D01*
X146748571Y-87917619D02*
X146653333Y-87870000D01*
X146653333Y-87870000D02*
X146605714Y-87822380D01*
X146605714Y-87822380D02*
X146558095Y-87727142D01*
X146558095Y-87727142D02*
X146558095Y-87441428D01*
X146558095Y-87441428D02*
X146605714Y-87346190D01*
X146605714Y-87346190D02*
X146653333Y-87298571D01*
X146653333Y-87298571D02*
X146748571Y-87250952D01*
X146748571Y-87250952D02*
X146939047Y-87250952D01*
X146939047Y-87250952D02*
X147034285Y-87298571D01*
X147891428Y-87870000D02*
X147796190Y-87917619D01*
X147796190Y-87917619D02*
X147605714Y-87917619D01*
X147605714Y-87917619D02*
X147510476Y-87870000D01*
X147510476Y-87870000D02*
X147462857Y-87774761D01*
X147462857Y-87774761D02*
X147462857Y-87393809D01*
X147462857Y-87393809D02*
X147510476Y-87298571D01*
X147510476Y-87298571D02*
X147605714Y-87250952D01*
X147605714Y-87250952D02*
X147796190Y-87250952D01*
X147796190Y-87250952D02*
X147891428Y-87298571D01*
X147891428Y-87298571D02*
X147939047Y-87393809D01*
X147939047Y-87393809D02*
X147939047Y-87489047D01*
X147939047Y-87489047D02*
X147462857Y-87584285D01*
X149129524Y-87917619D02*
X149129524Y-86917619D01*
X149129524Y-86917619D02*
X149510476Y-86917619D01*
X149510476Y-86917619D02*
X149605714Y-86965238D01*
X149605714Y-86965238D02*
X149653333Y-87012857D01*
X149653333Y-87012857D02*
X149700952Y-87108095D01*
X149700952Y-87108095D02*
X149700952Y-87250952D01*
X149700952Y-87250952D02*
X149653333Y-87346190D01*
X149653333Y-87346190D02*
X149605714Y-87393809D01*
X149605714Y-87393809D02*
X149510476Y-87441428D01*
X149510476Y-87441428D02*
X149129524Y-87441428D01*
X150129524Y-87917619D02*
X150129524Y-87250952D01*
X150129524Y-87441428D02*
X150177143Y-87346190D01*
X150177143Y-87346190D02*
X150224762Y-87298571D01*
X150224762Y-87298571D02*
X150320000Y-87250952D01*
X150320000Y-87250952D02*
X150415238Y-87250952D01*
X150891429Y-87917619D02*
X150796191Y-87870000D01*
X150796191Y-87870000D02*
X150748572Y-87822380D01*
X150748572Y-87822380D02*
X150700953Y-87727142D01*
X150700953Y-87727142D02*
X150700953Y-87441428D01*
X150700953Y-87441428D02*
X150748572Y-87346190D01*
X150748572Y-87346190D02*
X150796191Y-87298571D01*
X150796191Y-87298571D02*
X150891429Y-87250952D01*
X150891429Y-87250952D02*
X151034286Y-87250952D01*
X151034286Y-87250952D02*
X151129524Y-87298571D01*
X151129524Y-87298571D02*
X151177143Y-87346190D01*
X151177143Y-87346190D02*
X151224762Y-87441428D01*
X151224762Y-87441428D02*
X151224762Y-87727142D01*
X151224762Y-87727142D02*
X151177143Y-87822380D01*
X151177143Y-87822380D02*
X151129524Y-87870000D01*
X151129524Y-87870000D02*
X151034286Y-87917619D01*
X151034286Y-87917619D02*
X150891429Y-87917619D01*
X151510477Y-87250952D02*
X151891429Y-87250952D01*
X151653334Y-86917619D02*
X151653334Y-87774761D01*
X151653334Y-87774761D02*
X151700953Y-87870000D01*
X151700953Y-87870000D02*
X151796191Y-87917619D01*
X151796191Y-87917619D02*
X151891429Y-87917619D01*
X152605715Y-87870000D02*
X152510477Y-87917619D01*
X152510477Y-87917619D02*
X152320001Y-87917619D01*
X152320001Y-87917619D02*
X152224763Y-87870000D01*
X152224763Y-87870000D02*
X152177144Y-87774761D01*
X152177144Y-87774761D02*
X152177144Y-87393809D01*
X152177144Y-87393809D02*
X152224763Y-87298571D01*
X152224763Y-87298571D02*
X152320001Y-87250952D01*
X152320001Y-87250952D02*
X152510477Y-87250952D01*
X152510477Y-87250952D02*
X152605715Y-87298571D01*
X152605715Y-87298571D02*
X152653334Y-87393809D01*
X152653334Y-87393809D02*
X152653334Y-87489047D01*
X152653334Y-87489047D02*
X152177144Y-87584285D01*
X153510477Y-87870000D02*
X153415239Y-87917619D01*
X153415239Y-87917619D02*
X153224763Y-87917619D01*
X153224763Y-87917619D02*
X153129525Y-87870000D01*
X153129525Y-87870000D02*
X153081906Y-87822380D01*
X153081906Y-87822380D02*
X153034287Y-87727142D01*
X153034287Y-87727142D02*
X153034287Y-87441428D01*
X153034287Y-87441428D02*
X153081906Y-87346190D01*
X153081906Y-87346190D02*
X153129525Y-87298571D01*
X153129525Y-87298571D02*
X153224763Y-87250952D01*
X153224763Y-87250952D02*
X153415239Y-87250952D01*
X153415239Y-87250952D02*
X153510477Y-87298571D01*
X153796192Y-87250952D02*
X154177144Y-87250952D01*
X153939049Y-86917619D02*
X153939049Y-87774761D01*
X153939049Y-87774761D02*
X153986668Y-87870000D01*
X153986668Y-87870000D02*
X154081906Y-87917619D01*
X154081906Y-87917619D02*
X154177144Y-87917619D01*
X154510478Y-87917619D02*
X154510478Y-87250952D01*
X154510478Y-86917619D02*
X154462859Y-86965238D01*
X154462859Y-86965238D02*
X154510478Y-87012857D01*
X154510478Y-87012857D02*
X154558097Y-86965238D01*
X154558097Y-86965238D02*
X154510478Y-86917619D01*
X154510478Y-86917619D02*
X154510478Y-87012857D01*
X155129525Y-87917619D02*
X155034287Y-87870000D01*
X155034287Y-87870000D02*
X154986668Y-87822380D01*
X154986668Y-87822380D02*
X154939049Y-87727142D01*
X154939049Y-87727142D02*
X154939049Y-87441428D01*
X154939049Y-87441428D02*
X154986668Y-87346190D01*
X154986668Y-87346190D02*
X155034287Y-87298571D01*
X155034287Y-87298571D02*
X155129525Y-87250952D01*
X155129525Y-87250952D02*
X155272382Y-87250952D01*
X155272382Y-87250952D02*
X155367620Y-87298571D01*
X155367620Y-87298571D02*
X155415239Y-87346190D01*
X155415239Y-87346190D02*
X155462858Y-87441428D01*
X155462858Y-87441428D02*
X155462858Y-87727142D01*
X155462858Y-87727142D02*
X155415239Y-87822380D01*
X155415239Y-87822380D02*
X155367620Y-87870000D01*
X155367620Y-87870000D02*
X155272382Y-87917619D01*
X155272382Y-87917619D02*
X155129525Y-87917619D01*
X155891430Y-87250952D02*
X155891430Y-87917619D01*
X155891430Y-87346190D02*
X155939049Y-87298571D01*
X155939049Y-87298571D02*
X156034287Y-87250952D01*
X156034287Y-87250952D02*
X156177144Y-87250952D01*
X156177144Y-87250952D02*
X156272382Y-87298571D01*
X156272382Y-87298571D02*
X156320001Y-87393809D01*
X156320001Y-87393809D02*
X156320001Y-87917619D01*
X145558095Y-89918571D02*
X145510476Y-89870952D01*
X145510476Y-89870952D02*
X145415238Y-89728095D01*
X145415238Y-89728095D02*
X145367619Y-89632857D01*
X145367619Y-89632857D02*
X145320000Y-89490000D01*
X145320000Y-89490000D02*
X145272381Y-89251904D01*
X145272381Y-89251904D02*
X145272381Y-89061428D01*
X145272381Y-89061428D02*
X145320000Y-88823333D01*
X145320000Y-88823333D02*
X145367619Y-88680476D01*
X145367619Y-88680476D02*
X145415238Y-88585238D01*
X145415238Y-88585238D02*
X145510476Y-88442380D01*
X145510476Y-88442380D02*
X145558095Y-88394761D01*
X145843810Y-88537619D02*
X146462857Y-88537619D01*
X146462857Y-88537619D02*
X146129524Y-88918571D01*
X146129524Y-88918571D02*
X146272381Y-88918571D01*
X146272381Y-88918571D02*
X146367619Y-88966190D01*
X146367619Y-88966190D02*
X146415238Y-89013809D01*
X146415238Y-89013809D02*
X146462857Y-89109047D01*
X146462857Y-89109047D02*
X146462857Y-89347142D01*
X146462857Y-89347142D02*
X146415238Y-89442380D01*
X146415238Y-89442380D02*
X146367619Y-89490000D01*
X146367619Y-89490000D02*
X146272381Y-89537619D01*
X146272381Y-89537619D02*
X145986667Y-89537619D01*
X145986667Y-89537619D02*
X145891429Y-89490000D01*
X145891429Y-89490000D02*
X145843810Y-89442380D01*
X146891429Y-89442380D02*
X146939048Y-89490000D01*
X146939048Y-89490000D02*
X146891429Y-89537619D01*
X146891429Y-89537619D02*
X146843810Y-89490000D01*
X146843810Y-89490000D02*
X146891429Y-89442380D01*
X146891429Y-89442380D02*
X146891429Y-89537619D01*
X147843809Y-88537619D02*
X147367619Y-88537619D01*
X147367619Y-88537619D02*
X147320000Y-89013809D01*
X147320000Y-89013809D02*
X147367619Y-88966190D01*
X147367619Y-88966190D02*
X147462857Y-88918571D01*
X147462857Y-88918571D02*
X147700952Y-88918571D01*
X147700952Y-88918571D02*
X147796190Y-88966190D01*
X147796190Y-88966190D02*
X147843809Y-89013809D01*
X147843809Y-89013809D02*
X147891428Y-89109047D01*
X147891428Y-89109047D02*
X147891428Y-89347142D01*
X147891428Y-89347142D02*
X147843809Y-89442380D01*
X147843809Y-89442380D02*
X147796190Y-89490000D01*
X147796190Y-89490000D02*
X147700952Y-89537619D01*
X147700952Y-89537619D02*
X147462857Y-89537619D01*
X147462857Y-89537619D02*
X147367619Y-89490000D01*
X147367619Y-89490000D02*
X147320000Y-89442380D01*
X148177143Y-88537619D02*
X148510476Y-89537619D01*
X148510476Y-89537619D02*
X148843809Y-88537619D01*
X149081905Y-89918571D02*
X149129524Y-89870952D01*
X149129524Y-89870952D02*
X149224762Y-89728095D01*
X149224762Y-89728095D02*
X149272381Y-89632857D01*
X149272381Y-89632857D02*
X149320000Y-89490000D01*
X149320000Y-89490000D02*
X149367619Y-89251904D01*
X149367619Y-89251904D02*
X149367619Y-89061428D01*
X149367619Y-89061428D02*
X149320000Y-88823333D01*
X149320000Y-88823333D02*
X149272381Y-88680476D01*
X149272381Y-88680476D02*
X149224762Y-88585238D01*
X149224762Y-88585238D02*
X149129524Y-88442380D01*
X149129524Y-88442380D02*
X149081905Y-88394761D01*
X166434047Y-88092619D02*
X166434047Y-87092619D01*
X166434047Y-87092619D02*
X166814999Y-87092619D01*
X166814999Y-87092619D02*
X166910237Y-87140238D01*
X166910237Y-87140238D02*
X166957856Y-87187857D01*
X166957856Y-87187857D02*
X167005475Y-87283095D01*
X167005475Y-87283095D02*
X167005475Y-87425952D01*
X167005475Y-87425952D02*
X166957856Y-87521190D01*
X166957856Y-87521190D02*
X166910237Y-87568809D01*
X166910237Y-87568809D02*
X166814999Y-87616428D01*
X166814999Y-87616428D02*
X166434047Y-87616428D01*
X167576904Y-88092619D02*
X167481666Y-88045000D01*
X167481666Y-88045000D02*
X167434047Y-87997380D01*
X167434047Y-87997380D02*
X167386428Y-87902142D01*
X167386428Y-87902142D02*
X167386428Y-87616428D01*
X167386428Y-87616428D02*
X167434047Y-87521190D01*
X167434047Y-87521190D02*
X167481666Y-87473571D01*
X167481666Y-87473571D02*
X167576904Y-87425952D01*
X167576904Y-87425952D02*
X167719761Y-87425952D01*
X167719761Y-87425952D02*
X167814999Y-87473571D01*
X167814999Y-87473571D02*
X167862618Y-87521190D01*
X167862618Y-87521190D02*
X167910237Y-87616428D01*
X167910237Y-87616428D02*
X167910237Y-87902142D01*
X167910237Y-87902142D02*
X167862618Y-87997380D01*
X167862618Y-87997380D02*
X167814999Y-88045000D01*
X167814999Y-88045000D02*
X167719761Y-88092619D01*
X167719761Y-88092619D02*
X167576904Y-88092619D01*
X168243571Y-87425952D02*
X168434047Y-88092619D01*
X168434047Y-88092619D02*
X168624523Y-87616428D01*
X168624523Y-87616428D02*
X168814999Y-88092619D01*
X168814999Y-88092619D02*
X169005475Y-87425952D01*
X169767380Y-88045000D02*
X169672142Y-88092619D01*
X169672142Y-88092619D02*
X169481666Y-88092619D01*
X169481666Y-88092619D02*
X169386428Y-88045000D01*
X169386428Y-88045000D02*
X169338809Y-87949761D01*
X169338809Y-87949761D02*
X169338809Y-87568809D01*
X169338809Y-87568809D02*
X169386428Y-87473571D01*
X169386428Y-87473571D02*
X169481666Y-87425952D01*
X169481666Y-87425952D02*
X169672142Y-87425952D01*
X169672142Y-87425952D02*
X169767380Y-87473571D01*
X169767380Y-87473571D02*
X169814999Y-87568809D01*
X169814999Y-87568809D02*
X169814999Y-87664047D01*
X169814999Y-87664047D02*
X169338809Y-87759285D01*
X170243571Y-88092619D02*
X170243571Y-87425952D01*
X170243571Y-87616428D02*
X170291190Y-87521190D01*
X170291190Y-87521190D02*
X170338809Y-87473571D01*
X170338809Y-87473571D02*
X170434047Y-87425952D01*
X170434047Y-87425952D02*
X170529285Y-87425952D01*
X172100714Y-88092619D02*
X171624524Y-88092619D01*
X171624524Y-88092619D02*
X171624524Y-87092619D01*
X172862619Y-88092619D02*
X172862619Y-87568809D01*
X172862619Y-87568809D02*
X172815000Y-87473571D01*
X172815000Y-87473571D02*
X172719762Y-87425952D01*
X172719762Y-87425952D02*
X172529286Y-87425952D01*
X172529286Y-87425952D02*
X172434048Y-87473571D01*
X172862619Y-88045000D02*
X172767381Y-88092619D01*
X172767381Y-88092619D02*
X172529286Y-88092619D01*
X172529286Y-88092619D02*
X172434048Y-88045000D01*
X172434048Y-88045000D02*
X172386429Y-87949761D01*
X172386429Y-87949761D02*
X172386429Y-87854523D01*
X172386429Y-87854523D02*
X172434048Y-87759285D01*
X172434048Y-87759285D02*
X172529286Y-87711666D01*
X172529286Y-87711666D02*
X172767381Y-87711666D01*
X172767381Y-87711666D02*
X172862619Y-87664047D01*
X173195953Y-87425952D02*
X173576905Y-87425952D01*
X173338810Y-87092619D02*
X173338810Y-87949761D01*
X173338810Y-87949761D02*
X173386429Y-88045000D01*
X173386429Y-88045000D02*
X173481667Y-88092619D01*
X173481667Y-88092619D02*
X173576905Y-88092619D01*
X174338810Y-88045000D02*
X174243572Y-88092619D01*
X174243572Y-88092619D02*
X174053096Y-88092619D01*
X174053096Y-88092619D02*
X173957858Y-88045000D01*
X173957858Y-88045000D02*
X173910239Y-87997380D01*
X173910239Y-87997380D02*
X173862620Y-87902142D01*
X173862620Y-87902142D02*
X173862620Y-87616428D01*
X173862620Y-87616428D02*
X173910239Y-87521190D01*
X173910239Y-87521190D02*
X173957858Y-87473571D01*
X173957858Y-87473571D02*
X174053096Y-87425952D01*
X174053096Y-87425952D02*
X174243572Y-87425952D01*
X174243572Y-87425952D02*
X174338810Y-87473571D01*
X174767382Y-88092619D02*
X174767382Y-87092619D01*
X175195953Y-88092619D02*
X175195953Y-87568809D01*
X175195953Y-87568809D02*
X175148334Y-87473571D01*
X175148334Y-87473571D02*
X175053096Y-87425952D01*
X175053096Y-87425952D02*
X174910239Y-87425952D01*
X174910239Y-87425952D02*
X174815001Y-87473571D01*
X174815001Y-87473571D02*
X174767382Y-87521190D01*
D11*
X114173333Y-85920238D02*
X114839999Y-87920238D01*
X114839999Y-87920238D02*
X115506666Y-85920238D01*
X117316190Y-87729761D02*
X117220952Y-87825000D01*
X117220952Y-87825000D02*
X116935238Y-87920238D01*
X116935238Y-87920238D02*
X116744762Y-87920238D01*
X116744762Y-87920238D02*
X116459047Y-87825000D01*
X116459047Y-87825000D02*
X116268571Y-87634523D01*
X116268571Y-87634523D02*
X116173333Y-87444047D01*
X116173333Y-87444047D02*
X116078095Y-87063095D01*
X116078095Y-87063095D02*
X116078095Y-86777380D01*
X116078095Y-86777380D02*
X116173333Y-86396428D01*
X116173333Y-86396428D02*
X116268571Y-86205952D01*
X116268571Y-86205952D02*
X116459047Y-86015476D01*
X116459047Y-86015476D02*
X116744762Y-85920238D01*
X116744762Y-85920238D02*
X116935238Y-85920238D01*
X116935238Y-85920238D02*
X117220952Y-86015476D01*
X117220952Y-86015476D02*
X117316190Y-86110714D01*
X119316190Y-87729761D02*
X119220952Y-87825000D01*
X119220952Y-87825000D02*
X118935238Y-87920238D01*
X118935238Y-87920238D02*
X118744762Y-87920238D01*
X118744762Y-87920238D02*
X118459047Y-87825000D01*
X118459047Y-87825000D02*
X118268571Y-87634523D01*
X118268571Y-87634523D02*
X118173333Y-87444047D01*
X118173333Y-87444047D02*
X118078095Y-87063095D01*
X118078095Y-87063095D02*
X118078095Y-86777380D01*
X118078095Y-86777380D02*
X118173333Y-86396428D01*
X118173333Y-86396428D02*
X118268571Y-86205952D01*
X118268571Y-86205952D02*
X118459047Y-86015476D01*
X118459047Y-86015476D02*
X118744762Y-85920238D01*
X118744762Y-85920238D02*
X118935238Y-85920238D01*
X118935238Y-85920238D02*
X119220952Y-86015476D01*
X119220952Y-86015476D02*
X119316190Y-86110714D01*
D12*
%TO.C,Q2*%
X161829761Y-96442857D02*
X161734523Y-96395238D01*
X161734523Y-96395238D02*
X161639285Y-96300000D01*
X161639285Y-96300000D02*
X161496428Y-96157142D01*
X161496428Y-96157142D02*
X161401190Y-96109523D01*
X161401190Y-96109523D02*
X161305952Y-96109523D01*
X161353571Y-96347619D02*
X161258333Y-96300000D01*
X161258333Y-96300000D02*
X161163095Y-96204761D01*
X161163095Y-96204761D02*
X161115476Y-96014285D01*
X161115476Y-96014285D02*
X161115476Y-95680952D01*
X161115476Y-95680952D02*
X161163095Y-95490476D01*
X161163095Y-95490476D02*
X161258333Y-95395238D01*
X161258333Y-95395238D02*
X161353571Y-95347619D01*
X161353571Y-95347619D02*
X161544047Y-95347619D01*
X161544047Y-95347619D02*
X161639285Y-95395238D01*
X161639285Y-95395238D02*
X161734523Y-95490476D01*
X161734523Y-95490476D02*
X161782142Y-95680952D01*
X161782142Y-95680952D02*
X161782142Y-96014285D01*
X161782142Y-96014285D02*
X161734523Y-96204761D01*
X161734523Y-96204761D02*
X161639285Y-96300000D01*
X161639285Y-96300000D02*
X161544047Y-96347619D01*
X161544047Y-96347619D02*
X161353571Y-96347619D01*
X162163095Y-95442857D02*
X162210714Y-95395238D01*
X162210714Y-95395238D02*
X162305952Y-95347619D01*
X162305952Y-95347619D02*
X162544047Y-95347619D01*
X162544047Y-95347619D02*
X162639285Y-95395238D01*
X162639285Y-95395238D02*
X162686904Y-95442857D01*
X162686904Y-95442857D02*
X162734523Y-95538095D01*
X162734523Y-95538095D02*
X162734523Y-95633333D01*
X162734523Y-95633333D02*
X162686904Y-95776190D01*
X162686904Y-95776190D02*
X162115476Y-96347619D01*
X162115476Y-96347619D02*
X162734523Y-96347619D01*
%TO.C,U1*%
X129413095Y-95347619D02*
X129413095Y-96157142D01*
X129413095Y-96157142D02*
X129460714Y-96252380D01*
X129460714Y-96252380D02*
X129508333Y-96300000D01*
X129508333Y-96300000D02*
X129603571Y-96347619D01*
X129603571Y-96347619D02*
X129794047Y-96347619D01*
X129794047Y-96347619D02*
X129889285Y-96300000D01*
X129889285Y-96300000D02*
X129936904Y-96252380D01*
X129936904Y-96252380D02*
X129984523Y-96157142D01*
X129984523Y-96157142D02*
X129984523Y-95347619D01*
X130984523Y-96347619D02*
X130413095Y-96347619D01*
X130698809Y-96347619D02*
X130698809Y-95347619D01*
X130698809Y-95347619D02*
X130603571Y-95490476D01*
X130603571Y-95490476D02*
X130508333Y-95585714D01*
X130508333Y-95585714D02*
X130413095Y-95633333D01*
%TO.C,R5*%
X168743333Y-96347619D02*
X168410000Y-95871428D01*
X168171905Y-96347619D02*
X168171905Y-95347619D01*
X168171905Y-95347619D02*
X168552857Y-95347619D01*
X168552857Y-95347619D02*
X168648095Y-95395238D01*
X168648095Y-95395238D02*
X168695714Y-95442857D01*
X168695714Y-95442857D02*
X168743333Y-95538095D01*
X168743333Y-95538095D02*
X168743333Y-95680952D01*
X168743333Y-95680952D02*
X168695714Y-95776190D01*
X168695714Y-95776190D02*
X168648095Y-95823809D01*
X168648095Y-95823809D02*
X168552857Y-95871428D01*
X168552857Y-95871428D02*
X168171905Y-95871428D01*
X169648095Y-95347619D02*
X169171905Y-95347619D01*
X169171905Y-95347619D02*
X169124286Y-95823809D01*
X169124286Y-95823809D02*
X169171905Y-95776190D01*
X169171905Y-95776190D02*
X169267143Y-95728571D01*
X169267143Y-95728571D02*
X169505238Y-95728571D01*
X169505238Y-95728571D02*
X169600476Y-95776190D01*
X169600476Y-95776190D02*
X169648095Y-95823809D01*
X169648095Y-95823809D02*
X169695714Y-95919047D01*
X169695714Y-95919047D02*
X169695714Y-96157142D01*
X169695714Y-96157142D02*
X169648095Y-96252380D01*
X169648095Y-96252380D02*
X169600476Y-96300000D01*
X169600476Y-96300000D02*
X169505238Y-96347619D01*
X169505238Y-96347619D02*
X169267143Y-96347619D01*
X169267143Y-96347619D02*
X169171905Y-96300000D01*
X169171905Y-96300000D02*
X169124286Y-96252380D01*
%TO.C,Q1*%
X151669761Y-96367857D02*
X151574523Y-96320238D01*
X151574523Y-96320238D02*
X151479285Y-96225000D01*
X151479285Y-96225000D02*
X151336428Y-96082142D01*
X151336428Y-96082142D02*
X151241190Y-96034523D01*
X151241190Y-96034523D02*
X151145952Y-96034523D01*
X151193571Y-96272619D02*
X151098333Y-96225000D01*
X151098333Y-96225000D02*
X151003095Y-96129761D01*
X151003095Y-96129761D02*
X150955476Y-95939285D01*
X150955476Y-95939285D02*
X150955476Y-95605952D01*
X150955476Y-95605952D02*
X151003095Y-95415476D01*
X151003095Y-95415476D02*
X151098333Y-95320238D01*
X151098333Y-95320238D02*
X151193571Y-95272619D01*
X151193571Y-95272619D02*
X151384047Y-95272619D01*
X151384047Y-95272619D02*
X151479285Y-95320238D01*
X151479285Y-95320238D02*
X151574523Y-95415476D01*
X151574523Y-95415476D02*
X151622142Y-95605952D01*
X151622142Y-95605952D02*
X151622142Y-95939285D01*
X151622142Y-95939285D02*
X151574523Y-96129761D01*
X151574523Y-96129761D02*
X151479285Y-96225000D01*
X151479285Y-96225000D02*
X151384047Y-96272619D01*
X151384047Y-96272619D02*
X151193571Y-96272619D01*
X152574523Y-96272619D02*
X152003095Y-96272619D01*
X152288809Y-96272619D02*
X152288809Y-95272619D01*
X152288809Y-95272619D02*
X152193571Y-95415476D01*
X152193571Y-95415476D02*
X152098333Y-95510714D01*
X152098333Y-95510714D02*
X152003095Y-95558333D01*
%TO.C,R6*%
X177478333Y-103332619D02*
X177145000Y-102856428D01*
X176906905Y-103332619D02*
X176906905Y-102332619D01*
X176906905Y-102332619D02*
X177287857Y-102332619D01*
X177287857Y-102332619D02*
X177383095Y-102380238D01*
X177383095Y-102380238D02*
X177430714Y-102427857D01*
X177430714Y-102427857D02*
X177478333Y-102523095D01*
X177478333Y-102523095D02*
X177478333Y-102665952D01*
X177478333Y-102665952D02*
X177430714Y-102761190D01*
X177430714Y-102761190D02*
X177383095Y-102808809D01*
X177383095Y-102808809D02*
X177287857Y-102856428D01*
X177287857Y-102856428D02*
X176906905Y-102856428D01*
X178335476Y-102332619D02*
X178145000Y-102332619D01*
X178145000Y-102332619D02*
X178049762Y-102380238D01*
X178049762Y-102380238D02*
X178002143Y-102427857D01*
X178002143Y-102427857D02*
X177906905Y-102570714D01*
X177906905Y-102570714D02*
X177859286Y-102761190D01*
X177859286Y-102761190D02*
X177859286Y-103142142D01*
X177859286Y-103142142D02*
X177906905Y-103237380D01*
X177906905Y-103237380D02*
X177954524Y-103285000D01*
X177954524Y-103285000D02*
X178049762Y-103332619D01*
X178049762Y-103332619D02*
X178240238Y-103332619D01*
X178240238Y-103332619D02*
X178335476Y-103285000D01*
X178335476Y-103285000D02*
X178383095Y-103237380D01*
X178383095Y-103237380D02*
X178430714Y-103142142D01*
X178430714Y-103142142D02*
X178430714Y-102904047D01*
X178430714Y-102904047D02*
X178383095Y-102808809D01*
X178383095Y-102808809D02*
X178335476Y-102761190D01*
X178335476Y-102761190D02*
X178240238Y-102713571D01*
X178240238Y-102713571D02*
X178049762Y-102713571D01*
X178049762Y-102713571D02*
X177954524Y-102761190D01*
X177954524Y-102761190D02*
X177906905Y-102808809D01*
X177906905Y-102808809D02*
X177859286Y-102904047D01*
%TO.C,H4*%
X194818095Y-118182619D02*
X194818095Y-117182619D01*
X194818095Y-117658809D02*
X195389523Y-117658809D01*
X195389523Y-118182619D02*
X195389523Y-117182619D01*
X196294285Y-117515952D02*
X196294285Y-118182619D01*
X196056190Y-117135000D02*
X195818095Y-117849285D01*
X195818095Y-117849285D02*
X196437142Y-117849285D01*
%TO.C,J1*%
X116661666Y-88777619D02*
X116661666Y-89491904D01*
X116661666Y-89491904D02*
X116614047Y-89634761D01*
X116614047Y-89634761D02*
X116518809Y-89730000D01*
X116518809Y-89730000D02*
X116375952Y-89777619D01*
X116375952Y-89777619D02*
X116280714Y-89777619D01*
X117661666Y-89777619D02*
X117090238Y-89777619D01*
X117375952Y-89777619D02*
X117375952Y-88777619D01*
X117375952Y-88777619D02*
X117280714Y-88920476D01*
X117280714Y-88920476D02*
X117185476Y-89015714D01*
X117185476Y-89015714D02*
X117090238Y-89063333D01*
%TO.C,R1*%
X133818333Y-96347619D02*
X133485000Y-95871428D01*
X133246905Y-96347619D02*
X133246905Y-95347619D01*
X133246905Y-95347619D02*
X133627857Y-95347619D01*
X133627857Y-95347619D02*
X133723095Y-95395238D01*
X133723095Y-95395238D02*
X133770714Y-95442857D01*
X133770714Y-95442857D02*
X133818333Y-95538095D01*
X133818333Y-95538095D02*
X133818333Y-95680952D01*
X133818333Y-95680952D02*
X133770714Y-95776190D01*
X133770714Y-95776190D02*
X133723095Y-95823809D01*
X133723095Y-95823809D02*
X133627857Y-95871428D01*
X133627857Y-95871428D02*
X133246905Y-95871428D01*
X134770714Y-96347619D02*
X134199286Y-96347619D01*
X134485000Y-96347619D02*
X134485000Y-95347619D01*
X134485000Y-95347619D02*
X134389762Y-95490476D01*
X134389762Y-95490476D02*
X134294524Y-95585714D01*
X134294524Y-95585714D02*
X134199286Y-95633333D01*
%TO.C,C2*%
X142620833Y-102442380D02*
X142573214Y-102490000D01*
X142573214Y-102490000D02*
X142430357Y-102537619D01*
X142430357Y-102537619D02*
X142335119Y-102537619D01*
X142335119Y-102537619D02*
X142192262Y-102490000D01*
X142192262Y-102490000D02*
X142097024Y-102394761D01*
X142097024Y-102394761D02*
X142049405Y-102299523D01*
X142049405Y-102299523D02*
X142001786Y-102109047D01*
X142001786Y-102109047D02*
X142001786Y-101966190D01*
X142001786Y-101966190D02*
X142049405Y-101775714D01*
X142049405Y-101775714D02*
X142097024Y-101680476D01*
X142097024Y-101680476D02*
X142192262Y-101585238D01*
X142192262Y-101585238D02*
X142335119Y-101537619D01*
X142335119Y-101537619D02*
X142430357Y-101537619D01*
X142430357Y-101537619D02*
X142573214Y-101585238D01*
X142573214Y-101585238D02*
X142620833Y-101632857D01*
X143001786Y-101632857D02*
X143049405Y-101585238D01*
X143049405Y-101585238D02*
X143144643Y-101537619D01*
X143144643Y-101537619D02*
X143382738Y-101537619D01*
X143382738Y-101537619D02*
X143477976Y-101585238D01*
X143477976Y-101585238D02*
X143525595Y-101632857D01*
X143525595Y-101632857D02*
X143573214Y-101728095D01*
X143573214Y-101728095D02*
X143573214Y-101823333D01*
X143573214Y-101823333D02*
X143525595Y-101966190D01*
X143525595Y-101966190D02*
X142954167Y-102537619D01*
X142954167Y-102537619D02*
X143573214Y-102537619D01*
%TO.C,R2*%
X137628333Y-96347619D02*
X137295000Y-95871428D01*
X137056905Y-96347619D02*
X137056905Y-95347619D01*
X137056905Y-95347619D02*
X137437857Y-95347619D01*
X137437857Y-95347619D02*
X137533095Y-95395238D01*
X137533095Y-95395238D02*
X137580714Y-95442857D01*
X137580714Y-95442857D02*
X137628333Y-95538095D01*
X137628333Y-95538095D02*
X137628333Y-95680952D01*
X137628333Y-95680952D02*
X137580714Y-95776190D01*
X137580714Y-95776190D02*
X137533095Y-95823809D01*
X137533095Y-95823809D02*
X137437857Y-95871428D01*
X137437857Y-95871428D02*
X137056905Y-95871428D01*
X138009286Y-95442857D02*
X138056905Y-95395238D01*
X138056905Y-95395238D02*
X138152143Y-95347619D01*
X138152143Y-95347619D02*
X138390238Y-95347619D01*
X138390238Y-95347619D02*
X138485476Y-95395238D01*
X138485476Y-95395238D02*
X138533095Y-95442857D01*
X138533095Y-95442857D02*
X138580714Y-95538095D01*
X138580714Y-95538095D02*
X138580714Y-95633333D01*
X138580714Y-95633333D02*
X138533095Y-95776190D01*
X138533095Y-95776190D02*
X137961667Y-96347619D01*
X137961667Y-96347619D02*
X138580714Y-96347619D01*
%TO.C,C1*%
X126198333Y-96252380D02*
X126150714Y-96300000D01*
X126150714Y-96300000D02*
X126007857Y-96347619D01*
X126007857Y-96347619D02*
X125912619Y-96347619D01*
X125912619Y-96347619D02*
X125769762Y-96300000D01*
X125769762Y-96300000D02*
X125674524Y-96204761D01*
X125674524Y-96204761D02*
X125626905Y-96109523D01*
X125626905Y-96109523D02*
X125579286Y-95919047D01*
X125579286Y-95919047D02*
X125579286Y-95776190D01*
X125579286Y-95776190D02*
X125626905Y-95585714D01*
X125626905Y-95585714D02*
X125674524Y-95490476D01*
X125674524Y-95490476D02*
X125769762Y-95395238D01*
X125769762Y-95395238D02*
X125912619Y-95347619D01*
X125912619Y-95347619D02*
X126007857Y-95347619D01*
X126007857Y-95347619D02*
X126150714Y-95395238D01*
X126150714Y-95395238D02*
X126198333Y-95442857D01*
X127150714Y-96347619D02*
X126579286Y-96347619D01*
X126865000Y-96347619D02*
X126865000Y-95347619D01*
X126865000Y-95347619D02*
X126769762Y-95490476D01*
X126769762Y-95490476D02*
X126674524Y-95585714D01*
X126674524Y-95585714D02*
X126579286Y-95633333D01*
%TO.C,U2*%
X141163095Y-95347619D02*
X141163095Y-96157142D01*
X141163095Y-96157142D02*
X141210714Y-96252380D01*
X141210714Y-96252380D02*
X141258333Y-96300000D01*
X141258333Y-96300000D02*
X141353571Y-96347619D01*
X141353571Y-96347619D02*
X141544047Y-96347619D01*
X141544047Y-96347619D02*
X141639285Y-96300000D01*
X141639285Y-96300000D02*
X141686904Y-96252380D01*
X141686904Y-96252380D02*
X141734523Y-96157142D01*
X141734523Y-96157142D02*
X141734523Y-95347619D01*
X142163095Y-95442857D02*
X142210714Y-95395238D01*
X142210714Y-95395238D02*
X142305952Y-95347619D01*
X142305952Y-95347619D02*
X142544047Y-95347619D01*
X142544047Y-95347619D02*
X142639285Y-95395238D01*
X142639285Y-95395238D02*
X142686904Y-95442857D01*
X142686904Y-95442857D02*
X142734523Y-95538095D01*
X142734523Y-95538095D02*
X142734523Y-95633333D01*
X142734523Y-95633333D02*
X142686904Y-95776190D01*
X142686904Y-95776190D02*
X142115476Y-96347619D01*
X142115476Y-96347619D02*
X142734523Y-96347619D01*
%TO.C,R3*%
X145568333Y-96347619D02*
X145235000Y-95871428D01*
X144996905Y-96347619D02*
X144996905Y-95347619D01*
X144996905Y-95347619D02*
X145377857Y-95347619D01*
X145377857Y-95347619D02*
X145473095Y-95395238D01*
X145473095Y-95395238D02*
X145520714Y-95442857D01*
X145520714Y-95442857D02*
X145568333Y-95538095D01*
X145568333Y-95538095D02*
X145568333Y-95680952D01*
X145568333Y-95680952D02*
X145520714Y-95776190D01*
X145520714Y-95776190D02*
X145473095Y-95823809D01*
X145473095Y-95823809D02*
X145377857Y-95871428D01*
X145377857Y-95871428D02*
X144996905Y-95871428D01*
X145901667Y-95347619D02*
X146520714Y-95347619D01*
X146520714Y-95347619D02*
X146187381Y-95728571D01*
X146187381Y-95728571D02*
X146330238Y-95728571D01*
X146330238Y-95728571D02*
X146425476Y-95776190D01*
X146425476Y-95776190D02*
X146473095Y-95823809D01*
X146473095Y-95823809D02*
X146520714Y-95919047D01*
X146520714Y-95919047D02*
X146520714Y-96157142D01*
X146520714Y-96157142D02*
X146473095Y-96252380D01*
X146473095Y-96252380D02*
X146425476Y-96300000D01*
X146425476Y-96300000D02*
X146330238Y-96347619D01*
X146330238Y-96347619D02*
X146044524Y-96347619D01*
X146044524Y-96347619D02*
X145949286Y-96300000D01*
X145949286Y-96300000D02*
X145901667Y-96252380D01*
%TO.C,Q3*%
X174259761Y-96367857D02*
X174164523Y-96320238D01*
X174164523Y-96320238D02*
X174069285Y-96225000D01*
X174069285Y-96225000D02*
X173926428Y-96082142D01*
X173926428Y-96082142D02*
X173831190Y-96034523D01*
X173831190Y-96034523D02*
X173735952Y-96034523D01*
X173783571Y-96272619D02*
X173688333Y-96225000D01*
X173688333Y-96225000D02*
X173593095Y-96129761D01*
X173593095Y-96129761D02*
X173545476Y-95939285D01*
X173545476Y-95939285D02*
X173545476Y-95605952D01*
X173545476Y-95605952D02*
X173593095Y-95415476D01*
X173593095Y-95415476D02*
X173688333Y-95320238D01*
X173688333Y-95320238D02*
X173783571Y-95272619D01*
X173783571Y-95272619D02*
X173974047Y-95272619D01*
X173974047Y-95272619D02*
X174069285Y-95320238D01*
X174069285Y-95320238D02*
X174164523Y-95415476D01*
X174164523Y-95415476D02*
X174212142Y-95605952D01*
X174212142Y-95605952D02*
X174212142Y-95939285D01*
X174212142Y-95939285D02*
X174164523Y-96129761D01*
X174164523Y-96129761D02*
X174069285Y-96225000D01*
X174069285Y-96225000D02*
X173974047Y-96272619D01*
X173974047Y-96272619D02*
X173783571Y-96272619D01*
X174545476Y-95272619D02*
X175164523Y-95272619D01*
X175164523Y-95272619D02*
X174831190Y-95653571D01*
X174831190Y-95653571D02*
X174974047Y-95653571D01*
X174974047Y-95653571D02*
X175069285Y-95701190D01*
X175069285Y-95701190D02*
X175116904Y-95748809D01*
X175116904Y-95748809D02*
X175164523Y-95844047D01*
X175164523Y-95844047D02*
X175164523Y-96082142D01*
X175164523Y-96082142D02*
X175116904Y-96177380D01*
X175116904Y-96177380D02*
X175069285Y-96225000D01*
X175069285Y-96225000D02*
X174974047Y-96272619D01*
X174974047Y-96272619D02*
X174688333Y-96272619D01*
X174688333Y-96272619D02*
X174593095Y-96225000D01*
X174593095Y-96225000D02*
X174545476Y-96177380D01*
%TO.C,J3*%
X186356666Y-88777619D02*
X186356666Y-89491904D01*
X186356666Y-89491904D02*
X186309047Y-89634761D01*
X186309047Y-89634761D02*
X186213809Y-89730000D01*
X186213809Y-89730000D02*
X186070952Y-89777619D01*
X186070952Y-89777619D02*
X185975714Y-89777619D01*
X186737619Y-88777619D02*
X187356666Y-88777619D01*
X187356666Y-88777619D02*
X187023333Y-89158571D01*
X187023333Y-89158571D02*
X187166190Y-89158571D01*
X187166190Y-89158571D02*
X187261428Y-89206190D01*
X187261428Y-89206190D02*
X187309047Y-89253809D01*
X187309047Y-89253809D02*
X187356666Y-89349047D01*
X187356666Y-89349047D02*
X187356666Y-89587142D01*
X187356666Y-89587142D02*
X187309047Y-89682380D01*
X187309047Y-89682380D02*
X187261428Y-89730000D01*
X187261428Y-89730000D02*
X187166190Y-89777619D01*
X187166190Y-89777619D02*
X186880476Y-89777619D01*
X186880476Y-89777619D02*
X186785238Y-89730000D01*
X186785238Y-89730000D02*
X186737619Y-89682380D01*
%TO.C,R8*%
X170013333Y-103332619D02*
X169680000Y-102856428D01*
X169441905Y-103332619D02*
X169441905Y-102332619D01*
X169441905Y-102332619D02*
X169822857Y-102332619D01*
X169822857Y-102332619D02*
X169918095Y-102380238D01*
X169918095Y-102380238D02*
X169965714Y-102427857D01*
X169965714Y-102427857D02*
X170013333Y-102523095D01*
X170013333Y-102523095D02*
X170013333Y-102665952D01*
X170013333Y-102665952D02*
X169965714Y-102761190D01*
X169965714Y-102761190D02*
X169918095Y-102808809D01*
X169918095Y-102808809D02*
X169822857Y-102856428D01*
X169822857Y-102856428D02*
X169441905Y-102856428D01*
X170584762Y-102761190D02*
X170489524Y-102713571D01*
X170489524Y-102713571D02*
X170441905Y-102665952D01*
X170441905Y-102665952D02*
X170394286Y-102570714D01*
X170394286Y-102570714D02*
X170394286Y-102523095D01*
X170394286Y-102523095D02*
X170441905Y-102427857D01*
X170441905Y-102427857D02*
X170489524Y-102380238D01*
X170489524Y-102380238D02*
X170584762Y-102332619D01*
X170584762Y-102332619D02*
X170775238Y-102332619D01*
X170775238Y-102332619D02*
X170870476Y-102380238D01*
X170870476Y-102380238D02*
X170918095Y-102427857D01*
X170918095Y-102427857D02*
X170965714Y-102523095D01*
X170965714Y-102523095D02*
X170965714Y-102570714D01*
X170965714Y-102570714D02*
X170918095Y-102665952D01*
X170918095Y-102665952D02*
X170870476Y-102713571D01*
X170870476Y-102713571D02*
X170775238Y-102761190D01*
X170775238Y-102761190D02*
X170584762Y-102761190D01*
X170584762Y-102761190D02*
X170489524Y-102808809D01*
X170489524Y-102808809D02*
X170441905Y-102856428D01*
X170441905Y-102856428D02*
X170394286Y-102951666D01*
X170394286Y-102951666D02*
X170394286Y-103142142D01*
X170394286Y-103142142D02*
X170441905Y-103237380D01*
X170441905Y-103237380D02*
X170489524Y-103285000D01*
X170489524Y-103285000D02*
X170584762Y-103332619D01*
X170584762Y-103332619D02*
X170775238Y-103332619D01*
X170775238Y-103332619D02*
X170870476Y-103285000D01*
X170870476Y-103285000D02*
X170918095Y-103237380D01*
X170918095Y-103237380D02*
X170965714Y-103142142D01*
X170965714Y-103142142D02*
X170965714Y-102951666D01*
X170965714Y-102951666D02*
X170918095Y-102856428D01*
X170918095Y-102856428D02*
X170870476Y-102808809D01*
X170870476Y-102808809D02*
X170775238Y-102761190D01*
%TO.C,H2*%
X105918095Y-118182619D02*
X105918095Y-117182619D01*
X105918095Y-117658809D02*
X106489523Y-117658809D01*
X106489523Y-118182619D02*
X106489523Y-117182619D01*
X106918095Y-117277857D02*
X106965714Y-117230238D01*
X106965714Y-117230238D02*
X107060952Y-117182619D01*
X107060952Y-117182619D02*
X107299047Y-117182619D01*
X107299047Y-117182619D02*
X107394285Y-117230238D01*
X107394285Y-117230238D02*
X107441904Y-117277857D01*
X107441904Y-117277857D02*
X107489523Y-117373095D01*
X107489523Y-117373095D02*
X107489523Y-117468333D01*
X107489523Y-117468333D02*
X107441904Y-117611190D01*
X107441904Y-117611190D02*
X106870476Y-118182619D01*
X106870476Y-118182619D02*
X107489523Y-118182619D01*
%TO.C,R4*%
X157313333Y-96347619D02*
X156980000Y-95871428D01*
X156741905Y-96347619D02*
X156741905Y-95347619D01*
X156741905Y-95347619D02*
X157122857Y-95347619D01*
X157122857Y-95347619D02*
X157218095Y-95395238D01*
X157218095Y-95395238D02*
X157265714Y-95442857D01*
X157265714Y-95442857D02*
X157313333Y-95538095D01*
X157313333Y-95538095D02*
X157313333Y-95680952D01*
X157313333Y-95680952D02*
X157265714Y-95776190D01*
X157265714Y-95776190D02*
X157218095Y-95823809D01*
X157218095Y-95823809D02*
X157122857Y-95871428D01*
X157122857Y-95871428D02*
X156741905Y-95871428D01*
X158170476Y-95680952D02*
X158170476Y-96347619D01*
X157932381Y-95300000D02*
X157694286Y-96014285D01*
X157694286Y-96014285D02*
X158313333Y-96014285D01*
%TO.C,H3*%
X105918095Y-80082619D02*
X105918095Y-79082619D01*
X105918095Y-79558809D02*
X106489523Y-79558809D01*
X106489523Y-80082619D02*
X106489523Y-79082619D01*
X106870476Y-79082619D02*
X107489523Y-79082619D01*
X107489523Y-79082619D02*
X107156190Y-79463571D01*
X107156190Y-79463571D02*
X107299047Y-79463571D01*
X107299047Y-79463571D02*
X107394285Y-79511190D01*
X107394285Y-79511190D02*
X107441904Y-79558809D01*
X107441904Y-79558809D02*
X107489523Y-79654047D01*
X107489523Y-79654047D02*
X107489523Y-79892142D01*
X107489523Y-79892142D02*
X107441904Y-79987380D01*
X107441904Y-79987380D02*
X107394285Y-80035000D01*
X107394285Y-80035000D02*
X107299047Y-80082619D01*
X107299047Y-80082619D02*
X107013333Y-80082619D01*
X107013333Y-80082619D02*
X106918095Y-80035000D01*
X106918095Y-80035000D02*
X106870476Y-79987380D01*
%TO.C,R7*%
X173668333Y-103332619D02*
X173335000Y-102856428D01*
X173096905Y-103332619D02*
X173096905Y-102332619D01*
X173096905Y-102332619D02*
X173477857Y-102332619D01*
X173477857Y-102332619D02*
X173573095Y-102380238D01*
X173573095Y-102380238D02*
X173620714Y-102427857D01*
X173620714Y-102427857D02*
X173668333Y-102523095D01*
X173668333Y-102523095D02*
X173668333Y-102665952D01*
X173668333Y-102665952D02*
X173620714Y-102761190D01*
X173620714Y-102761190D02*
X173573095Y-102808809D01*
X173573095Y-102808809D02*
X173477857Y-102856428D01*
X173477857Y-102856428D02*
X173096905Y-102856428D01*
X174001667Y-102332619D02*
X174668333Y-102332619D01*
X174668333Y-102332619D02*
X174239762Y-103332619D01*
%TO.C,J4*%
X186356666Y-103382619D02*
X186356666Y-104096904D01*
X186356666Y-104096904D02*
X186309047Y-104239761D01*
X186309047Y-104239761D02*
X186213809Y-104335000D01*
X186213809Y-104335000D02*
X186070952Y-104382619D01*
X186070952Y-104382619D02*
X185975714Y-104382619D01*
X187261428Y-103715952D02*
X187261428Y-104382619D01*
X187023333Y-103335000D02*
X186785238Y-104049285D01*
X186785238Y-104049285D02*
X187404285Y-104049285D01*
%TO.C,H1*%
X194818095Y-80082619D02*
X194818095Y-79082619D01*
X194818095Y-79558809D02*
X195389523Y-79558809D01*
X195389523Y-80082619D02*
X195389523Y-79082619D01*
X196389523Y-80082619D02*
X195818095Y-80082619D01*
X196103809Y-80082619D02*
X196103809Y-79082619D01*
X196103809Y-79082619D02*
X196008571Y-79225476D01*
X196008571Y-79225476D02*
X195913333Y-79320714D01*
X195913333Y-79320714D02*
X195818095Y-79368333D01*
%TO.C,R9*%
X178903333Y-108887619D02*
X178570000Y-108411428D01*
X178331905Y-108887619D02*
X178331905Y-107887619D01*
X178331905Y-107887619D02*
X178712857Y-107887619D01*
X178712857Y-107887619D02*
X178808095Y-107935238D01*
X178808095Y-107935238D02*
X178855714Y-107982857D01*
X178855714Y-107982857D02*
X178903333Y-108078095D01*
X178903333Y-108078095D02*
X178903333Y-108220952D01*
X178903333Y-108220952D02*
X178855714Y-108316190D01*
X178855714Y-108316190D02*
X178808095Y-108363809D01*
X178808095Y-108363809D02*
X178712857Y-108411428D01*
X178712857Y-108411428D02*
X178331905Y-108411428D01*
X179379524Y-108887619D02*
X179570000Y-108887619D01*
X179570000Y-108887619D02*
X179665238Y-108840000D01*
X179665238Y-108840000D02*
X179712857Y-108792380D01*
X179712857Y-108792380D02*
X179808095Y-108649523D01*
X179808095Y-108649523D02*
X179855714Y-108459047D01*
X179855714Y-108459047D02*
X179855714Y-108078095D01*
X179855714Y-108078095D02*
X179808095Y-107982857D01*
X179808095Y-107982857D02*
X179760476Y-107935238D01*
X179760476Y-107935238D02*
X179665238Y-107887619D01*
X179665238Y-107887619D02*
X179474762Y-107887619D01*
X179474762Y-107887619D02*
X179379524Y-107935238D01*
X179379524Y-107935238D02*
X179331905Y-107982857D01*
X179331905Y-107982857D02*
X179284286Y-108078095D01*
X179284286Y-108078095D02*
X179284286Y-108316190D01*
X179284286Y-108316190D02*
X179331905Y-108411428D01*
X179331905Y-108411428D02*
X179379524Y-108459047D01*
X179379524Y-108459047D02*
X179474762Y-108506666D01*
X179474762Y-108506666D02*
X179665238Y-108506666D01*
X179665238Y-108506666D02*
X179760476Y-108459047D01*
X179760476Y-108459047D02*
X179808095Y-108411428D01*
X179808095Y-108411428D02*
X179855714Y-108316190D01*
%TO.C,J2*%
X116661666Y-103382619D02*
X116661666Y-104096904D01*
X116661666Y-104096904D02*
X116614047Y-104239761D01*
X116614047Y-104239761D02*
X116518809Y-104335000D01*
X116518809Y-104335000D02*
X116375952Y-104382619D01*
X116375952Y-104382619D02*
X116280714Y-104382619D01*
X117090238Y-103477857D02*
X117137857Y-103430238D01*
X117137857Y-103430238D02*
X117233095Y-103382619D01*
X117233095Y-103382619D02*
X117471190Y-103382619D01*
X117471190Y-103382619D02*
X117566428Y-103430238D01*
X117566428Y-103430238D02*
X117614047Y-103477857D01*
X117614047Y-103477857D02*
X117661666Y-103573095D01*
X117661666Y-103573095D02*
X117661666Y-103668333D01*
X117661666Y-103668333D02*
X117614047Y-103811190D01*
X117614047Y-103811190D02*
X117042619Y-104382619D01*
X117042619Y-104382619D02*
X117661666Y-104382619D01*
D13*
%TO.C,Q2*%
X163195000Y-100810000D02*
X163695000Y-100810000D01*
X162695000Y-97310000D02*
X163695000Y-97310000D01*
%TO.C,U1*%
X131335000Y-99735000D02*
X131335000Y-98325000D01*
X129015000Y-98325000D02*
X129015000Y-101060000D01*
X130675000Y-98325000D02*
X131335000Y-98325000D01*
X129005000Y-98325000D02*
X129675000Y-98325000D01*
%TO.C,R5*%
X168387500Y-97892776D02*
X168387500Y-98402224D01*
X169432500Y-97892776D02*
X169432500Y-98402224D01*
%TO.C,Q1*%
X151765000Y-100810000D02*
X152265000Y-100810000D01*
X151265000Y-97310000D02*
X152265000Y-97310000D01*
%TO.C,R6*%
X177122500Y-105155276D02*
X177122500Y-105664724D01*
X178167500Y-105155276D02*
X178167500Y-105664724D01*
%TO.C,J1*%
X115665000Y-91645000D02*
X115665000Y-90315000D01*
X115665000Y-90315000D02*
X116995000Y-90315000D01*
X115665000Y-100595000D02*
X118325000Y-100595000D01*
X118325000Y-92915000D02*
X118325000Y-100595000D01*
X115665000Y-92915000D02*
X115665000Y-100595000D01*
X115665000Y-92915000D02*
X118325000Y-92915000D01*
%TO.C,R1*%
X133462500Y-98402224D02*
X133462500Y-97892776D01*
X134507500Y-98402224D02*
X134507500Y-97892776D01*
%TO.C,C2*%
X142641233Y-102995000D02*
X142933767Y-102995000D01*
X142641233Y-104015000D02*
X142933767Y-104015000D01*
%TO.C,R2*%
X138317500Y-98322224D02*
X138317500Y-97812776D01*
X137272500Y-98322224D02*
X137272500Y-97812776D01*
%TO.C,C1*%
X126875000Y-98051233D02*
X126875000Y-98343767D01*
X125855000Y-98051233D02*
X125855000Y-98343767D01*
%TO.C,U2*%
X140315000Y-98160000D02*
X140315000Y-100610000D01*
X143535000Y-99960000D02*
X143535000Y-98160000D01*
%TO.C,R3*%
X146257500Y-97892776D02*
X146257500Y-98402224D01*
X145212500Y-97892776D02*
X145212500Y-98402224D01*
%TO.C,Q3*%
X175105000Y-100810000D02*
X175605000Y-100810000D01*
X174605000Y-97310000D02*
X175605000Y-97310000D01*
%TO.C,J3*%
X185360000Y-90315000D02*
X186690000Y-90315000D01*
X185360000Y-91645000D02*
X185360000Y-90315000D01*
X188020000Y-92915000D02*
X188020000Y-100595000D01*
X185360000Y-92915000D02*
X188020000Y-92915000D01*
X185360000Y-100595000D02*
X188020000Y-100595000D01*
X185360000Y-92915000D02*
X185360000Y-100595000D01*
%TO.C,R8*%
X169657500Y-105155276D02*
X169657500Y-105664724D01*
X170702500Y-105155276D02*
X170702500Y-105664724D01*
%TO.C,R4*%
X158002500Y-97892776D02*
X158002500Y-98402224D01*
X156957500Y-97892776D02*
X156957500Y-98402224D01*
%TO.C,R7*%
X174357500Y-105155276D02*
X174357500Y-105664724D01*
X173312500Y-105155276D02*
X173312500Y-105664724D01*
%TO.C,G1*%
G36*
X128076564Y-124397780D02*
G01*
X127203471Y-124397780D01*
X127203471Y-114362221D01*
X128076564Y-114362221D01*
X128076564Y-124397780D01*
G37*
G36*
X127012795Y-120634445D02*
G01*
X126139702Y-120634445D01*
X126139702Y-115616665D01*
X127012795Y-115616665D01*
X127012795Y-120634445D01*
G37*
G36*
X129140334Y-120634445D02*
G01*
X128267240Y-120634445D01*
X128267240Y-115616665D01*
X129140334Y-115616665D01*
X129140334Y-120634445D01*
G37*
%TO.C,J4*%
X188020000Y-107520000D02*
X188020000Y-115200000D01*
X185360000Y-106250000D02*
X185360000Y-104920000D01*
X185360000Y-104920000D02*
X186690000Y-104920000D01*
X185360000Y-107520000D02*
X185360000Y-115200000D01*
X185360000Y-115200000D02*
X188020000Y-115200000D01*
X185360000Y-107520000D02*
X188020000Y-107520000D01*
%TO.C,R9*%
X178815276Y-110377500D02*
X179324724Y-110377500D01*
X178815276Y-109332500D02*
X179324724Y-109332500D01*
%TO.C,J2*%
X118325000Y-107520000D02*
X118325000Y-115200000D01*
X115665000Y-104920000D02*
X116995000Y-104920000D01*
X115665000Y-107520000D02*
X115665000Y-115200000D01*
X115665000Y-115200000D02*
X118325000Y-115200000D01*
X115665000Y-106250000D02*
X115665000Y-104920000D01*
X115665000Y-107520000D02*
X118325000Y-107520000D01*
%TD*%
M02*
