%TF.GenerationSoftware,KiCad,Pcbnew,7.0.2*%
%TF.CreationDate,2023-06-12T21:50:40-07:00*%
%TF.ProjectId,latch,6c617463-682e-46b6-9963-61645f706362,A*%
%TF.SameCoordinates,Original*%
%TF.FileFunction,Plated,1,2,PTH,Drill*%
%TF.FilePolarity,Positive*%
%FSLAX46Y46*%
G04 Gerber Fmt 4.6, Leading zero omitted, Abs format (unit mm)*
G04 Created by KiCad (PCBNEW 7.0.2) date 2023-06-12 21:50:40*
%MOMM*%
%LPD*%
G01*
G04 APERTURE LIST*
%TA.AperFunction,ViaDrill*%
%ADD10C,0.400000*%
%TD*%
%TA.AperFunction,ComponentDrill*%
%ADD11C,0.500000*%
%TD*%
%TA.AperFunction,ComponentDrill*%
%ADD12C,1.000000*%
%TD*%
%TA.AperFunction,ComponentDrill*%
%ADD13C,3.200000*%
%TD*%
G04 APERTURE END LIST*
D10*
X111125000Y-90170000D03*
X111125000Y-92075000D03*
X111125000Y-93980000D03*
X111125000Y-95885000D03*
X111125000Y-97790000D03*
X111125000Y-99695000D03*
X111125000Y-105410000D03*
X111125000Y-107315000D03*
X111125000Y-109220000D03*
X111125000Y-111125000D03*
X111125000Y-113030000D03*
X111125000Y-114935000D03*
X124460000Y-99060000D03*
X145735000Y-103505000D03*
X155575000Y-99060000D03*
X161925000Y-102235000D03*
X164465000Y-95885000D03*
X167005000Y-99060000D03*
X170180000Y-107950000D03*
X171480000Y-100360000D03*
X173835000Y-107950000D03*
X177645000Y-107950000D03*
X178915000Y-99060000D03*
X179070000Y-95504000D03*
X191135000Y-90170000D03*
X191135000Y-92075000D03*
X191135000Y-93980000D03*
X191135000Y-95885000D03*
X191135000Y-97790000D03*
X191135000Y-99695000D03*
X191135000Y-105410000D03*
X191135000Y-107315000D03*
X191135000Y-109220000D03*
X191135000Y-111125000D03*
X191135000Y-113030000D03*
X191135000Y-114935000D03*
D11*
%TO.C,H3*%
X104280000Y-83820000D03*
%TO.C,H2*%
X104280000Y-121920000D03*
%TO.C,H3*%
X104982944Y-82122944D03*
X104982944Y-85517056D03*
%TO.C,H2*%
X104982944Y-120222944D03*
X104982944Y-123617056D03*
%TO.C,H3*%
X106680000Y-81420000D03*
X106680000Y-86220000D03*
%TO.C,H2*%
X106680000Y-119520000D03*
X106680000Y-124320000D03*
%TO.C,H3*%
X108377056Y-82122944D03*
X108377056Y-85517056D03*
%TO.C,H2*%
X108377056Y-120222944D03*
X108377056Y-123617056D03*
%TO.C,H3*%
X109080000Y-83820000D03*
%TO.C,H2*%
X109080000Y-121920000D03*
%TO.C,H1*%
X193180000Y-83820000D03*
%TO.C,H4*%
X193180000Y-121920000D03*
%TO.C,H1*%
X193882944Y-82122944D03*
X193882944Y-85517056D03*
%TO.C,H4*%
X193882944Y-120222944D03*
X193882944Y-123617056D03*
%TO.C,H1*%
X195580000Y-81420000D03*
X195580000Y-86220000D03*
%TO.C,H4*%
X195580000Y-119520000D03*
X195580000Y-124320000D03*
%TO.C,H1*%
X197277056Y-82122944D03*
X197277056Y-85517056D03*
%TO.C,H4*%
X197277056Y-120222944D03*
X197277056Y-123617056D03*
%TO.C,H1*%
X197980000Y-83820000D03*
%TO.C,H4*%
X197980000Y-121920000D03*
D12*
%TO.C,J1*%
X116995000Y-91645000D03*
X116995000Y-94185000D03*
X116995000Y-96725000D03*
X116995000Y-99265000D03*
%TO.C,J2*%
X116995000Y-106250000D03*
X116995000Y-108790000D03*
X116995000Y-111330000D03*
X116995000Y-113870000D03*
%TO.C,J3*%
X186690000Y-91645000D03*
X186690000Y-94185000D03*
X186690000Y-96725000D03*
X186690000Y-99265000D03*
%TO.C,J4*%
X186690000Y-106250000D03*
X186690000Y-108790000D03*
X186690000Y-111330000D03*
X186690000Y-113870000D03*
D13*
%TO.C,H3*%
X106680000Y-83820000D03*
%TO.C,H2*%
X106680000Y-121920000D03*
%TO.C,H1*%
X195580000Y-83820000D03*
%TO.C,H4*%
X195580000Y-121920000D03*
M02*
