%TF.GenerationSoftware,KiCad,Pcbnew,7.0.2*%
%TF.CreationDate,2023-06-12T21:50:36-07:00*%
%TF.ProjectId,latch,6c617463-682e-46b6-9963-61645f706362,A*%
%TF.SameCoordinates,Original*%
%TF.FileFunction,Copper,L2,Bot*%
%TF.FilePolarity,Positive*%
%FSLAX46Y46*%
G04 Gerber Fmt 4.6, Leading zero omitted, Abs format (unit mm)*
G04 Created by KiCad (PCBNEW 7.0.2) date 2023-06-12 21:50:36*
%MOMM*%
%LPD*%
G01*
G04 APERTURE LIST*
%TA.AperFunction,ComponentPad*%
%ADD10C,0.800000*%
%TD*%
%TA.AperFunction,ComponentPad*%
%ADD11C,6.400000*%
%TD*%
%TA.AperFunction,ComponentPad*%
%ADD12R,1.700000X1.700000*%
%TD*%
%TA.AperFunction,ComponentPad*%
%ADD13O,1.700000X1.700000*%
%TD*%
%TA.AperFunction,ViaPad*%
%ADD14C,0.800000*%
%TD*%
%TA.AperFunction,Conductor*%
%ADD15C,0.500000*%
%TD*%
G04 APERTURE END LIST*
D10*
%TO.P,H4,1,1*%
%TO.N,GND*%
X193882944Y-120222944D03*
X193882944Y-123617056D03*
X197980000Y-121920000D03*
X193180000Y-121920000D03*
X195580000Y-119520000D03*
X197277056Y-120222944D03*
X195580000Y-124320000D03*
X197277056Y-123617056D03*
D11*
X195580000Y-121920000D03*
%TD*%
D12*
%TO.P,J1,1,Pin_1*%
%TO.N,VCC*%
X116995000Y-91645000D03*
D13*
%TO.P,J1,2,Pin_2*%
X116995000Y-94185000D03*
%TO.P,J1,3,Pin_3*%
X116995000Y-96725000D03*
%TO.P,J1,4,Pin_4*%
X116995000Y-99265000D03*
%TD*%
D12*
%TO.P,J3,1,Pin_1*%
%TO.N,OUT*%
X186690000Y-91645000D03*
D13*
%TO.P,J3,2,Pin_2*%
X186690000Y-94185000D03*
%TO.P,J3,3,Pin_3*%
X186690000Y-96725000D03*
%TO.P,J3,4,Pin_4*%
X186690000Y-99265000D03*
%TD*%
D10*
%TO.P,H2,1,1*%
%TO.N,GND*%
X106680000Y-119520000D03*
X109080000Y-121920000D03*
X104280000Y-121920000D03*
D11*
X106680000Y-121920000D03*
D10*
X108377056Y-120222944D03*
X104982944Y-123617056D03*
X104982944Y-120222944D03*
X106680000Y-124320000D03*
X108377056Y-123617056D03*
%TD*%
%TO.P,H3,1,1*%
%TO.N,GND*%
X104280000Y-83820000D03*
X108377056Y-85517056D03*
X108377056Y-82122944D03*
X109080000Y-83820000D03*
X104982944Y-82122944D03*
X106680000Y-81420000D03*
D11*
X106680000Y-83820000D03*
D10*
X104982944Y-85517056D03*
X106680000Y-86220000D03*
%TD*%
D12*
%TO.P,J4,1,Pin_1*%
%TO.N,SHD*%
X186690000Y-106250000D03*
D13*
%TO.P,J4,2,Pin_2*%
X186690000Y-108790000D03*
%TO.P,J4,3,Pin_3*%
X186690000Y-111330000D03*
%TO.P,J4,4,Pin_4*%
X186690000Y-113870000D03*
%TD*%
D10*
%TO.P,H1,1,1*%
%TO.N,GND*%
X193882944Y-82122944D03*
X197277056Y-82122944D03*
X197277056Y-85517056D03*
X193180000Y-83820000D03*
X193882944Y-85517056D03*
X195580000Y-86220000D03*
X195580000Y-81420000D03*
D11*
X195580000Y-83820000D03*
D10*
X197980000Y-83820000D03*
%TD*%
D12*
%TO.P,J2,1,Pin_1*%
%TO.N,GND*%
X116995000Y-106250000D03*
D13*
%TO.P,J2,2,Pin_2*%
X116995000Y-108790000D03*
%TO.P,J2,3,Pin_3*%
X116995000Y-111330000D03*
%TO.P,J2,4,Pin_4*%
X116995000Y-113870000D03*
%TD*%
D14*
%TO.N,VCC*%
X111125000Y-90170000D03*
X111125000Y-99695000D03*
X111125000Y-97790000D03*
X111125000Y-93980000D03*
X111125000Y-95885000D03*
X111125000Y-92075000D03*
%TO.N,GND*%
X111125000Y-114935000D03*
X173835000Y-107950000D03*
X170180000Y-107950000D03*
X111125000Y-105410000D03*
X111125000Y-111125000D03*
X111125000Y-107315000D03*
X111125000Y-113030000D03*
X124460000Y-99060000D03*
X167005000Y-99060000D03*
X178915000Y-99060000D03*
X111125000Y-109220000D03*
X177645000Y-107950000D03*
X145735000Y-103505000D03*
X155575000Y-99060000D03*
%TO.N,Net-(Q2-Pad3)*%
X164465000Y-95885000D03*
X161925000Y-102235000D03*
%TO.N,OUT*%
X191135000Y-90170000D03*
X191135000Y-93980000D03*
X171480000Y-100360000D03*
X191135000Y-95885000D03*
X179070000Y-95504000D03*
X191135000Y-99695000D03*
X191135000Y-97790000D03*
X191135000Y-92075000D03*
%TO.N,SHD*%
X191135000Y-105410000D03*
X191135000Y-113030000D03*
X191135000Y-114935000D03*
X191135000Y-107315000D03*
X191135000Y-109220000D03*
X191135000Y-111125000D03*
%TD*%
D15*
%TO.N,Net-(Q2-Pad3)*%
X161925000Y-101600000D02*
X164465000Y-99060000D01*
X161925000Y-102235000D02*
X161925000Y-101600000D01*
X164465000Y-99060000D02*
X164465000Y-95885000D01*
%TO.N,OUT*%
X171480000Y-100360000D02*
X176336000Y-95504000D01*
X176336000Y-95504000D02*
X179070000Y-95504000D01*
%TD*%
%TA.AperFunction,Conductor*%
%TO.N,GND*%
G36*
X117249000Y-113436325D02*
G01*
X117137315Y-113385320D01*
X117030763Y-113370000D01*
X116959237Y-113370000D01*
X116852685Y-113385320D01*
X116741000Y-113436325D01*
X116741000Y-111763674D01*
X116852685Y-111814680D01*
X116959237Y-111830000D01*
X117030763Y-111830000D01*
X117137315Y-111814680D01*
X117249000Y-111763674D01*
X117249000Y-113436325D01*
G37*
%TD.AperFunction*%
%TA.AperFunction,Conductor*%
G36*
X117249000Y-110896325D02*
G01*
X117137315Y-110845320D01*
X117030763Y-110830000D01*
X116959237Y-110830000D01*
X116852685Y-110845320D01*
X116741000Y-110896325D01*
X116741000Y-109223674D01*
X116852685Y-109274680D01*
X116959237Y-109290000D01*
X117030763Y-109290000D01*
X117137315Y-109274680D01*
X117249000Y-109223674D01*
X117249000Y-110896325D01*
G37*
%TD.AperFunction*%
%TA.AperFunction,Conductor*%
G36*
X117249000Y-108356325D02*
G01*
X117137315Y-108305320D01*
X117030763Y-108290000D01*
X116959237Y-108290000D01*
X116852685Y-108305320D01*
X116741000Y-108356325D01*
X116741000Y-106683674D01*
X116852685Y-106734680D01*
X116959237Y-106750000D01*
X117030763Y-106750000D01*
X117137315Y-106734680D01*
X117249000Y-106683674D01*
X117249000Y-108356325D01*
G37*
%TD.AperFunction*%
%TA.AperFunction,Conductor*%
G36*
X120015000Y-115570000D02*
G01*
X102235000Y-115570000D01*
X102235000Y-107145222D01*
X115637000Y-107145222D01*
X115637359Y-107151936D01*
X115643505Y-107209093D01*
X115694554Y-107345962D01*
X115782095Y-107462904D01*
X115899037Y-107550445D01*
X116014678Y-107593577D01*
X116071514Y-107636124D01*
X116096325Y-107702644D01*
X116081234Y-107772018D01*
X116063348Y-107796970D01*
X115919675Y-107953040D01*
X115796580Y-108141451D01*
X115706177Y-108347548D01*
X115658455Y-108535999D01*
X115658456Y-108536000D01*
X116563884Y-108536000D01*
X116535507Y-108580156D01*
X116495000Y-108718111D01*
X116495000Y-108861889D01*
X116535507Y-108999844D01*
X116563884Y-109044000D01*
X115658455Y-109044000D01*
X115706177Y-109232451D01*
X115796580Y-109438548D01*
X115919678Y-109626962D01*
X116072096Y-109792533D01*
X116249697Y-109930766D01*
X116283732Y-109949184D01*
X116334123Y-109999197D01*
X116349476Y-110068513D01*
X116324916Y-110135127D01*
X116283736Y-110170811D01*
X116249702Y-110189229D01*
X116072096Y-110327466D01*
X115919678Y-110493037D01*
X115796580Y-110681451D01*
X115706177Y-110887548D01*
X115658455Y-111075999D01*
X115658456Y-111076000D01*
X116563884Y-111076000D01*
X116535507Y-111120156D01*
X116495000Y-111258111D01*
X116495000Y-111401889D01*
X116535507Y-111539844D01*
X116563884Y-111584000D01*
X115658455Y-111584000D01*
X115706177Y-111772451D01*
X115796580Y-111978548D01*
X115919678Y-112166962D01*
X116072096Y-112332533D01*
X116249697Y-112470766D01*
X116283734Y-112489186D01*
X116334124Y-112539200D01*
X116349476Y-112608517D01*
X116324915Y-112675130D01*
X116283734Y-112710814D01*
X116249697Y-112729233D01*
X116072096Y-112867466D01*
X115919678Y-113033037D01*
X115796580Y-113221451D01*
X115706177Y-113427548D01*
X115658455Y-113615999D01*
X115658456Y-113616000D01*
X116563884Y-113616000D01*
X116535507Y-113660156D01*
X116495000Y-113798111D01*
X116495000Y-113941889D01*
X116535507Y-114079844D01*
X116563884Y-114124000D01*
X115658455Y-114124000D01*
X115706177Y-114312451D01*
X115796580Y-114518548D01*
X115919678Y-114706962D01*
X116072096Y-114872533D01*
X116249697Y-115010766D01*
X116447631Y-115117883D01*
X116660485Y-115190955D01*
X116741000Y-115204391D01*
X116741000Y-114303674D01*
X116852685Y-114354680D01*
X116959237Y-114370000D01*
X117030763Y-114370000D01*
X117137315Y-114354680D01*
X117249000Y-114303674D01*
X117249000Y-115204390D01*
X117329514Y-115190955D01*
X117542368Y-115117883D01*
X117740302Y-115010766D01*
X117917903Y-114872533D01*
X118070321Y-114706962D01*
X118193419Y-114518548D01*
X118283822Y-114312451D01*
X118331544Y-114124000D01*
X117426116Y-114124000D01*
X117454493Y-114079844D01*
X117495000Y-113941889D01*
X117495000Y-113798111D01*
X117454493Y-113660156D01*
X117426116Y-113616000D01*
X118331544Y-113616000D01*
X118331544Y-113615999D01*
X118283822Y-113427548D01*
X118193419Y-113221451D01*
X118070321Y-113033037D01*
X117917903Y-112867466D01*
X117740300Y-112729232D01*
X117706266Y-112710814D01*
X117655876Y-112660801D01*
X117640523Y-112591485D01*
X117665083Y-112524871D01*
X117706266Y-112489186D01*
X117740300Y-112470767D01*
X117917903Y-112332533D01*
X118070321Y-112166962D01*
X118193419Y-111978548D01*
X118283822Y-111772451D01*
X118331544Y-111584000D01*
X117426116Y-111584000D01*
X117454493Y-111539844D01*
X117495000Y-111401889D01*
X117495000Y-111258111D01*
X117454493Y-111120156D01*
X117426116Y-111076000D01*
X118331544Y-111076000D01*
X118331544Y-111075999D01*
X118283822Y-110887548D01*
X118193419Y-110681451D01*
X118070321Y-110493037D01*
X117917903Y-110327466D01*
X117740300Y-110189232D01*
X117706266Y-110170814D01*
X117655876Y-110120801D01*
X117640523Y-110051485D01*
X117665083Y-109984871D01*
X117706266Y-109949186D01*
X117740300Y-109930767D01*
X117917903Y-109792533D01*
X118070321Y-109626962D01*
X118193419Y-109438548D01*
X118283822Y-109232451D01*
X118331544Y-109044000D01*
X117426116Y-109044000D01*
X117454493Y-108999844D01*
X117495000Y-108861889D01*
X117495000Y-108718111D01*
X117454493Y-108580156D01*
X117426116Y-108536000D01*
X118331544Y-108536000D01*
X118331544Y-108535999D01*
X118283822Y-108347548D01*
X118193419Y-108141451D01*
X118070321Y-107953037D01*
X117926652Y-107796970D01*
X117895231Y-107733305D01*
X117903218Y-107662759D01*
X117948077Y-107607730D01*
X117975321Y-107593577D01*
X118090962Y-107550445D01*
X118207904Y-107462904D01*
X118295445Y-107345962D01*
X118346494Y-107209093D01*
X118352640Y-107151936D01*
X118353000Y-107145222D01*
X118353000Y-106504000D01*
X117426116Y-106504000D01*
X117454493Y-106459844D01*
X117495000Y-106321889D01*
X117495000Y-106178111D01*
X117454493Y-106040156D01*
X117426116Y-105996000D01*
X118353000Y-105996000D01*
X118353000Y-105354777D01*
X118352640Y-105348063D01*
X118346494Y-105290906D01*
X118295445Y-105154037D01*
X118207904Y-105037095D01*
X118090962Y-104949554D01*
X117954093Y-104898505D01*
X117896936Y-104892359D01*
X117890223Y-104892000D01*
X117249000Y-104892000D01*
X117249000Y-105816325D01*
X117137315Y-105765320D01*
X117030763Y-105750000D01*
X116959237Y-105750000D01*
X116852685Y-105765320D01*
X116741000Y-105816325D01*
X116741000Y-104892000D01*
X116099777Y-104892000D01*
X116093063Y-104892359D01*
X116035906Y-104898505D01*
X115899037Y-104949554D01*
X115782095Y-105037095D01*
X115694554Y-105154037D01*
X115643505Y-105290906D01*
X115637359Y-105348063D01*
X115637000Y-105354777D01*
X115637000Y-105996000D01*
X116563884Y-105996000D01*
X116535507Y-106040156D01*
X116495000Y-106178111D01*
X116495000Y-106321889D01*
X116535507Y-106459844D01*
X116563884Y-106504000D01*
X115637000Y-106504000D01*
X115637000Y-107145222D01*
X102235000Y-107145222D01*
X102235000Y-104140000D01*
X120015000Y-104140000D01*
X120015000Y-115570000D01*
G37*
%TD.AperFunction*%
%TD*%
%TA.AperFunction,Conductor*%
%TO.N,OUT*%
G36*
X186944000Y-98831325D02*
G01*
X186832315Y-98780320D01*
X186725763Y-98765000D01*
X186654237Y-98765000D01*
X186547685Y-98780320D01*
X186436000Y-98831325D01*
X186436000Y-97158674D01*
X186547685Y-97209680D01*
X186654237Y-97225000D01*
X186725763Y-97225000D01*
X186832315Y-97209680D01*
X186944000Y-97158674D01*
X186944000Y-98831325D01*
G37*
%TD.AperFunction*%
%TA.AperFunction,Conductor*%
G36*
X186944000Y-96291325D02*
G01*
X186832315Y-96240320D01*
X186725763Y-96225000D01*
X186654237Y-96225000D01*
X186547685Y-96240320D01*
X186436000Y-96291325D01*
X186436000Y-94618674D01*
X186547685Y-94669680D01*
X186654237Y-94685000D01*
X186725763Y-94685000D01*
X186832315Y-94669680D01*
X186944000Y-94618674D01*
X186944000Y-96291325D01*
G37*
%TD.AperFunction*%
%TA.AperFunction,Conductor*%
G36*
X186944000Y-93751325D02*
G01*
X186832315Y-93700320D01*
X186725763Y-93685000D01*
X186654237Y-93685000D01*
X186547685Y-93700320D01*
X186436000Y-93751325D01*
X186436000Y-92078674D01*
X186547685Y-92129680D01*
X186654237Y-92145000D01*
X186725763Y-92145000D01*
X186832315Y-92129680D01*
X186944000Y-92078674D01*
X186944000Y-93751325D01*
G37*
%TD.AperFunction*%
%TA.AperFunction,Conductor*%
G36*
X199967121Y-89555002D02*
G01*
X200013614Y-89608658D01*
X200025000Y-89661000D01*
X200025000Y-100839000D01*
X200004998Y-100907121D01*
X199951342Y-100953614D01*
X199899000Y-100965000D01*
X183641000Y-100965000D01*
X183572879Y-100944998D01*
X183526386Y-100891342D01*
X183515000Y-100839000D01*
X183515000Y-92540222D01*
X185332000Y-92540222D01*
X185332359Y-92546936D01*
X185338505Y-92604093D01*
X185389554Y-92740962D01*
X185477095Y-92857904D01*
X185594037Y-92945445D01*
X185709678Y-92988577D01*
X185766514Y-93031124D01*
X185791325Y-93097644D01*
X185776234Y-93167018D01*
X185758348Y-93191970D01*
X185614675Y-93348040D01*
X185491580Y-93536451D01*
X185401177Y-93742548D01*
X185353455Y-93930999D01*
X185353456Y-93931000D01*
X186258884Y-93931000D01*
X186230507Y-93975156D01*
X186190000Y-94113111D01*
X186190000Y-94256889D01*
X186230507Y-94394844D01*
X186258884Y-94439000D01*
X185353455Y-94439000D01*
X185401177Y-94627451D01*
X185491580Y-94833548D01*
X185614678Y-95021962D01*
X185767096Y-95187533D01*
X185944697Y-95325766D01*
X185978734Y-95344186D01*
X186029124Y-95394200D01*
X186044476Y-95463517D01*
X186019915Y-95530130D01*
X185978734Y-95565814D01*
X185944697Y-95584233D01*
X185767096Y-95722466D01*
X185614678Y-95888037D01*
X185491580Y-96076451D01*
X185401177Y-96282548D01*
X185353455Y-96470999D01*
X185353456Y-96471000D01*
X186258884Y-96471000D01*
X186230507Y-96515156D01*
X186190000Y-96653111D01*
X186190000Y-96796889D01*
X186230507Y-96934844D01*
X186258884Y-96979000D01*
X185353455Y-96979000D01*
X185401177Y-97167451D01*
X185491580Y-97373548D01*
X185614678Y-97561962D01*
X185767096Y-97727533D01*
X185944697Y-97865766D01*
X185978734Y-97884186D01*
X186029124Y-97934200D01*
X186044476Y-98003517D01*
X186019915Y-98070130D01*
X185978734Y-98105814D01*
X185944697Y-98124233D01*
X185767096Y-98262466D01*
X185614678Y-98428037D01*
X185491580Y-98616451D01*
X185401177Y-98822548D01*
X185353455Y-99010999D01*
X185353456Y-99011000D01*
X186258884Y-99011000D01*
X186230507Y-99055156D01*
X186190000Y-99193111D01*
X186190000Y-99336889D01*
X186230507Y-99474844D01*
X186258884Y-99519000D01*
X185353455Y-99519000D01*
X185401177Y-99707451D01*
X185491580Y-99913548D01*
X185614678Y-100101962D01*
X185767096Y-100267533D01*
X185944697Y-100405766D01*
X186142631Y-100512883D01*
X186355485Y-100585955D01*
X186436000Y-100599391D01*
X186436000Y-99698674D01*
X186547685Y-99749680D01*
X186654237Y-99765000D01*
X186725763Y-99765000D01*
X186832315Y-99749680D01*
X186944000Y-99698674D01*
X186944000Y-100599390D01*
X187024514Y-100585955D01*
X187237368Y-100512883D01*
X187435302Y-100405766D01*
X187612903Y-100267533D01*
X187765321Y-100101962D01*
X187888419Y-99913548D01*
X187978822Y-99707451D01*
X188026544Y-99519000D01*
X187121116Y-99519000D01*
X187149493Y-99474844D01*
X187190000Y-99336889D01*
X187190000Y-99193111D01*
X187149493Y-99055156D01*
X187121116Y-99011000D01*
X188026544Y-99011000D01*
X188026544Y-99010999D01*
X187978822Y-98822548D01*
X187888419Y-98616451D01*
X187765321Y-98428037D01*
X187612903Y-98262466D01*
X187435300Y-98124232D01*
X187401266Y-98105814D01*
X187350876Y-98055801D01*
X187335523Y-97986485D01*
X187360083Y-97919871D01*
X187401266Y-97884186D01*
X187435300Y-97865767D01*
X187612903Y-97727533D01*
X187765321Y-97561962D01*
X187888419Y-97373548D01*
X187978822Y-97167451D01*
X188026544Y-96979000D01*
X187121116Y-96979000D01*
X187149493Y-96934844D01*
X187190000Y-96796889D01*
X187190000Y-96653111D01*
X187149493Y-96515156D01*
X187121116Y-96471000D01*
X188026544Y-96471000D01*
X188026544Y-96470999D01*
X187978822Y-96282548D01*
X187888419Y-96076451D01*
X187765321Y-95888037D01*
X187612903Y-95722466D01*
X187435299Y-95584231D01*
X187401264Y-95565812D01*
X187350875Y-95515798D01*
X187335523Y-95446481D01*
X187360085Y-95379869D01*
X187401268Y-95344184D01*
X187435300Y-95325767D01*
X187612903Y-95187533D01*
X187765321Y-95021962D01*
X187888419Y-94833548D01*
X187978822Y-94627451D01*
X188026544Y-94439000D01*
X187121116Y-94439000D01*
X187149493Y-94394844D01*
X187190000Y-94256889D01*
X187190000Y-94113111D01*
X187149493Y-93975156D01*
X187121116Y-93931000D01*
X188026544Y-93931000D01*
X188026544Y-93930999D01*
X187978822Y-93742548D01*
X187888419Y-93536451D01*
X187765321Y-93348037D01*
X187621652Y-93191970D01*
X187590231Y-93128305D01*
X187598218Y-93057759D01*
X187643077Y-93002730D01*
X187670321Y-92988577D01*
X187785962Y-92945445D01*
X187902904Y-92857904D01*
X187990445Y-92740962D01*
X188041494Y-92604093D01*
X188047640Y-92546936D01*
X188048000Y-92540222D01*
X188048000Y-91899000D01*
X187121116Y-91899000D01*
X187149493Y-91854844D01*
X187190000Y-91716889D01*
X187190000Y-91573111D01*
X187149493Y-91435156D01*
X187121116Y-91391000D01*
X188048000Y-91391000D01*
X188048000Y-90749777D01*
X188047640Y-90743063D01*
X188041494Y-90685906D01*
X187990445Y-90549037D01*
X187902904Y-90432095D01*
X187785962Y-90344554D01*
X187649093Y-90293505D01*
X187591936Y-90287359D01*
X187585223Y-90287000D01*
X186944000Y-90287000D01*
X186944000Y-91211325D01*
X186832315Y-91160320D01*
X186725763Y-91145000D01*
X186654237Y-91145000D01*
X186547685Y-91160320D01*
X186436000Y-91211325D01*
X186436000Y-90287000D01*
X185794777Y-90287000D01*
X185788063Y-90287359D01*
X185730906Y-90293505D01*
X185594037Y-90344554D01*
X185477095Y-90432095D01*
X185389554Y-90549037D01*
X185338505Y-90685906D01*
X185332359Y-90743063D01*
X185332000Y-90749777D01*
X185332000Y-91391000D01*
X186258884Y-91391000D01*
X186230507Y-91435156D01*
X186190000Y-91573111D01*
X186190000Y-91716889D01*
X186230507Y-91854844D01*
X186258884Y-91899000D01*
X185332000Y-91899000D01*
X185332000Y-92540222D01*
X183515000Y-92540222D01*
X183515000Y-89661000D01*
X183535002Y-89592879D01*
X183588658Y-89546386D01*
X183641000Y-89535000D01*
X199899000Y-89535000D01*
X199967121Y-89555002D01*
G37*
%TD.AperFunction*%
%TD*%
%TA.AperFunction,Conductor*%
%TO.N,VCC*%
G36*
X117249000Y-98831325D02*
G01*
X117137315Y-98780320D01*
X117030763Y-98765000D01*
X116959237Y-98765000D01*
X116852685Y-98780320D01*
X116741000Y-98831325D01*
X116741000Y-97158674D01*
X116852685Y-97209680D01*
X116959237Y-97225000D01*
X117030763Y-97225000D01*
X117137315Y-97209680D01*
X117249000Y-97158674D01*
X117249000Y-98831325D01*
G37*
%TD.AperFunction*%
%TA.AperFunction,Conductor*%
G36*
X117249000Y-96291325D02*
G01*
X117137315Y-96240320D01*
X117030763Y-96225000D01*
X116959237Y-96225000D01*
X116852685Y-96240320D01*
X116741000Y-96291325D01*
X116741000Y-94618674D01*
X116852685Y-94669680D01*
X116959237Y-94685000D01*
X117030763Y-94685000D01*
X117137315Y-94669680D01*
X117249000Y-94618674D01*
X117249000Y-96291325D01*
G37*
%TD.AperFunction*%
%TA.AperFunction,Conductor*%
G36*
X117249000Y-93751325D02*
G01*
X117137315Y-93700320D01*
X117030763Y-93685000D01*
X116959237Y-93685000D01*
X116852685Y-93700320D01*
X116741000Y-93751325D01*
X116741000Y-92078674D01*
X116852685Y-92129680D01*
X116959237Y-92145000D01*
X117030763Y-92145000D01*
X117137315Y-92129680D01*
X117249000Y-92078674D01*
X117249000Y-93751325D01*
G37*
%TD.AperFunction*%
%TA.AperFunction,Conductor*%
G36*
X119957121Y-89555002D02*
G01*
X120003614Y-89608658D01*
X120015000Y-89661000D01*
X120015000Y-100839000D01*
X119994998Y-100907121D01*
X119941342Y-100953614D01*
X119889000Y-100965000D01*
X102361000Y-100965000D01*
X102292879Y-100944998D01*
X102246386Y-100891342D01*
X102235000Y-100839000D01*
X102235000Y-92540222D01*
X115637000Y-92540222D01*
X115637359Y-92546936D01*
X115643505Y-92604093D01*
X115694554Y-92740962D01*
X115782095Y-92857904D01*
X115899037Y-92945445D01*
X116014678Y-92988577D01*
X116071514Y-93031124D01*
X116096325Y-93097644D01*
X116081234Y-93167018D01*
X116063348Y-93191970D01*
X115919675Y-93348040D01*
X115796580Y-93536451D01*
X115706177Y-93742548D01*
X115658455Y-93930999D01*
X115658456Y-93931000D01*
X116563884Y-93931000D01*
X116535507Y-93975156D01*
X116495000Y-94113111D01*
X116495000Y-94256889D01*
X116535507Y-94394844D01*
X116563884Y-94439000D01*
X115658455Y-94439000D01*
X115706177Y-94627451D01*
X115796580Y-94833548D01*
X115919678Y-95021962D01*
X116072096Y-95187533D01*
X116249697Y-95325766D01*
X116283734Y-95344186D01*
X116334124Y-95394200D01*
X116349476Y-95463517D01*
X116324915Y-95530130D01*
X116283734Y-95565814D01*
X116249697Y-95584233D01*
X116072096Y-95722466D01*
X115919678Y-95888037D01*
X115796580Y-96076451D01*
X115706177Y-96282548D01*
X115658455Y-96470999D01*
X115658456Y-96471000D01*
X116563884Y-96471000D01*
X116535507Y-96515156D01*
X116495000Y-96653111D01*
X116495000Y-96796889D01*
X116535507Y-96934844D01*
X116563884Y-96979000D01*
X115658455Y-96979000D01*
X115706177Y-97167451D01*
X115796580Y-97373548D01*
X115919678Y-97561962D01*
X116072096Y-97727533D01*
X116249697Y-97865766D01*
X116283734Y-97884186D01*
X116334124Y-97934200D01*
X116349476Y-98003517D01*
X116324915Y-98070130D01*
X116283734Y-98105814D01*
X116249697Y-98124233D01*
X116072096Y-98262466D01*
X115919678Y-98428037D01*
X115796580Y-98616451D01*
X115706177Y-98822548D01*
X115658455Y-99010999D01*
X115658456Y-99011000D01*
X116563884Y-99011000D01*
X116535507Y-99055156D01*
X116495000Y-99193111D01*
X116495000Y-99336889D01*
X116535507Y-99474844D01*
X116563884Y-99519000D01*
X115658455Y-99519000D01*
X115706177Y-99707451D01*
X115796580Y-99913548D01*
X115919678Y-100101962D01*
X116072096Y-100267533D01*
X116249697Y-100405766D01*
X116447631Y-100512883D01*
X116660485Y-100585955D01*
X116741000Y-100599391D01*
X116741000Y-99698674D01*
X116852685Y-99749680D01*
X116959237Y-99765000D01*
X117030763Y-99765000D01*
X117137315Y-99749680D01*
X117249000Y-99698674D01*
X117249000Y-100599390D01*
X117329514Y-100585955D01*
X117542368Y-100512883D01*
X117740302Y-100405766D01*
X117917903Y-100267533D01*
X118070321Y-100101962D01*
X118193419Y-99913548D01*
X118283822Y-99707451D01*
X118331544Y-99519000D01*
X117426116Y-99519000D01*
X117454493Y-99474844D01*
X117495000Y-99336889D01*
X117495000Y-99193111D01*
X117454493Y-99055156D01*
X117426116Y-99011000D01*
X118331544Y-99011000D01*
X118331544Y-99010999D01*
X118283822Y-98822548D01*
X118193419Y-98616451D01*
X118070321Y-98428037D01*
X117917903Y-98262466D01*
X117740300Y-98124232D01*
X117706266Y-98105814D01*
X117655876Y-98055801D01*
X117640523Y-97986485D01*
X117665083Y-97919871D01*
X117706266Y-97884186D01*
X117740300Y-97865767D01*
X117917903Y-97727533D01*
X118070321Y-97561962D01*
X118193419Y-97373548D01*
X118283822Y-97167451D01*
X118331544Y-96979000D01*
X117426116Y-96979000D01*
X117454493Y-96934844D01*
X117495000Y-96796889D01*
X117495000Y-96653111D01*
X117454493Y-96515156D01*
X117426116Y-96471000D01*
X118331544Y-96471000D01*
X118331544Y-96470999D01*
X118283822Y-96282548D01*
X118193419Y-96076451D01*
X118070321Y-95888037D01*
X117917903Y-95722466D01*
X117740300Y-95584232D01*
X117706266Y-95565814D01*
X117655876Y-95515801D01*
X117640523Y-95446485D01*
X117665083Y-95379871D01*
X117706266Y-95344186D01*
X117740300Y-95325767D01*
X117917903Y-95187533D01*
X118070321Y-95021962D01*
X118193419Y-94833548D01*
X118283822Y-94627451D01*
X118331544Y-94439000D01*
X117426116Y-94439000D01*
X117454493Y-94394844D01*
X117495000Y-94256889D01*
X117495000Y-94113111D01*
X117454493Y-93975156D01*
X117426116Y-93931000D01*
X118331544Y-93931000D01*
X118331544Y-93930999D01*
X118283822Y-93742548D01*
X118193419Y-93536451D01*
X118070321Y-93348037D01*
X117926652Y-93191970D01*
X117895231Y-93128305D01*
X117903218Y-93057759D01*
X117948077Y-93002730D01*
X117975321Y-92988577D01*
X118090962Y-92945445D01*
X118207904Y-92857904D01*
X118295445Y-92740962D01*
X118346494Y-92604093D01*
X118352640Y-92546936D01*
X118353000Y-92540222D01*
X118353000Y-91899000D01*
X117426116Y-91899000D01*
X117454493Y-91854844D01*
X117495000Y-91716889D01*
X117495000Y-91573111D01*
X117454493Y-91435156D01*
X117426116Y-91391000D01*
X118353000Y-91391000D01*
X118353000Y-90749777D01*
X118352640Y-90743063D01*
X118346494Y-90685906D01*
X118295445Y-90549037D01*
X118207904Y-90432095D01*
X118090962Y-90344554D01*
X117954093Y-90293505D01*
X117896936Y-90287359D01*
X117890223Y-90287000D01*
X117249000Y-90287000D01*
X117249000Y-91211325D01*
X117137315Y-91160320D01*
X117030763Y-91145000D01*
X116959237Y-91145000D01*
X116852685Y-91160320D01*
X116741000Y-91211325D01*
X116741000Y-90287000D01*
X116099777Y-90287000D01*
X116093063Y-90287359D01*
X116035906Y-90293505D01*
X115899037Y-90344554D01*
X115782095Y-90432095D01*
X115694554Y-90549037D01*
X115643505Y-90685906D01*
X115637359Y-90743063D01*
X115637000Y-90749777D01*
X115637000Y-91391000D01*
X116563884Y-91391000D01*
X116535507Y-91435156D01*
X116495000Y-91573111D01*
X116495000Y-91716889D01*
X116535507Y-91854844D01*
X116563884Y-91899000D01*
X115637000Y-91899000D01*
X115637000Y-92540222D01*
X102235000Y-92540222D01*
X102235000Y-89661000D01*
X102255002Y-89592879D01*
X102308658Y-89546386D01*
X102361000Y-89535000D01*
X119889000Y-89535000D01*
X119957121Y-89555002D01*
G37*
%TD.AperFunction*%
%TD*%
%TA.AperFunction,Conductor*%
%TO.N,SHD*%
G36*
X186944000Y-113436325D02*
G01*
X186832315Y-113385320D01*
X186725763Y-113370000D01*
X186654237Y-113370000D01*
X186547685Y-113385320D01*
X186436000Y-113436325D01*
X186436000Y-111763674D01*
X186547685Y-111814680D01*
X186654237Y-111830000D01*
X186725763Y-111830000D01*
X186832315Y-111814680D01*
X186944000Y-111763674D01*
X186944000Y-113436325D01*
G37*
%TD.AperFunction*%
%TA.AperFunction,Conductor*%
G36*
X186944000Y-110896325D02*
G01*
X186832315Y-110845320D01*
X186725763Y-110830000D01*
X186654237Y-110830000D01*
X186547685Y-110845320D01*
X186436000Y-110896325D01*
X186436000Y-109223674D01*
X186547685Y-109274680D01*
X186654237Y-109290000D01*
X186725763Y-109290000D01*
X186832315Y-109274680D01*
X186944000Y-109223674D01*
X186944000Y-110896325D01*
G37*
%TD.AperFunction*%
%TA.AperFunction,Conductor*%
G36*
X186944000Y-108356325D02*
G01*
X186832315Y-108305320D01*
X186725763Y-108290000D01*
X186654237Y-108290000D01*
X186547685Y-108305320D01*
X186436000Y-108356325D01*
X186436000Y-106683674D01*
X186547685Y-106734680D01*
X186654237Y-106750000D01*
X186725763Y-106750000D01*
X186832315Y-106734680D01*
X186944000Y-106683674D01*
X186944000Y-108356325D01*
G37*
%TD.AperFunction*%
%TA.AperFunction,Conductor*%
G36*
X199967121Y-104160002D02*
G01*
X200013614Y-104213658D01*
X200025000Y-104266000D01*
X200025000Y-115444000D01*
X200004998Y-115512121D01*
X199951342Y-115558614D01*
X199899000Y-115570000D01*
X183641000Y-115570000D01*
X183572879Y-115549998D01*
X183526386Y-115496342D01*
X183515000Y-115444000D01*
X183515000Y-107145222D01*
X185332000Y-107145222D01*
X185332359Y-107151936D01*
X185338505Y-107209093D01*
X185389554Y-107345962D01*
X185477095Y-107462904D01*
X185594037Y-107550445D01*
X185709678Y-107593577D01*
X185766514Y-107636124D01*
X185791325Y-107702644D01*
X185776234Y-107772018D01*
X185758348Y-107796970D01*
X185614675Y-107953040D01*
X185491580Y-108141451D01*
X185401177Y-108347548D01*
X185353455Y-108535999D01*
X185353456Y-108536000D01*
X186258884Y-108536000D01*
X186230507Y-108580156D01*
X186190000Y-108718111D01*
X186190000Y-108861889D01*
X186230507Y-108999844D01*
X186258884Y-109044000D01*
X185353455Y-109044000D01*
X185401177Y-109232451D01*
X185491580Y-109438548D01*
X185614678Y-109626962D01*
X185767096Y-109792533D01*
X185944697Y-109930766D01*
X185978732Y-109949184D01*
X186029123Y-109999197D01*
X186044476Y-110068513D01*
X186019916Y-110135127D01*
X185978736Y-110170811D01*
X185944702Y-110189229D01*
X185767096Y-110327466D01*
X185614678Y-110493037D01*
X185491580Y-110681451D01*
X185401177Y-110887548D01*
X185353455Y-111075999D01*
X185353456Y-111076000D01*
X186258884Y-111076000D01*
X186230507Y-111120156D01*
X186190000Y-111258111D01*
X186190000Y-111401889D01*
X186230507Y-111539844D01*
X186258884Y-111584000D01*
X185353455Y-111584000D01*
X185401177Y-111772451D01*
X185491580Y-111978548D01*
X185614678Y-112166962D01*
X185767096Y-112332533D01*
X185944697Y-112470766D01*
X185978734Y-112489186D01*
X186029124Y-112539200D01*
X186044476Y-112608517D01*
X186019915Y-112675130D01*
X185978734Y-112710814D01*
X185944697Y-112729233D01*
X185767096Y-112867466D01*
X185614678Y-113033037D01*
X185491580Y-113221451D01*
X185401177Y-113427548D01*
X185353455Y-113615999D01*
X185353456Y-113616000D01*
X186258884Y-113616000D01*
X186230507Y-113660156D01*
X186190000Y-113798111D01*
X186190000Y-113941889D01*
X186230507Y-114079844D01*
X186258884Y-114124000D01*
X185353455Y-114124000D01*
X185401177Y-114312451D01*
X185491580Y-114518548D01*
X185614678Y-114706962D01*
X185767096Y-114872533D01*
X185944697Y-115010766D01*
X186142631Y-115117883D01*
X186355485Y-115190955D01*
X186436000Y-115204391D01*
X186436000Y-114303674D01*
X186547685Y-114354680D01*
X186654237Y-114370000D01*
X186725763Y-114370000D01*
X186832315Y-114354680D01*
X186944000Y-114303674D01*
X186944000Y-115204390D01*
X187024514Y-115190955D01*
X187237368Y-115117883D01*
X187435302Y-115010766D01*
X187612903Y-114872533D01*
X187765321Y-114706962D01*
X187888419Y-114518548D01*
X187978822Y-114312451D01*
X188026544Y-114124000D01*
X187121116Y-114124000D01*
X187149493Y-114079844D01*
X187190000Y-113941889D01*
X187190000Y-113798111D01*
X187149493Y-113660156D01*
X187121116Y-113616000D01*
X188026544Y-113616000D01*
X188026544Y-113615999D01*
X187978822Y-113427548D01*
X187888419Y-113221451D01*
X187765321Y-113033037D01*
X187612903Y-112867466D01*
X187435300Y-112729232D01*
X187401266Y-112710814D01*
X187350876Y-112660801D01*
X187335523Y-112591485D01*
X187360083Y-112524871D01*
X187401266Y-112489186D01*
X187435300Y-112470767D01*
X187612903Y-112332533D01*
X187765321Y-112166962D01*
X187888419Y-111978548D01*
X187978822Y-111772451D01*
X188026544Y-111584000D01*
X187121116Y-111584000D01*
X187149493Y-111539844D01*
X187190000Y-111401889D01*
X187190000Y-111258111D01*
X187149493Y-111120156D01*
X187121116Y-111076000D01*
X188026544Y-111076000D01*
X188026544Y-111075999D01*
X187978822Y-110887548D01*
X187888419Y-110681451D01*
X187765321Y-110493037D01*
X187612903Y-110327466D01*
X187435300Y-110189232D01*
X187401266Y-110170814D01*
X187350876Y-110120801D01*
X187335523Y-110051485D01*
X187360083Y-109984871D01*
X187401266Y-109949186D01*
X187435300Y-109930767D01*
X187612903Y-109792533D01*
X187765321Y-109626962D01*
X187888419Y-109438548D01*
X187978822Y-109232451D01*
X188026544Y-109044000D01*
X187121116Y-109044000D01*
X187149493Y-108999844D01*
X187190000Y-108861889D01*
X187190000Y-108718111D01*
X187149493Y-108580156D01*
X187121116Y-108536000D01*
X188026544Y-108536000D01*
X188026544Y-108535999D01*
X187978822Y-108347548D01*
X187888419Y-108141451D01*
X187765321Y-107953037D01*
X187621652Y-107796970D01*
X187590231Y-107733305D01*
X187598218Y-107662759D01*
X187643077Y-107607730D01*
X187670321Y-107593577D01*
X187785962Y-107550445D01*
X187902904Y-107462904D01*
X187990445Y-107345962D01*
X188041494Y-107209093D01*
X188047640Y-107151936D01*
X188048000Y-107145222D01*
X188048000Y-106504000D01*
X187121116Y-106504000D01*
X187149493Y-106459844D01*
X187190000Y-106321889D01*
X187190000Y-106178111D01*
X187149493Y-106040156D01*
X187121116Y-105996000D01*
X188048000Y-105996000D01*
X188048000Y-105354777D01*
X188047640Y-105348063D01*
X188041494Y-105290906D01*
X187990445Y-105154037D01*
X187902904Y-105037095D01*
X187785962Y-104949554D01*
X187649093Y-104898505D01*
X187591936Y-104892359D01*
X187585223Y-104892000D01*
X186944000Y-104892000D01*
X186944000Y-105816325D01*
X186832315Y-105765320D01*
X186725763Y-105750000D01*
X186654237Y-105750000D01*
X186547685Y-105765320D01*
X186436000Y-105816325D01*
X186436000Y-104892000D01*
X185794777Y-104892000D01*
X185788063Y-104892359D01*
X185730906Y-104898505D01*
X185594037Y-104949554D01*
X185477095Y-105037095D01*
X185389554Y-105154037D01*
X185338505Y-105290906D01*
X185332359Y-105348063D01*
X185332000Y-105354777D01*
X185332000Y-105996000D01*
X186258884Y-105996000D01*
X186230507Y-106040156D01*
X186190000Y-106178111D01*
X186190000Y-106321889D01*
X186230507Y-106459844D01*
X186258884Y-106504000D01*
X185332000Y-106504000D01*
X185332000Y-107145222D01*
X183515000Y-107145222D01*
X183515000Y-104266000D01*
X183535002Y-104197879D01*
X183588658Y-104151386D01*
X183641000Y-104140000D01*
X199899000Y-104140000D01*
X199967121Y-104160002D01*
G37*
%TD.AperFunction*%
%TD*%
%TA.AperFunction,Conductor*%
%TO.N,GND*%
G36*
X105381570Y-122863365D02*
G01*
X105545130Y-123054870D01*
X105736635Y-123218430D01*
X105739203Y-123220004D01*
X105165745Y-123793461D01*
X105218439Y-123714601D01*
X105237842Y-123617056D01*
X105218439Y-123519511D01*
X105163184Y-123436816D01*
X105080489Y-123381561D01*
X105007568Y-123367056D01*
X104958320Y-123367056D01*
X104885399Y-123381561D01*
X104806529Y-123434259D01*
X105379994Y-122860794D01*
X105381570Y-122863365D01*
G37*
%TD.AperFunction*%
%TA.AperFunction,Conductor*%
G36*
X108553465Y-123434256D02*
G01*
X108474601Y-123381561D01*
X108401680Y-123367056D01*
X108352432Y-123367056D01*
X108279511Y-123381561D01*
X108196816Y-123436816D01*
X108141561Y-123519511D01*
X108122158Y-123617056D01*
X108141561Y-123714601D01*
X108194256Y-123793465D01*
X107620795Y-123220004D01*
X107623365Y-123218430D01*
X107814870Y-123054870D01*
X107978430Y-122863365D01*
X107980004Y-122860795D01*
X108553465Y-123434256D01*
G37*
%TD.AperFunction*%
%TA.AperFunction,Conductor*%
G36*
X105739204Y-120619995D02*
G01*
X105736635Y-120621570D01*
X105545130Y-120785130D01*
X105381570Y-120976635D01*
X105379995Y-120979204D01*
X104806534Y-120405743D01*
X104885399Y-120458439D01*
X104958320Y-120472944D01*
X105007568Y-120472944D01*
X105080489Y-120458439D01*
X105163184Y-120403184D01*
X105218439Y-120320489D01*
X105237842Y-120222944D01*
X105218439Y-120125399D01*
X105165743Y-120046534D01*
X105739204Y-120619995D01*
G37*
%TD.AperFunction*%
%TA.AperFunction,Conductor*%
G36*
X108141561Y-120125399D02*
G01*
X108122158Y-120222944D01*
X108141561Y-120320489D01*
X108196816Y-120403184D01*
X108279511Y-120458439D01*
X108352432Y-120472944D01*
X108401680Y-120472944D01*
X108474601Y-120458439D01*
X108553460Y-120405746D01*
X107980004Y-120979203D01*
X107978430Y-120976635D01*
X107814870Y-120785130D01*
X107623365Y-120621570D01*
X107620795Y-120619995D01*
X108194259Y-120046530D01*
X108141561Y-120125399D01*
G37*
%TD.AperFunction*%
%TA.AperFunction,Conductor*%
G36*
X194281570Y-122863365D02*
G01*
X194445130Y-123054870D01*
X194636635Y-123218430D01*
X194639203Y-123220004D01*
X194065745Y-123793461D01*
X194118439Y-123714601D01*
X194137842Y-123617056D01*
X194118439Y-123519511D01*
X194063184Y-123436816D01*
X193980489Y-123381561D01*
X193907568Y-123367056D01*
X193858320Y-123367056D01*
X193785399Y-123381561D01*
X193706529Y-123434259D01*
X194279994Y-122860794D01*
X194281570Y-122863365D01*
G37*
%TD.AperFunction*%
%TA.AperFunction,Conductor*%
G36*
X197453465Y-123434256D02*
G01*
X197374601Y-123381561D01*
X197301680Y-123367056D01*
X197252432Y-123367056D01*
X197179511Y-123381561D01*
X197096816Y-123436816D01*
X197041561Y-123519511D01*
X197022158Y-123617056D01*
X197041561Y-123714601D01*
X197094256Y-123793465D01*
X196520795Y-123220004D01*
X196523365Y-123218430D01*
X196714870Y-123054870D01*
X196878430Y-122863365D01*
X196880004Y-122860795D01*
X197453465Y-123434256D01*
G37*
%TD.AperFunction*%
%TA.AperFunction,Conductor*%
G36*
X194639204Y-120619995D02*
G01*
X194636635Y-120621570D01*
X194445130Y-120785130D01*
X194281570Y-120976635D01*
X194279995Y-120979204D01*
X193706534Y-120405743D01*
X193785399Y-120458439D01*
X193858320Y-120472944D01*
X193907568Y-120472944D01*
X193980489Y-120458439D01*
X194063184Y-120403184D01*
X194118439Y-120320489D01*
X194137842Y-120222944D01*
X194118439Y-120125399D01*
X194065743Y-120046534D01*
X194639204Y-120619995D01*
G37*
%TD.AperFunction*%
%TA.AperFunction,Conductor*%
G36*
X197041561Y-120125399D02*
G01*
X197022158Y-120222944D01*
X197041561Y-120320489D01*
X197096816Y-120403184D01*
X197179511Y-120458439D01*
X197252432Y-120472944D01*
X197301680Y-120472944D01*
X197374601Y-120458439D01*
X197453460Y-120405746D01*
X196880004Y-120979203D01*
X196878430Y-120976635D01*
X196714870Y-120785130D01*
X196523365Y-120621570D01*
X196520795Y-120619995D01*
X197094259Y-120046530D01*
X197041561Y-120125399D01*
G37*
%TD.AperFunction*%
%TA.AperFunction,Conductor*%
G36*
X105381570Y-84763365D02*
G01*
X105545130Y-84954870D01*
X105736635Y-85118430D01*
X105739203Y-85120004D01*
X105165745Y-85693461D01*
X105218439Y-85614601D01*
X105237842Y-85517056D01*
X105218439Y-85419511D01*
X105163184Y-85336816D01*
X105080489Y-85281561D01*
X105007568Y-85267056D01*
X104958320Y-85267056D01*
X104885399Y-85281561D01*
X104806529Y-85334259D01*
X105379994Y-84760794D01*
X105381570Y-84763365D01*
G37*
%TD.AperFunction*%
%TA.AperFunction,Conductor*%
G36*
X108553465Y-85334256D02*
G01*
X108474601Y-85281561D01*
X108401680Y-85267056D01*
X108352432Y-85267056D01*
X108279511Y-85281561D01*
X108196816Y-85336816D01*
X108141561Y-85419511D01*
X108122158Y-85517056D01*
X108141561Y-85614601D01*
X108194256Y-85693465D01*
X107620795Y-85120004D01*
X107623365Y-85118430D01*
X107814870Y-84954870D01*
X107978430Y-84763365D01*
X107980004Y-84760795D01*
X108553465Y-85334256D01*
G37*
%TD.AperFunction*%
%TA.AperFunction,Conductor*%
G36*
X105739204Y-82519995D02*
G01*
X105736635Y-82521570D01*
X105545130Y-82685130D01*
X105381570Y-82876635D01*
X105379995Y-82879204D01*
X104806535Y-82305744D01*
X104885399Y-82358439D01*
X104958320Y-82372944D01*
X105007568Y-82372944D01*
X105080489Y-82358439D01*
X105163184Y-82303184D01*
X105218439Y-82220489D01*
X105237842Y-82122944D01*
X105218439Y-82025399D01*
X105165744Y-81946535D01*
X105739204Y-82519995D01*
G37*
%TD.AperFunction*%
%TA.AperFunction,Conductor*%
G36*
X108141561Y-82025399D02*
G01*
X108122158Y-82122944D01*
X108141561Y-82220489D01*
X108196816Y-82303184D01*
X108279511Y-82358439D01*
X108352432Y-82372944D01*
X108401680Y-82372944D01*
X108474601Y-82358439D01*
X108553460Y-82305746D01*
X107980004Y-82879203D01*
X107978430Y-82876635D01*
X107814870Y-82685130D01*
X107623365Y-82521570D01*
X107620794Y-82519994D01*
X108194259Y-81946529D01*
X108141561Y-82025399D01*
G37*
%TD.AperFunction*%
%TA.AperFunction,Conductor*%
G36*
X194281570Y-84763365D02*
G01*
X194445130Y-84954870D01*
X194636635Y-85118430D01*
X194639203Y-85120004D01*
X194065745Y-85693461D01*
X194118439Y-85614601D01*
X194137842Y-85517056D01*
X194118439Y-85419511D01*
X194063184Y-85336816D01*
X193980489Y-85281561D01*
X193907568Y-85267056D01*
X193858320Y-85267056D01*
X193785399Y-85281561D01*
X193706529Y-85334259D01*
X194279994Y-84760794D01*
X194281570Y-84763365D01*
G37*
%TD.AperFunction*%
%TA.AperFunction,Conductor*%
G36*
X197453465Y-85334256D02*
G01*
X197374601Y-85281561D01*
X197301680Y-85267056D01*
X197252432Y-85267056D01*
X197179511Y-85281561D01*
X197096816Y-85336816D01*
X197041561Y-85419511D01*
X197022158Y-85517056D01*
X197041561Y-85614601D01*
X197094256Y-85693465D01*
X196520795Y-85120004D01*
X196523365Y-85118430D01*
X196714870Y-84954870D01*
X196878430Y-84763365D01*
X196880004Y-84760795D01*
X197453465Y-85334256D01*
G37*
%TD.AperFunction*%
%TA.AperFunction,Conductor*%
G36*
X194639204Y-82519995D02*
G01*
X194636635Y-82521570D01*
X194445130Y-82685130D01*
X194281570Y-82876635D01*
X194279995Y-82879204D01*
X193706535Y-82305744D01*
X193785399Y-82358439D01*
X193858320Y-82372944D01*
X193907568Y-82372944D01*
X193980489Y-82358439D01*
X194063184Y-82303184D01*
X194118439Y-82220489D01*
X194137842Y-82122944D01*
X194118439Y-82025399D01*
X194065743Y-81946534D01*
X194639204Y-82519995D01*
G37*
%TD.AperFunction*%
%TA.AperFunction,Conductor*%
G36*
X197041561Y-82025399D02*
G01*
X197022158Y-82122944D01*
X197041561Y-82220489D01*
X197096816Y-82303184D01*
X197179511Y-82358439D01*
X197252432Y-82372944D01*
X197301680Y-82372944D01*
X197374601Y-82358439D01*
X197453460Y-82305746D01*
X196880004Y-82879203D01*
X196878430Y-82876635D01*
X196714870Y-82685130D01*
X196523365Y-82521570D01*
X196520795Y-82519995D01*
X197094259Y-81946530D01*
X197041561Y-82025399D01*
G37*
%TD.AperFunction*%
%TA.AperFunction,Conductor*%
G36*
X200601621Y-78760502D02*
G01*
X200648114Y-78814158D01*
X200659500Y-78866500D01*
X200659500Y-89244428D01*
X200639498Y-89312549D01*
X200585842Y-89359042D01*
X200515568Y-89369146D01*
X200450988Y-89339652D01*
X200427502Y-89312549D01*
X200417756Y-89297385D01*
X200401692Y-89272388D01*
X200365581Y-89230713D01*
X200360846Y-89223624D01*
X200244739Y-89123018D01*
X200148988Y-89079290D01*
X200111790Y-89062302D01*
X200055184Y-89045681D01*
X200043673Y-89042301D01*
X200043671Y-89042300D01*
X200043669Y-89042300D01*
X199899000Y-89021500D01*
X183641000Y-89021500D01*
X183637653Y-89021859D01*
X183637649Y-89021860D01*
X183535214Y-89032872D01*
X183535205Y-89032873D01*
X183531851Y-89033234D01*
X183528551Y-89033951D01*
X183528550Y-89033952D01*
X183482790Y-89043906D01*
X183482785Y-89043907D01*
X183479509Y-89044620D01*
X183476331Y-89045677D01*
X183476319Y-89045681D01*
X183375341Y-89079290D01*
X183252389Y-89158306D01*
X183210714Y-89194418D01*
X183203625Y-89199152D01*
X183103018Y-89315260D01*
X183042302Y-89448210D01*
X183022300Y-89516331D01*
X183001500Y-89661000D01*
X183001500Y-90800500D01*
X183001500Y-92491181D01*
X183001500Y-93417500D01*
X183001500Y-100839000D01*
X183013234Y-100948149D01*
X183024620Y-101000491D01*
X183025679Y-101003673D01*
X183025681Y-101003680D01*
X183059290Y-101104658D01*
X183138306Y-101227610D01*
X183174417Y-101269284D01*
X183179153Y-101276375D01*
X183184801Y-101281269D01*
X183184802Y-101281270D01*
X183295261Y-101376982D01*
X183428210Y-101437698D01*
X183496331Y-101457700D01*
X183641000Y-101478500D01*
X183641003Y-101478500D01*
X199895631Y-101478500D01*
X199899000Y-101478500D01*
X200008149Y-101466766D01*
X200060491Y-101455380D01*
X200164657Y-101420710D01*
X200287612Y-101341692D01*
X200329288Y-101305579D01*
X200336377Y-101300845D01*
X200438275Y-101183247D01*
X200498000Y-101144862D01*
X200568997Y-101144862D01*
X200628724Y-101183245D01*
X200658217Y-101247825D01*
X200659500Y-101265758D01*
X200659500Y-103849428D01*
X200639498Y-103917549D01*
X200585842Y-103964042D01*
X200515568Y-103974146D01*
X200450988Y-103944652D01*
X200427502Y-103917549D01*
X200401691Y-103877387D01*
X200365581Y-103835713D01*
X200360846Y-103828624D01*
X200244739Y-103728018D01*
X200148988Y-103684290D01*
X200111790Y-103667302D01*
X200055184Y-103650681D01*
X200043673Y-103647301D01*
X200043671Y-103647300D01*
X200043669Y-103647300D01*
X199899000Y-103626500D01*
X183641000Y-103626500D01*
X183637653Y-103626859D01*
X183637649Y-103626860D01*
X183535214Y-103637872D01*
X183535205Y-103637873D01*
X183531851Y-103638234D01*
X183528551Y-103638951D01*
X183528550Y-103638952D01*
X183482790Y-103648906D01*
X183482785Y-103648907D01*
X183479509Y-103649620D01*
X183476331Y-103650677D01*
X183476319Y-103650681D01*
X183375341Y-103684290D01*
X183252389Y-103763306D01*
X183210714Y-103799418D01*
X183203625Y-103804152D01*
X183103018Y-103920260D01*
X183042302Y-104053210D01*
X183022300Y-104121331D01*
X183001500Y-104266000D01*
X183001500Y-105405500D01*
X183001500Y-107096181D01*
X183001500Y-108022500D01*
X183001500Y-115444000D01*
X183013234Y-115553149D01*
X183024620Y-115605491D01*
X183025679Y-115608673D01*
X183025681Y-115608680D01*
X183059290Y-115709658D01*
X183138306Y-115832610D01*
X183174417Y-115874284D01*
X183179153Y-115881375D01*
X183184801Y-115886269D01*
X183184802Y-115886270D01*
X183295261Y-115981982D01*
X183428210Y-116042698D01*
X183496331Y-116062700D01*
X183641000Y-116083500D01*
X183641003Y-116083500D01*
X199895631Y-116083500D01*
X199899000Y-116083500D01*
X200008149Y-116071766D01*
X200060491Y-116060380D01*
X200164657Y-116025710D01*
X200287612Y-115946692D01*
X200329288Y-115910579D01*
X200336377Y-115905845D01*
X200438275Y-115788247D01*
X200498000Y-115749862D01*
X200568997Y-115749862D01*
X200628724Y-115788245D01*
X200658217Y-115852825D01*
X200659500Y-115870758D01*
X200659500Y-126873500D01*
X200639498Y-126941621D01*
X200585842Y-126988114D01*
X200533500Y-126999500D01*
X101726500Y-126999500D01*
X101658379Y-126979498D01*
X101611886Y-126925842D01*
X101600500Y-126873500D01*
X101600500Y-121923300D01*
X102967084Y-121923300D01*
X102987079Y-122304832D01*
X102987766Y-122311370D01*
X103047534Y-122688734D01*
X103048905Y-122695184D01*
X103147787Y-123064215D01*
X103149829Y-123070498D01*
X103286739Y-123427164D01*
X103289421Y-123433188D01*
X103462873Y-123773605D01*
X103466169Y-123779314D01*
X103674248Y-124099727D01*
X103678130Y-124105070D01*
X103882876Y-124357911D01*
X103882877Y-124357912D01*
X104800147Y-123440641D01*
X104747449Y-123519511D01*
X104728046Y-123617056D01*
X104747449Y-123714601D01*
X104802704Y-123797296D01*
X104885399Y-123852551D01*
X104958320Y-123867056D01*
X105007568Y-123867056D01*
X105080489Y-123852551D01*
X105159349Y-123799857D01*
X104242086Y-124717121D01*
X104242087Y-124717122D01*
X104494929Y-124921869D01*
X104500272Y-124925751D01*
X104820685Y-125133830D01*
X104826394Y-125137126D01*
X105166811Y-125310578D01*
X105172835Y-125313260D01*
X105529501Y-125450170D01*
X105535784Y-125452212D01*
X105904815Y-125551094D01*
X105911265Y-125552465D01*
X106288629Y-125612233D01*
X106295167Y-125612920D01*
X106676699Y-125632916D01*
X106683301Y-125632916D01*
X107064832Y-125612920D01*
X107071370Y-125612233D01*
X107448734Y-125552465D01*
X107455184Y-125551094D01*
X107824215Y-125452212D01*
X107830498Y-125450170D01*
X108187164Y-125313260D01*
X108193188Y-125310578D01*
X108533605Y-125137126D01*
X108539314Y-125133830D01*
X108859728Y-124925751D01*
X108865064Y-124921874D01*
X109117912Y-124717121D01*
X108200646Y-123799855D01*
X108279511Y-123852551D01*
X108352432Y-123867056D01*
X108401680Y-123867056D01*
X108474601Y-123852551D01*
X108557296Y-123797296D01*
X108612551Y-123714601D01*
X108631954Y-123617056D01*
X108612551Y-123519511D01*
X108559855Y-123440646D01*
X109477121Y-124357912D01*
X109681874Y-124105064D01*
X109685751Y-124099728D01*
X109893830Y-123779314D01*
X109897126Y-123773605D01*
X110070578Y-123433188D01*
X110073260Y-123427164D01*
X110210170Y-123070498D01*
X110212212Y-123064215D01*
X110311094Y-122695184D01*
X110312465Y-122688734D01*
X110372233Y-122311370D01*
X110372920Y-122304832D01*
X110392916Y-121923300D01*
X191867084Y-121923300D01*
X191887079Y-122304832D01*
X191887766Y-122311370D01*
X191947534Y-122688734D01*
X191948905Y-122695184D01*
X192047787Y-123064215D01*
X192049829Y-123070498D01*
X192186739Y-123427164D01*
X192189421Y-123433188D01*
X192362873Y-123773605D01*
X192366169Y-123779314D01*
X192574248Y-124099727D01*
X192578130Y-124105070D01*
X192782876Y-124357911D01*
X192782877Y-124357912D01*
X193700147Y-123440641D01*
X193647449Y-123519511D01*
X193628046Y-123617056D01*
X193647449Y-123714601D01*
X193702704Y-123797296D01*
X193785399Y-123852551D01*
X193858320Y-123867056D01*
X193907568Y-123867056D01*
X193980489Y-123852551D01*
X194059349Y-123799857D01*
X193142086Y-124717121D01*
X193142087Y-124717122D01*
X193394929Y-124921869D01*
X193400272Y-124925751D01*
X193720685Y-125133830D01*
X193726394Y-125137126D01*
X194066811Y-125310578D01*
X194072835Y-125313260D01*
X194429501Y-125450170D01*
X194435784Y-125452212D01*
X194804815Y-125551094D01*
X194811265Y-125552465D01*
X195188629Y-125612233D01*
X195195167Y-125612920D01*
X195576699Y-125632916D01*
X195583301Y-125632916D01*
X195964832Y-125612920D01*
X195971370Y-125612233D01*
X196348734Y-125552465D01*
X196355184Y-125551094D01*
X196724215Y-125452212D01*
X196730498Y-125450170D01*
X197087164Y-125313260D01*
X197093188Y-125310578D01*
X197433605Y-125137126D01*
X197439314Y-125133830D01*
X197759728Y-124925751D01*
X197765064Y-124921874D01*
X198017912Y-124717121D01*
X197100646Y-123799855D01*
X197179511Y-123852551D01*
X197252432Y-123867056D01*
X197301680Y-123867056D01*
X197374601Y-123852551D01*
X197457296Y-123797296D01*
X197512551Y-123714601D01*
X197531954Y-123617056D01*
X197512551Y-123519511D01*
X197459855Y-123440646D01*
X198377121Y-124357912D01*
X198581874Y-124105064D01*
X198585751Y-124099728D01*
X198793830Y-123779314D01*
X198797126Y-123773605D01*
X198970578Y-123433188D01*
X198973260Y-123427164D01*
X199110170Y-123070498D01*
X199112212Y-123064215D01*
X199211094Y-122695184D01*
X199212465Y-122688734D01*
X199272233Y-122311370D01*
X199272920Y-122304832D01*
X199292916Y-121923300D01*
X199292916Y-121916699D01*
X199272920Y-121535167D01*
X199272233Y-121528629D01*
X199212465Y-121151265D01*
X199211094Y-121144815D01*
X199112212Y-120775784D01*
X199110170Y-120769501D01*
X198973260Y-120412835D01*
X198970578Y-120406811D01*
X198797127Y-120066397D01*
X198793830Y-120060686D01*
X198585753Y-119740275D01*
X198581865Y-119734924D01*
X198377122Y-119482087D01*
X198377121Y-119482086D01*
X197459858Y-120399348D01*
X197512551Y-120320489D01*
X197531954Y-120222944D01*
X197512551Y-120125399D01*
X197457296Y-120042704D01*
X197374601Y-119987449D01*
X197301680Y-119972944D01*
X197252432Y-119972944D01*
X197179511Y-119987449D01*
X197100642Y-120040147D01*
X198017912Y-119122877D01*
X198017911Y-119122876D01*
X197765070Y-118918130D01*
X197759727Y-118914248D01*
X197439314Y-118706169D01*
X197433605Y-118702873D01*
X197093188Y-118529421D01*
X197087164Y-118526739D01*
X196730498Y-118389829D01*
X196724215Y-118387787D01*
X196355184Y-118288905D01*
X196348734Y-118287534D01*
X195971370Y-118227766D01*
X195964832Y-118227079D01*
X195583301Y-118207084D01*
X195576699Y-118207084D01*
X195195167Y-118227079D01*
X195188629Y-118227766D01*
X194811265Y-118287534D01*
X194804815Y-118288905D01*
X194435784Y-118387787D01*
X194429501Y-118389829D01*
X194072835Y-118526739D01*
X194066811Y-118529421D01*
X193726397Y-118702872D01*
X193720686Y-118706169D01*
X193400267Y-118914251D01*
X193394938Y-118918123D01*
X193142086Y-119122877D01*
X194059353Y-120040144D01*
X193980489Y-119987449D01*
X193907568Y-119972944D01*
X193858320Y-119972944D01*
X193785399Y-119987449D01*
X193702704Y-120042704D01*
X193647449Y-120125399D01*
X193628046Y-120222944D01*
X193647449Y-120320489D01*
X193700144Y-120399353D01*
X192782877Y-119482086D01*
X192578123Y-119734938D01*
X192574251Y-119740267D01*
X192366169Y-120060686D01*
X192362872Y-120066397D01*
X192189421Y-120406811D01*
X192186739Y-120412835D01*
X192049829Y-120769501D01*
X192047787Y-120775784D01*
X191948905Y-121144815D01*
X191947534Y-121151265D01*
X191887766Y-121528629D01*
X191887079Y-121535167D01*
X191867084Y-121916699D01*
X191867084Y-121923300D01*
X110392916Y-121923300D01*
X110392916Y-121916699D01*
X110372920Y-121535167D01*
X110372233Y-121528629D01*
X110312465Y-121151265D01*
X110311094Y-121144815D01*
X110212212Y-120775784D01*
X110210170Y-120769501D01*
X110073260Y-120412835D01*
X110070578Y-120406811D01*
X109897127Y-120066397D01*
X109893830Y-120060686D01*
X109685753Y-119740275D01*
X109681865Y-119734924D01*
X109477122Y-119482087D01*
X109477121Y-119482086D01*
X108559858Y-120399348D01*
X108612551Y-120320489D01*
X108631954Y-120222944D01*
X108612551Y-120125399D01*
X108557296Y-120042704D01*
X108474601Y-119987449D01*
X108401680Y-119972944D01*
X108352432Y-119972944D01*
X108279511Y-119987449D01*
X108200642Y-120040147D01*
X109117912Y-119122877D01*
X109117911Y-119122876D01*
X108865070Y-118918130D01*
X108859727Y-118914248D01*
X108539314Y-118706169D01*
X108533605Y-118702873D01*
X108193188Y-118529421D01*
X108187164Y-118526739D01*
X107830498Y-118389829D01*
X107824215Y-118387787D01*
X107455184Y-118288905D01*
X107448734Y-118287534D01*
X107071370Y-118227766D01*
X107064832Y-118227079D01*
X106683301Y-118207084D01*
X106676699Y-118207084D01*
X106295167Y-118227079D01*
X106288629Y-118227766D01*
X105911265Y-118287534D01*
X105904815Y-118288905D01*
X105535784Y-118387787D01*
X105529501Y-118389829D01*
X105172835Y-118526739D01*
X105166811Y-118529421D01*
X104826397Y-118702872D01*
X104820686Y-118706169D01*
X104500267Y-118914251D01*
X104494938Y-118918123D01*
X104242086Y-119122877D01*
X105159353Y-120040144D01*
X105080489Y-119987449D01*
X105007568Y-119972944D01*
X104958320Y-119972944D01*
X104885399Y-119987449D01*
X104802704Y-120042704D01*
X104747449Y-120125399D01*
X104728046Y-120222944D01*
X104747449Y-120320489D01*
X104800144Y-120399353D01*
X103882877Y-119482086D01*
X103678123Y-119734938D01*
X103674251Y-119740267D01*
X103466169Y-120060686D01*
X103462872Y-120066397D01*
X103289421Y-120406811D01*
X103286739Y-120412835D01*
X103149829Y-120769501D01*
X103147787Y-120775784D01*
X103048905Y-121144815D01*
X103047534Y-121151265D01*
X102987766Y-121528629D01*
X102987079Y-121535167D01*
X102967084Y-121916699D01*
X102967084Y-121923300D01*
X101600500Y-121923300D01*
X101600500Y-104140000D01*
X102235000Y-104140000D01*
X102235000Y-115570000D01*
X120015000Y-115570000D01*
X120015000Y-104140000D01*
X102235000Y-104140000D01*
X101600500Y-104140000D01*
X101600500Y-102235000D01*
X161011496Y-102235000D01*
X161031458Y-102424929D01*
X161090472Y-102606556D01*
X161185958Y-102771942D01*
X161185960Y-102771944D01*
X161313747Y-102913866D01*
X161468248Y-103026118D01*
X161642712Y-103103794D01*
X161829513Y-103143500D01*
X161829515Y-103143500D01*
X162020485Y-103143500D01*
X162020487Y-103143500D01*
X162207288Y-103103794D01*
X162381752Y-103026118D01*
X162536253Y-102913866D01*
X162664040Y-102771944D01*
X162759527Y-102606556D01*
X162818542Y-102424928D01*
X162838504Y-102235000D01*
X162818542Y-102045072D01*
X162777183Y-101917785D01*
X162775156Y-101846821D01*
X162807920Y-101789759D01*
X164237680Y-100359999D01*
X170566496Y-100359999D01*
X170586458Y-100549929D01*
X170645472Y-100731556D01*
X170740958Y-100896942D01*
X170740960Y-100896944D01*
X170868747Y-101038866D01*
X171023248Y-101151118D01*
X171197712Y-101228794D01*
X171384513Y-101268500D01*
X171384515Y-101268500D01*
X171575485Y-101268500D01*
X171575487Y-101268500D01*
X171762288Y-101228794D01*
X171936752Y-101151118D01*
X172091253Y-101038866D01*
X172219040Y-100896944D01*
X172314527Y-100731556D01*
X172369388Y-100562711D01*
X172400124Y-100512555D01*
X176613275Y-96299405D01*
X176675588Y-96265379D01*
X176702371Y-96262500D01*
X178527414Y-96262500D01*
X178595535Y-96282502D01*
X178601448Y-96286545D01*
X178613248Y-96295118D01*
X178787712Y-96372794D01*
X178974513Y-96412500D01*
X178974515Y-96412500D01*
X179165485Y-96412500D01*
X179165487Y-96412500D01*
X179352288Y-96372794D01*
X179526752Y-96295118D01*
X179681253Y-96182866D01*
X179809040Y-96040944D01*
X179904527Y-95875556D01*
X179963542Y-95693928D01*
X179983504Y-95504000D01*
X179963542Y-95314072D01*
X179904527Y-95132444D01*
X179904527Y-95132443D01*
X179809041Y-94967057D01*
X179681252Y-94825133D01*
X179577162Y-94749507D01*
X179526752Y-94712882D01*
X179352288Y-94635206D01*
X179165487Y-94595500D01*
X178974513Y-94595500D01*
X178849978Y-94621970D01*
X178787711Y-94635206D01*
X178700480Y-94674044D01*
X178613248Y-94712882D01*
X178601472Y-94721437D01*
X178534608Y-94745294D01*
X178527414Y-94745500D01*
X176400441Y-94745500D01*
X176382180Y-94744170D01*
X176358211Y-94740659D01*
X176308353Y-94745021D01*
X176297372Y-94745500D01*
X176291820Y-94745500D01*
X176288185Y-94745924D01*
X176288165Y-94745926D01*
X176260709Y-94749135D01*
X176257068Y-94749507D01*
X176180251Y-94756228D01*
X176161135Y-94760466D01*
X176088659Y-94786844D01*
X176085202Y-94788046D01*
X176011999Y-94812304D01*
X175994372Y-94820838D01*
X175929918Y-94863229D01*
X175926831Y-94865196D01*
X175861218Y-94905667D01*
X175846032Y-94918038D01*
X175793087Y-94974156D01*
X175790534Y-94976783D01*
X171323667Y-99443650D01*
X171261355Y-99477676D01*
X171260771Y-99477801D01*
X171197714Y-99491205D01*
X171197711Y-99491206D01*
X171197712Y-99491206D01*
X171031741Y-99565101D01*
X171023246Y-99568883D01*
X170868747Y-99681133D01*
X170740958Y-99823057D01*
X170645472Y-99988443D01*
X170586458Y-100170070D01*
X170566496Y-100359999D01*
X164237680Y-100359999D01*
X164955777Y-99641902D01*
X164969624Y-99629936D01*
X164989058Y-99615469D01*
X165021221Y-99577138D01*
X165028660Y-99569020D01*
X165032580Y-99565101D01*
X165052070Y-99540450D01*
X165054234Y-99537794D01*
X165103032Y-99479640D01*
X165103035Y-99479633D01*
X165103895Y-99478609D01*
X165114403Y-99462114D01*
X165114965Y-99460908D01*
X165114967Y-99460906D01*
X165147022Y-99392159D01*
X165148572Y-99388958D01*
X165182609Y-99321188D01*
X165182610Y-99321183D01*
X165183207Y-99319995D01*
X165189631Y-99301517D01*
X165189901Y-99300209D01*
X165189902Y-99300207D01*
X165205251Y-99225866D01*
X165206001Y-99222484D01*
X165223500Y-99148656D01*
X165223500Y-99148651D01*
X165223807Y-99147356D01*
X165225796Y-99127888D01*
X165225757Y-99126560D01*
X165225758Y-99126558D01*
X165223553Y-99050774D01*
X165223500Y-99047110D01*
X165223500Y-96421999D01*
X165240380Y-96359000D01*
X165299527Y-96256556D01*
X165358542Y-96074928D01*
X165378504Y-95885000D01*
X165358542Y-95695072D01*
X165299527Y-95513444D01*
X165299527Y-95513443D01*
X165204041Y-95348057D01*
X165076252Y-95206133D01*
X164921753Y-95093883D01*
X164921752Y-95093882D01*
X164747288Y-95016206D01*
X164560487Y-94976500D01*
X164369513Y-94976500D01*
X164244978Y-95002970D01*
X164182711Y-95016206D01*
X164008246Y-95093883D01*
X163853747Y-95206133D01*
X163725958Y-95348057D01*
X163630472Y-95513443D01*
X163571458Y-95695070D01*
X163551496Y-95884999D01*
X163571458Y-96074929D01*
X163630471Y-96256553D01*
X163630473Y-96256556D01*
X163689619Y-96359000D01*
X163706500Y-96421999D01*
X163706500Y-98693628D01*
X163686498Y-98761749D01*
X163669595Y-98782723D01*
X161434225Y-101018092D01*
X161420377Y-101030061D01*
X161400944Y-101044529D01*
X161400942Y-101044530D01*
X161400942Y-101044531D01*
X161394851Y-101051790D01*
X161368773Y-101082868D01*
X161361360Y-101090958D01*
X161360017Y-101092301D01*
X161360011Y-101092307D01*
X161357420Y-101094899D01*
X161355149Y-101097770D01*
X161355140Y-101097781D01*
X161337997Y-101119460D01*
X161335688Y-101122294D01*
X161286119Y-101181369D01*
X161275589Y-101197899D01*
X161242995Y-101267794D01*
X161241401Y-101271087D01*
X161206795Y-101339997D01*
X161200363Y-101358500D01*
X161184759Y-101434064D01*
X161183967Y-101437637D01*
X161166192Y-101512640D01*
X161164202Y-101532115D01*
X161166447Y-101609258D01*
X161166500Y-101612922D01*
X161166500Y-101697999D01*
X161149619Y-101760999D01*
X161090472Y-101863443D01*
X161031458Y-102045070D01*
X161011496Y-102235000D01*
X101600500Y-102235000D01*
X101600500Y-101255571D01*
X101620502Y-101187450D01*
X101674158Y-101140957D01*
X101744432Y-101130853D01*
X101809012Y-101160347D01*
X101832495Y-101187447D01*
X101858308Y-101227612D01*
X101859332Y-101228794D01*
X101894417Y-101269284D01*
X101899153Y-101276375D01*
X101904801Y-101281269D01*
X101904802Y-101281270D01*
X102015261Y-101376982D01*
X102148210Y-101437698D01*
X102216331Y-101457700D01*
X102361000Y-101478500D01*
X102361003Y-101478500D01*
X119885631Y-101478500D01*
X119889000Y-101478500D01*
X119998149Y-101466766D01*
X120050491Y-101455380D01*
X120154657Y-101420710D01*
X120277612Y-101341692D01*
X120319288Y-101305579D01*
X120326375Y-101300846D01*
X120331268Y-101295198D01*
X120331270Y-101295198D01*
X120426982Y-101184739D01*
X120487698Y-101051790D01*
X120507700Y-100983669D01*
X120528500Y-100839000D01*
X120528500Y-89661000D01*
X120516766Y-89551851D01*
X120505380Y-89499509D01*
X120470710Y-89395343D01*
X120470709Y-89395341D01*
X120391693Y-89272389D01*
X120374176Y-89252173D01*
X120355581Y-89230713D01*
X120350846Y-89223624D01*
X120234739Y-89123018D01*
X120138988Y-89079290D01*
X120101790Y-89062302D01*
X120045184Y-89045681D01*
X120033673Y-89042301D01*
X120033671Y-89042300D01*
X120033669Y-89042300D01*
X119889000Y-89021500D01*
X102361000Y-89021500D01*
X102357653Y-89021859D01*
X102357649Y-89021860D01*
X102255214Y-89032872D01*
X102255205Y-89032873D01*
X102251851Y-89033234D01*
X102248551Y-89033951D01*
X102248550Y-89033952D01*
X102202790Y-89043906D01*
X102202785Y-89043907D01*
X102199509Y-89044620D01*
X102196331Y-89045677D01*
X102196319Y-89045681D01*
X102095341Y-89079290D01*
X101972389Y-89158306D01*
X101930714Y-89194418D01*
X101923624Y-89199152D01*
X101821724Y-89316753D01*
X101761998Y-89355137D01*
X101691001Y-89355137D01*
X101631275Y-89316754D01*
X101601782Y-89252173D01*
X101600500Y-89234254D01*
X101600500Y-83823300D01*
X102967084Y-83823300D01*
X102987079Y-84204832D01*
X102987766Y-84211370D01*
X103047534Y-84588734D01*
X103048905Y-84595184D01*
X103147787Y-84964215D01*
X103149829Y-84970498D01*
X103286739Y-85327164D01*
X103289421Y-85333188D01*
X103462873Y-85673605D01*
X103466169Y-85679314D01*
X103674248Y-85999727D01*
X103678130Y-86005070D01*
X103882876Y-86257911D01*
X103882877Y-86257912D01*
X104800147Y-85340641D01*
X104747449Y-85419511D01*
X104728046Y-85517056D01*
X104747449Y-85614601D01*
X104802704Y-85697296D01*
X104885399Y-85752551D01*
X104958320Y-85767056D01*
X105007568Y-85767056D01*
X105080489Y-85752551D01*
X105159349Y-85699857D01*
X104242086Y-86617121D01*
X104242087Y-86617122D01*
X104494929Y-86821869D01*
X104500272Y-86825751D01*
X104820685Y-87033830D01*
X104826394Y-87037126D01*
X105166811Y-87210578D01*
X105172835Y-87213260D01*
X105529501Y-87350170D01*
X105535784Y-87352212D01*
X105904815Y-87451094D01*
X105911265Y-87452465D01*
X106288629Y-87512233D01*
X106295167Y-87512920D01*
X106676699Y-87532916D01*
X106683301Y-87532916D01*
X107064832Y-87512920D01*
X107071370Y-87512233D01*
X107448734Y-87452465D01*
X107455184Y-87451094D01*
X107824215Y-87352212D01*
X107830498Y-87350170D01*
X108187164Y-87213260D01*
X108193188Y-87210578D01*
X108533605Y-87037126D01*
X108539314Y-87033830D01*
X108859728Y-86825751D01*
X108865064Y-86821874D01*
X109117912Y-86617121D01*
X108200646Y-85699855D01*
X108279511Y-85752551D01*
X108352432Y-85767056D01*
X108401680Y-85767056D01*
X108474601Y-85752551D01*
X108557296Y-85697296D01*
X108612551Y-85614601D01*
X108631954Y-85517056D01*
X108612551Y-85419511D01*
X108559855Y-85340646D01*
X109477121Y-86257912D01*
X109681874Y-86005064D01*
X109685751Y-85999728D01*
X109893830Y-85679314D01*
X109897126Y-85673605D01*
X110070578Y-85333188D01*
X110073260Y-85327164D01*
X110210170Y-84970498D01*
X110212212Y-84964215D01*
X110311094Y-84595184D01*
X110312465Y-84588734D01*
X110372233Y-84211370D01*
X110372920Y-84204832D01*
X110392916Y-83823300D01*
X191867084Y-83823300D01*
X191887079Y-84204832D01*
X191887766Y-84211370D01*
X191947534Y-84588734D01*
X191948905Y-84595184D01*
X192047787Y-84964215D01*
X192049829Y-84970498D01*
X192186739Y-85327164D01*
X192189421Y-85333188D01*
X192362873Y-85673605D01*
X192366169Y-85679314D01*
X192574248Y-85999727D01*
X192578130Y-86005070D01*
X192782876Y-86257911D01*
X192782877Y-86257912D01*
X193700147Y-85340641D01*
X193647449Y-85419511D01*
X193628046Y-85517056D01*
X193647449Y-85614601D01*
X193702704Y-85697296D01*
X193785399Y-85752551D01*
X193858320Y-85767056D01*
X193907568Y-85767056D01*
X193980489Y-85752551D01*
X194059349Y-85699857D01*
X193142086Y-86617121D01*
X193142087Y-86617122D01*
X193394929Y-86821869D01*
X193400272Y-86825751D01*
X193720685Y-87033830D01*
X193726394Y-87037126D01*
X194066811Y-87210578D01*
X194072835Y-87213260D01*
X194429501Y-87350170D01*
X194435784Y-87352212D01*
X194804815Y-87451094D01*
X194811265Y-87452465D01*
X195188629Y-87512233D01*
X195195167Y-87512920D01*
X195576699Y-87532916D01*
X195583301Y-87532916D01*
X195964832Y-87512920D01*
X195971370Y-87512233D01*
X196348734Y-87452465D01*
X196355184Y-87451094D01*
X196724215Y-87352212D01*
X196730498Y-87350170D01*
X197087164Y-87213260D01*
X197093188Y-87210578D01*
X197433605Y-87037126D01*
X197439314Y-87033830D01*
X197759728Y-86825751D01*
X197765064Y-86821874D01*
X198017912Y-86617121D01*
X197100646Y-85699855D01*
X197179511Y-85752551D01*
X197252432Y-85767056D01*
X197301680Y-85767056D01*
X197374601Y-85752551D01*
X197457296Y-85697296D01*
X197512551Y-85614601D01*
X197531954Y-85517056D01*
X197512551Y-85419511D01*
X197459855Y-85340646D01*
X198377121Y-86257912D01*
X198581874Y-86005064D01*
X198585751Y-85999728D01*
X198793830Y-85679314D01*
X198797126Y-85673605D01*
X198970578Y-85333188D01*
X198973260Y-85327164D01*
X199110170Y-84970498D01*
X199112212Y-84964215D01*
X199211094Y-84595184D01*
X199212465Y-84588734D01*
X199272233Y-84211370D01*
X199272920Y-84204832D01*
X199292916Y-83823300D01*
X199292916Y-83816699D01*
X199272920Y-83435167D01*
X199272233Y-83428629D01*
X199212465Y-83051265D01*
X199211094Y-83044815D01*
X199112212Y-82675784D01*
X199110170Y-82669501D01*
X198973260Y-82312835D01*
X198970578Y-82306811D01*
X198797127Y-81966397D01*
X198793830Y-81960686D01*
X198585753Y-81640275D01*
X198581865Y-81634924D01*
X198377122Y-81382087D01*
X198377121Y-81382086D01*
X197459858Y-82299348D01*
X197512551Y-82220489D01*
X197531954Y-82122944D01*
X197512551Y-82025399D01*
X197457296Y-81942704D01*
X197374601Y-81887449D01*
X197301680Y-81872944D01*
X197252432Y-81872944D01*
X197179511Y-81887449D01*
X197100642Y-81940147D01*
X198017912Y-81022877D01*
X198017911Y-81022876D01*
X197765070Y-80818130D01*
X197759727Y-80814248D01*
X197439314Y-80606169D01*
X197433605Y-80602873D01*
X197093188Y-80429421D01*
X197087164Y-80426739D01*
X196730498Y-80289829D01*
X196724215Y-80287787D01*
X196355184Y-80188905D01*
X196348734Y-80187534D01*
X195971370Y-80127766D01*
X195964832Y-80127079D01*
X195583301Y-80107084D01*
X195576699Y-80107084D01*
X195195167Y-80127079D01*
X195188629Y-80127766D01*
X194811265Y-80187534D01*
X194804815Y-80188905D01*
X194435784Y-80287787D01*
X194429501Y-80289829D01*
X194072835Y-80426739D01*
X194066811Y-80429421D01*
X193726397Y-80602872D01*
X193720686Y-80606169D01*
X193400267Y-80814251D01*
X193394938Y-80818123D01*
X193142086Y-81022877D01*
X194059353Y-81940144D01*
X193980489Y-81887449D01*
X193907568Y-81872944D01*
X193858320Y-81872944D01*
X193785399Y-81887449D01*
X193702704Y-81942704D01*
X193647449Y-82025399D01*
X193628046Y-82122944D01*
X193647449Y-82220489D01*
X193700143Y-82299352D01*
X192782877Y-81382086D01*
X192578123Y-81634938D01*
X192574251Y-81640267D01*
X192366169Y-81960686D01*
X192362872Y-81966397D01*
X192189421Y-82306811D01*
X192186739Y-82312835D01*
X192049829Y-82669501D01*
X192047787Y-82675784D01*
X191948905Y-83044815D01*
X191947534Y-83051265D01*
X191887766Y-83428629D01*
X191887079Y-83435167D01*
X191867084Y-83816699D01*
X191867084Y-83823300D01*
X110392916Y-83823300D01*
X110392916Y-83816699D01*
X110372920Y-83435167D01*
X110372233Y-83428629D01*
X110312465Y-83051265D01*
X110311094Y-83044815D01*
X110212212Y-82675784D01*
X110210170Y-82669501D01*
X110073260Y-82312835D01*
X110070578Y-82306811D01*
X109897127Y-81966397D01*
X109893830Y-81960686D01*
X109685753Y-81640275D01*
X109681865Y-81634924D01*
X109477122Y-81382087D01*
X109477121Y-81382086D01*
X108559858Y-82299348D01*
X108612551Y-82220489D01*
X108631954Y-82122944D01*
X108612551Y-82025399D01*
X108557296Y-81942704D01*
X108474601Y-81887449D01*
X108401680Y-81872944D01*
X108352432Y-81872944D01*
X108279511Y-81887449D01*
X108200641Y-81940147D01*
X109117912Y-81022877D01*
X109117911Y-81022876D01*
X108865070Y-80818130D01*
X108859727Y-80814248D01*
X108539314Y-80606169D01*
X108533605Y-80602873D01*
X108193188Y-80429421D01*
X108187164Y-80426739D01*
X107830498Y-80289829D01*
X107824215Y-80287787D01*
X107455184Y-80188905D01*
X107448734Y-80187534D01*
X107071370Y-80127766D01*
X107064832Y-80127079D01*
X106683301Y-80107084D01*
X106676699Y-80107084D01*
X106295167Y-80127079D01*
X106288629Y-80127766D01*
X105911265Y-80187534D01*
X105904815Y-80188905D01*
X105535784Y-80287787D01*
X105529501Y-80289829D01*
X105172835Y-80426739D01*
X105166811Y-80429421D01*
X104826397Y-80602872D01*
X104820686Y-80606169D01*
X104500267Y-80814251D01*
X104494938Y-80818123D01*
X104242086Y-81022877D01*
X105159352Y-81940143D01*
X105080489Y-81887449D01*
X105007568Y-81872944D01*
X104958320Y-81872944D01*
X104885399Y-81887449D01*
X104802704Y-81942704D01*
X104747449Y-82025399D01*
X104728046Y-82122944D01*
X104747449Y-82220489D01*
X104800143Y-82299352D01*
X103882877Y-81382086D01*
X103678123Y-81634938D01*
X103674251Y-81640267D01*
X103466169Y-81960686D01*
X103462872Y-81966397D01*
X103289421Y-82306811D01*
X103286739Y-82312835D01*
X103149829Y-82669501D01*
X103147787Y-82675784D01*
X103048905Y-83044815D01*
X103047534Y-83051265D01*
X102987766Y-83428629D01*
X102987079Y-83435167D01*
X102967084Y-83816699D01*
X102967084Y-83823300D01*
X101600500Y-83823300D01*
X101600500Y-78866499D01*
X101620502Y-78798379D01*
X101674158Y-78751886D01*
X101726500Y-78740500D01*
X200533500Y-78740500D01*
X200601621Y-78760502D01*
G37*
%TD.AperFunction*%
%TD*%
M02*
